<svg width="124" height="20" viewBox="0 0 124 20" fill="none" xmlns="http://www.w3.org/2000/svg">
<g clip-path="url(#clip0_10394_15686)">
<path d="M4.47268 10.0013L2.23293 12.2391L-0.00488281 10.0013L2.23293 7.76348L4.47268 10.0013ZM9.90349 4.56661L13.7397 8.40286L15.9776 6.16504L9.90349 0.0929203L3.83137 6.16504L6.06918 8.40286L9.90543 4.56661H9.90349ZM17.576 7.76348L15.3382 10.0013L17.576 12.2391L19.8119 10.0013L17.576 7.76348ZM9.90349 15.434L6.06724 11.5997L3.82943 13.8375L9.90156 19.9097L15.9756 13.8375L13.7378 11.6017L9.90349 15.434ZM9.90349 12.2391L12.1413 10.0013L9.90349 7.76348L7.66568 10.0013L9.90349 12.2391ZM33.5216 12.4542V12.4232C33.5216 10.9623 32.7466 10.2338 31.4872 9.75329C32.2622 9.31736 32.9171 8.63536 32.9171 7.40892V7.37792C32.9171 5.67098 31.5492 4.56661 29.3289 4.56661H24.2875V15.436H29.4567C31.9096 15.436 33.5236 14.442 33.5216 12.4542ZM30.5417 7.80804C30.5417 8.61598 29.8752 8.95698 28.8174 8.95698H26.6164V6.66298H28.9762C29.9857 6.66298 30.5437 7.06598 30.5437 7.77898L30.5417 7.80804ZM31.1462 12.1558C31.1462 12.9618 30.5107 13.3338 29.4548 13.3338H26.6164V10.9468H29.3792C30.6076 10.9468 31.1482 11.3982 31.1482 12.1287L31.1462 12.1558ZM38.5436 15.436V4.56854H36.145V15.436H38.5436ZM51.397 15.436V4.56854H49.0294V11.2607L43.9357 4.56854H41.7327V15.436H44.0926V8.52492L49.3549 15.434L51.397 15.436ZM64.6398 15.436L59.9743 4.49104H57.7714L53.1136 15.436H55.551L56.5488 12.9986H61.1426L62.1385 15.436H64.6398ZM60.2921 10.8867H57.3994L58.8428 7.36436L60.2921 10.8867ZM76.0362 15.436V4.56854H73.6686V11.2607L68.5768 4.56661H66.3719V15.434H68.7318V8.52492L73.996 15.434L76.0362 15.436ZM88.3781 13.6806L86.8571 12.1422C86.0027 12.9172 85.2432 13.4152 84.0012 13.4152C82.1393 13.4152 80.8489 11.8652 80.8489 9.99936V9.96836C80.8489 8.10642 82.1684 6.58354 84.0012 6.58354C85.0862 6.58354 85.9368 7.04854 86.7796 7.80998L88.2967 6.05654C87.2892 5.06454 86.0608 4.38061 84.0129 4.38061C80.6746 4.38061 78.3476 6.91098 78.3476 9.99548V10.0265C78.3476 13.1478 80.723 15.6142 83.9199 15.6142C86.0104 15.62 87.2543 14.876 88.3703 13.6806H88.3781ZM98.579 15.436V13.3067H92.6735V11.0204H97.7982V8.88917H92.6735V6.69592H98.4937V4.56661H90.2981V15.434L98.579 15.436ZM101.431 15.4379V13.8065H102.861V15.4379H101.431ZM114.011 10.7937C114.011 13.9615 112.192 15.6084 109.475 15.6084C106.759 15.6084 104.948 13.9635 104.948 10.8867V4.56467H106.174V10.8092C106.174 13.1536 107.414 14.473 109.499 14.473C111.502 14.473 112.777 13.2621 112.777 10.8848V4.56273H114.005L114.011 10.7937ZM120.451 9.40842C122.875 9.93736 123.995 10.8228 123.995 12.5065C123.995 14.3859 122.445 15.6045 120.281 15.6045C118.557 15.6045 117.142 15.0233 115.829 13.8627L116.6 12.956C117.733 13.9809 118.82 14.4944 120.327 14.4944C121.786 14.4885 122.755 13.729 122.755 12.6285C122.755 11.6017 122.211 11.0282 119.926 10.5457C117.425 10.0013 116.274 9.18948 116.274 7.39148C116.274 5.64967 117.783 4.41161 119.849 4.41161C121.244 4.37092 122.604 4.84754 123.67 5.74848L122.949 6.69398C121.939 5.87054 120.93 5.51211 119.81 5.51211C118.398 5.51211 117.487 6.28711 117.487 7.28298C117.499 8.32148 118.059 8.88917 120.451 9.40842Z" fill="#1D2A3A"/>
</g>
<defs>
<clipPath id="clip0_10394_15686">
<rect width="124" height="19.8167" fill="white" transform="matrix(1 0 0 -1 -0.00488281 19.9097)"/>
</clipPath>
</defs>
</svg>
