<svg width="130" height="27" viewBox="0 0 130 27" fill="none" xmlns="http://www.w3.org/2000/svg">
<g clip-path="url(#clip0_9763_12715)">
<path d="M5.90512 13.4204L2.95186 16.3562L0 13.4204L2.95045 10.4847L5.90371 13.4204H5.90512ZM13.0651 6.29052L18.1224 11.3254L21.0728 8.38969L13.0651 0.42041L5.05731 8.38829L8.00776 11.324L13.0651 6.28912V6.29052ZM23.1811 10.4847L20.2306 13.4204L23.1811 16.3562L26.1301 13.4204L23.1811 10.4847ZM13.0651 20.5503L8.00776 15.5182L5.05731 18.4525L13.0651 26.4204L21.0728 18.4525L18.1224 15.5182L13.0651 20.5503ZM13.0651 16.3562L16.0155 13.4204L13.0651 10.4847L10.1146 13.4204L13.0651 16.3562ZM44.2088 16.6378V16.5972C44.2088 14.6816 43.1878 13.7245 41.526 13.0939C42.547 12.5222 43.4103 11.6253 43.4103 10.018V9.97738C43.4103 7.73668 41.6077 6.28912 38.6797 6.28912H32.0324V20.5489H38.8487C42.0837 20.5489 44.2145 19.2457 44.2145 16.6378H44.2088ZM40.2782 10.5421C40.2782 11.6015 39.398 12.0513 38.0066 12.0513H35.104V9.0413H38.2164C39.5459 9.0413 40.2838 9.5696 40.2838 10.5071L40.2782 10.5421ZM41.0767 16.2469C41.0767 17.3063 40.2374 17.7939 38.8431 17.7939H35.104V14.662H38.7473C40.3655 14.662 41.0838 15.2533 41.0838 16.2118L41.0781 16.2469H41.0767ZM50.8336 20.5503V6.29052H47.6705V20.5503H50.8336ZM67.7814 20.5503V6.29052H64.6592V15.0712L57.9457 6.29052H55.0375V20.5503H58.1499V11.4852L65.0887 20.5503H67.7814ZM85.2447 20.5503L79.0931 6.18822H76.1849L70.046 20.5503H73.2598L74.5738 17.3525H80.6339L81.9436 20.5503H85.2447ZM79.5142 14.5807H75.6948L77.5989 9.95776L79.5128 14.5807H79.5142ZM100.273 20.5503V6.29052H97.1507V15.0712L90.4344 6.29052H87.529V20.5503H90.6386V11.4852L97.5803 20.5503H100.273ZM116.546 18.2493L114.542 16.2329C113.417 17.2488 112.413 17.9018 110.775 17.9018C108.319 17.9018 106.619 15.8699 106.619 13.4218V13.3812C106.619 10.9373 108.36 8.94181 110.775 8.94181C112.207 8.94181 113.328 9.55138 114.441 10.5491L116.439 8.24816C115.11 6.94493 113.493 6.04809 110.79 6.04809C106.389 6.04809 103.318 9.36781 103.318 13.4148V13.4554C103.318 17.5501 106.45 20.7885 110.668 20.7885C113.427 20.7955 115.063 19.8188 116.536 18.2507H116.546V18.2493ZM130 20.5503V17.7561H122.209V14.7559H128.966V11.9616H122.209V9.08054H129.887V6.28632H119.077V20.5461L130 20.5489V20.5503Z" fill="#1D2A3A"/>
</g>
<defs>
<clipPath id="clip0_9763_12715">
<rect width="130" height="26" fill="white" transform="translate(0 0.42041)"/>
</clipPath>
</defs>
</svg>
