<svg width="120" height="28" viewBox="0 0 120 28" fill="none" xmlns="http://www.w3.org/2000/svg">
<path d="M17.5571 16.1027C17.5571 13.8169 16.2373 11.9924 14.0977 11.2505C15.7174 10.5087 16.8372 8.96481 16.8372 6.97985C16.8372 3.87208 14.2376 1.70667 10.5382 1.70667H0V4.35328C1.65972 4.35328 2.9995 5.69664 2.9995 7.3608C2.9995 9.02496 1.65972 10.3683 0 10.3683V12.7543C1.65972 12.7543 2.9995 14.0977 2.9995 15.7618C2.9995 17.426 1.65972 18.7693 0 18.7693V21.6365H10.9982C14.7775 21.6365 17.5171 19.3909 17.5171 16.1227M5.65906 4.57384H9.99833C11.778 4.57384 13.0378 5.73674 13.0378 7.3608C13.0378 8.98486 11.778 10.1077 9.99833 10.1077H5.65906C5.65906 10.1077 5.65906 4.57384 5.65906 4.57384ZM5.65906 18.7292V12.7142H10.3983C12.3579 12.7142 13.6777 13.9372 13.6777 15.7017C13.6777 17.4661 12.3579 18.7292 10.3983 18.7292H5.65906ZM21.8364 0.664062C23.1561 0.664062 24.116 1.60642 24.116 2.94978C24.116 4.29313 23.1761 5.23549 21.8364 5.23549C20.5166 5.23549 19.5967 4.29313 19.5967 2.94978C19.5967 1.60642 20.5366 0.664062 21.8364 0.664062ZM19.9367 7.10015H23.716V21.6164H19.9367V7.10015ZM31.0348 7.0801H35.0542V9.96732H31.0348V16.9047C31.0348 18.0074 31.9147 18.9297 33.0145 18.9498C33.5944 18.9498 34.2343 18.8696 34.9342 18.6891L35.4341 21.5362C34.2743 21.837 33.1945 21.9774 32.1546 21.9774C29.2551 21.9774 27.2355 20.0726 27.2355 17.2856V3.77183C27.2355 3.25053 27.6554 2.82948 28.1753 2.82948H31.0148V7.0801H31.0348ZM42.7129 6.73925C44.3926 6.73925 46.1923 7.08011 48.032 7.74176L47.2121 10.4686C45.7524 9.90717 44.3126 9.54627 43.0128 9.54627C41.7131 9.54627 40.7732 10.1678 40.7732 11.1102C40.7732 13.7367 48.5119 11.832 48.5119 17.446C48.5119 20.0926 46.1323 21.9573 42.7129 21.9573C40.9332 21.9573 38.9935 21.5563 36.9538 20.7944L37.7537 18.0876C39.4334 18.7693 41.0332 19.1302 42.4329 19.1302C43.8327 19.1302 44.8125 18.4485 44.8125 17.446C44.8125 14.6992 37.0938 16.624 37.0938 11.1102C37.0938 8.56381 39.3934 6.7192 42.7529 6.7192M54.5309 7.0801H58.5502V9.96732H54.5309V16.9047C54.5309 18.0074 55.4108 18.9297 56.5106 18.9498C57.0905 18.9498 57.7304 18.8696 58.4303 18.6891L58.9302 21.5362C57.7704 21.837 56.6906 21.9774 55.6507 21.9774C52.7512 21.9774 50.7316 20.0726 50.7316 17.2856V3.77183C50.7316 3.23048 51.1715 2.82948 51.6714 2.82948H54.5109V7.0801H54.5309ZM78.5469 7.0801H81.5664L82.0463 9.06506C83.2061 7.5613 84.8859 6.73925 86.8055 6.73925C88.9052 6.73925 90.6049 7.74176 91.4448 9.40592C92.7645 7.68161 94.5842 6.73925 96.6839 6.73925C99.8434 6.73925 102.103 8.94477 102.103 12.0325V21.5964H98.3236V12.6139C98.3236 10.9899 97.1638 9.82697 95.5241 9.82697C93.6044 9.82697 92.2446 11.2906 92.2446 13.3558V21.5964H88.4653V12.6139C88.4653 10.9899 87.3055 9.82697 85.6857 9.82697C83.7261 9.82697 82.3863 11.2906 82.3863 13.3558V21.5964H78.6069V7.0801H78.5469ZM105.202 7.0801H108.222L108.702 8.94477C109.762 7.52121 111.421 6.7192 113.341 6.7192C117.24 6.7192 120 9.86707 120 14.3383C120 18.8094 117.26 21.9372 113.341 21.9372C111.561 21.9372 110.042 21.2154 108.982 19.9322V26.3884C108.982 26.9097 108.562 27.3307 108.042 27.3307H105.182L105.202 7.0801ZM112.341 9.72672C110.342 9.72672 108.902 11.2305 108.902 13.3758V15.3408C108.902 17.446 110.322 18.9899 112.341 18.9899C114.561 18.9899 116.121 17.0651 116.121 14.3783C116.141 11.6916 114.561 9.74677 112.341 9.72672ZM71.4081 15.3207C71.4081 17.426 69.9883 18.9698 67.9687 18.9698C65.749 18.9698 64.1893 17.045 64.1893 14.3583C64.1893 11.6716 65.749 9.72672 67.9687 9.72672C69.9683 9.72672 71.4081 11.2305 71.4081 13.3758V15.3207ZM75.1275 14.4786V7.0801H72.108L71.6281 8.94477C70.5682 7.52121 68.9085 6.7192 66.9888 6.7192C63.0895 6.7192 60.33 9.86707 60.33 14.3383C60.33 18.8094 63.0695 21.9372 66.9888 21.9372C67.2088 21.9372 67.4288 21.9372 67.6487 21.8971C69.2885 21.7367 70.6682 20.9548 71.6281 19.7117L72.108 21.5763H75.1275V14.4786Z" fill="#1D2A3A"/>
</svg>
