<svg width="70" height="28" viewBox="0 0 70 28" fill="none" xmlns="http://www.w3.org/2000/svg">
<path d="M49.8916 20.7215V2.73291H53.5074V20.7215H49.8916Z" fill="#1D2A3A"/>
<path d="M7.75155 26.0652H0V8.07666H7.43984C11.0557 8.07666 13.1625 10.0473 13.1625 13.1298C13.1625 15.1251 11.8094 16.4145 10.8729 16.8439C11.9908 17.3489 13.4217 18.4856 13.4217 20.8869C13.4217 24.246 11.0557 26.0652 7.75155 26.0652ZM7.15365 11.2101H3.61578V15.3535H7.15365C8.68813 15.3535 9.54671 14.5196 9.54671 13.2811C9.54671 12.044 8.68813 11.2101 7.15365 11.2101ZM7.38742 18.5117H3.61578V22.9331H7.38742C9.0267 22.9331 9.80595 21.9231 9.80595 20.7094C9.80595 19.497 9.02525 18.5117 7.38742 18.5117Z" fill="#1D2A3A"/>
<path d="M24.45 18.6878V26.0652H20.8597V18.6878L15.293 8.07666H19.2205L22.6804 15.3274L26.0879 8.07666H30.0154L24.45 18.6878Z" fill="#1D2A3A"/>
<path d="M40.2662 26.0652H32.5146V8.07666H39.9545C43.5703 8.07666 45.6771 10.0473 45.6771 13.1298C45.6771 15.1251 44.3241 16.4145 43.3875 16.8439C44.5054 17.3489 45.9365 18.4856 45.9365 20.8869C45.9365 24.246 43.5703 26.0652 40.2662 26.0652ZM39.6683 11.2101H36.1304V15.3535H39.6683C41.2028 15.3535 42.0614 14.5196 42.0614 13.2811C42.0614 12.044 41.2028 11.2101 39.6683 11.2101ZM39.9021 18.5117H36.1304V22.9331H39.9021C41.5414 22.9331 42.3206 21.9231 42.3206 20.7094C42.3206 19.497 41.5414 18.5117 39.9021 18.5117Z" fill="#1D2A3A"/>
<path d="M65.1613 11.2101V26.0666H61.5456V11.2101H56.707V8.07666H69.9999V11.2101H65.1613Z" fill="#1D2A3A"/>
</svg>
