<svg width="130" height="17" viewBox="0 0 130 17" fill="none" xmlns="http://www.w3.org/2000/svg">
<path d="M100.564 6.80427H103.296C104.147 6.80427 104.567 6.88999 104.961 7.09674C105.324 7.28331 105.64 7.82286 105.64 8.43301C105.64 9.14401 105.324 9.60792 104.774 9.88526C104.339 10.1021 103.748 10.1777 103.172 10.1777H100.569V6.80427H100.564ZM100.564 11.4838H102.965C105.511 11.4838 107.201 10.6719 107.201 8.43301C107.201 7.38416 106.755 6.52693 105.931 6.03276C105.283 5.63944 104.531 5.49321 103.156 5.49321H99.0078V15.664H100.569L100.564 11.4838ZM111.282 6.7135H113.943C114.736 6.7135 115.322 6.83957 115.633 7.04631C116.084 7.34382 116.354 7.78756 116.354 8.4431C116.354 9.47682 115.587 10.1727 113.943 10.1727H111.282V6.7135ZM118.983 15.6691L113.471 11.398C116.743 11.3224 117.915 10.4248 117.915 8.38763C117.915 6.73367 116.727 5.49825 114.358 5.49825H109.716V15.6691H111.277V11.398H111.5L116.826 15.6691H118.983ZM124.978 14.5647C123.142 14.5647 121.695 13.3747 121.695 10.5811C121.695 7.78756 123.142 6.59752 124.978 6.59752C126.814 6.59752 128.26 7.78756 128.26 10.5811C128.26 13.3747 126.814 14.5647 124.978 14.5647ZM124.978 5.2915C121.726 5.2915 120.134 7.70184 120.134 10.5811C120.134 13.4604 121.726 15.8708 124.978 15.8708C128.229 15.8708 129.821 13.4604 129.821 10.5811C129.821 7.70184 128.229 5.2915 124.978 5.2915Z" fill="#1D2A3A"/>
<path d="M18.7539 4.88811C15.4143 4.88811 12.8007 7.35391 12.8007 10.6618C12.8007 13.9697 15.3521 16.4204 18.7539 16.4204C22.1558 16.4204 24.7538 13.9244 24.7538 10.6467C24.7694 7.36904 22.218 4.88811 18.7539 4.88811ZM18.7851 14.0302C16.8819 14.0302 15.4921 12.5881 15.4921 10.6618C15.4921 8.73557 16.8663 7.27827 18.7695 7.27827C20.6727 7.27827 22.0935 8.73557 22.0935 10.6618C22.078 12.5881 20.6882 14.0302 18.7851 14.0302ZM25.4954 7.39929H27.1496V16.1985H29.8099V5.09989H25.4954V7.39929ZM6.11635 7.26315C7.50613 7.26315 8.62105 8.10525 9.0411 9.34067H11.8569C11.3487 6.67821 9.08777 4.87298 6.14747 4.87298C2.79231 4.88811 0.178711 7.35391 0.178711 10.6618C0.178711 13.9697 2.73008 16.4204 6.13191 16.4204C9.00998 16.4204 11.3124 14.6152 11.8258 11.9376H9.0411C8.63661 13.1881 7.54243 14.0454 6.13191 14.0454C4.19764 14.0454 2.85454 12.6032 2.85454 10.6769C2.85454 8.71036 4.18208 7.26315 6.11635 7.26315ZM75.9939 9.58272L74.044 9.29529C73.1158 9.15914 72.452 8.85659 72.452 8.15063C72.452 7.38417 73.318 6.99085 74.4952 6.99085C75.7812 6.99085 76.6006 7.5304 76.7821 8.40276H79.349C79.0534 6.179 77.2903 4.86794 74.5678 4.86794C71.8453 4.86794 69.8955 6.26472 69.8955 8.23636C69.8955 10.208 71.1193 11.2165 73.5773 11.5594L75.5271 11.8468C76.4865 11.983 77.0103 12.341 77.0103 13.0369C77.0103 13.9243 76.082 14.2874 74.8011 14.2874C73.2247 14.2874 72.3431 13.6722 72.2031 12.7242H69.5895C69.8384 14.8875 71.586 16.4103 74.77 16.4103C77.6792 16.4103 79.5979 15.1144 79.5979 12.9058C79.5824 10.9341 78.1719 9.91048 75.9939 9.58272ZM28.4823 0.526304C27.5074 0.526304 26.7814 1.21713 26.7814 2.15C26.7814 3.08287 27.5074 3.7737 28.4823 3.7737C29.4573 3.7737 30.1833 3.08287 30.1833 2.15C30.1833 1.21713 29.4573 0.526304 28.4823 0.526304ZM67.4841 8.90197C67.4841 6.49668 65.9854 4.88811 62.7807 4.88811C59.7626 4.88811 58.0772 6.37566 57.7557 8.64985H60.3849C60.5249 7.76236 61.2198 7.04127 62.734 7.04127C64.0771 7.04127 64.746 7.62621 64.746 8.33721C64.746 9.25495 63.5222 9.49699 62.0235 9.64323C59.9804 9.85501 57.4601 10.5458 57.4601 13.1175C57.4601 15.1194 58.9899 16.3952 61.4168 16.3952C63.32 16.3952 64.5127 15.6287 65.1142 14.3933C65.2076 15.4926 66.0425 16.1985 67.2196 16.1985H68.765V13.8991H67.453L67.4841 8.90197ZM64.8705 11.6855C64.8705 13.173 63.5378 14.2572 61.9302 14.2572C60.9397 14.2572 60.0893 13.8487 60.0893 12.9915C60.0893 11.8922 61.4324 11.5947 62.6873 11.4737C63.88 11.3678 64.5438 11.1106 64.8809 10.6164C64.8705 10.6164 64.8705 11.6855 64.8705 11.6855ZM50.7654 4.88811C49.2822 4.88811 48.0429 5.48817 47.1613 6.49668V0.42041H44.501V16.1985H47.1146V14.7412C47.9962 15.7951 49.2667 16.4103 50.7654 16.4103C53.9494 16.4103 56.3659 13.9596 56.3659 10.6517C56.3659 7.34383 53.9079 4.88811 50.7654 4.88811ZM50.3661 14.0302C48.4629 14.0302 47.0731 12.5881 47.0731 10.6618C47.0731 8.73557 48.494 7.27827 50.3972 7.27827C52.3003 7.27827 53.6745 8.72044 53.6745 10.6618C53.659 12.5881 52.2692 14.0302 50.3661 14.0302ZM38.133 4.88811C36.4009 4.88811 35.2704 5.57894 34.6067 6.54206V5.09989H31.9775V16.1985H34.6378V10.1677C34.6378 8.46831 35.7527 7.26315 37.3914 7.26315C38.9212 7.26315 39.865 8.31704 39.865 9.83484V16.1985H42.5253V9.65836C42.5253 6.85974 41.037 4.88811 38.133 4.88811ZM92.2459 10.2887C92.2459 7.11691 89.8501 4.87298 86.6453 4.87298C83.2279 4.87298 80.7388 7.36904 80.7388 10.6467C80.7388 14.1059 83.4146 16.4053 86.692 16.4053C89.4612 16.4053 91.6236 14.8118 92.1837 12.5679H89.4145C89.01 13.5613 88.0403 14.116 86.7387 14.116C85.0377 14.116 83.7517 13.0772 83.4613 11.2871H92.2614L92.2459 10.2887ZM83.6013 9.43144C84.0213 7.88338 85.2244 7.13204 86.5883 7.13204C88.0869 7.13204 89.2485 7.97414 89.513 9.43144H83.6013Z" fill="#1D2A3A"/>
</svg>
