<svg width="130" height="26" viewBox="0 0 130 26" fill="none" xmlns="http://www.w3.org/2000/svg">
<path d="M22.3439 3.39673C22.5978 3.62085 22.782 3.80886 22.8968 3.96075C22.9212 3.99246 22.9327 4.03218 22.9292 4.07203C22.9257 4.11188 22.9072 4.14894 22.8776 4.17584L21.0247 5.84559C21.0071 5.86168 20.9861 5.87353 20.9632 5.88026C20.9403 5.88698 20.9162 5.88841 20.8925 5.88442C20.8689 5.88043 20.8465 5.87114 20.8269 5.85724C20.8073 5.84334 20.791 5.8252 20.7793 5.80416C19.5737 3.6267 17.8142 2.07113 15.5008 1.13748C14.9846 0.928228 14.5066 0.752968 14.0669 0.611699C13.5804 0.455558 13.5926 0.372709 14.1035 0.363149C17.2529 0.305791 19.9997 1.31699 22.3439 3.39673Z" fill="#1D2A3A"/>
<path d="M17.9703 3.94642C18.7966 4.70588 19.46 5.58802 19.9603 6.59284C19.9761 6.6242 19.981 6.66004 19.9741 6.69468C19.9671 6.72932 19.9488 6.76076 19.922 6.78403L17.4365 8.94769C17.4051 8.97525 17.3641 8.98935 17.3224 8.98697C17.2807 8.98458 17.2415 8.9659 17.2135 8.93495C15.8401 7.40753 14.1177 6.52698 12.0465 6.29331C10.0517 6.06706 8.12705 6.67091 6.4812 7.85312C2.28453 10.8644 1.62969 16.6432 4.19645 20.9817C4.32073 21.1909 4.44447 21.4002 4.56768 21.6094C4.78543 21.979 4.72329 22.0348 4.38127 21.7767C3.18738 20.8749 2.24204 19.7819 1.54525 18.4977C-0.413408 14.8863 -0.510066 11.2462 1.25528 7.57748C4.22991 1.39719 12.6742 -0.911459 17.9703 3.94642Z" fill="#1D2A3A"/>
<path d="M71.8828 12.0912C71.9991 6.87161 77.5708 3.56557 82.2247 6.15304C84.895 7.63797 85.8892 10.2525 85.8558 13.2829C85.843 14.4046 85.8366 14.9707 85.8366 14.9813C85.8483 16.8072 85.8605 18.631 85.8733 20.4526C85.8733 20.4953 85.8565 20.5362 85.8266 20.5664C85.7967 20.5966 85.7562 20.6136 85.7139 20.6136H83.1599C83.1177 20.6136 83.0772 20.5968 83.0473 20.5669C83.0174 20.537 83.0006 20.4965 83.0006 20.4542C82.9974 17.9177 82.9964 15.3828 82.9974 12.8496C82.9974 12.0476 82.9268 11.4246 82.7855 10.9806C82.1626 9.02093 80.3319 7.81323 78.2782 8.10957C76.3439 8.38999 74.6981 9.94662 74.7061 12.0354C74.7167 14.8438 74.7172 17.6501 74.7076 20.4542C74.7076 20.4965 74.6909 20.537 74.661 20.5669C74.6311 20.5968 74.5906 20.6136 74.5483 20.6136H72.0134C71.9714 20.6136 71.9312 20.597 71.9013 20.5675C71.8715 20.5379 71.8545 20.4978 71.8541 20.4558C71.8212 17.2597 71.8307 14.4715 71.8828 12.0912Z" fill="#1D2A3A"/>
<path d="M34.7361 12.0209C35.622 5.51077 43.4592 3.20213 48.0033 7.77162C48.0183 7.78691 48.03 7.80507 48.0379 7.82501C48.0457 7.84496 48.0494 7.86627 48.0489 7.88769C48.0483 7.90911 48.0433 7.93019 48.0344 7.94967C48.0255 7.96915 48.0127 7.98662 47.9969 8.00105L46.1853 9.64531C46.1557 9.67246 46.1167 9.68708 46.0761 9.6862C46.0356 9.68531 45.9965 9.66897 45.9671 9.64053C44.6935 8.39671 43.2128 7.93785 41.525 8.26394C36.9619 9.14502 35.9948 15.0322 39.9795 17.3854C40.5043 17.6956 41.0863 17.8905 41.7258 17.9701C43.4688 18.1889 44.9495 17.6202 46.1678 16.2637C46.1944 16.2336 46.2316 16.2148 46.2719 16.2112C46.3122 16.2076 46.3525 16.2196 46.3845 16.2446L48.3665 17.7965C48.3836 17.81 48.3978 17.827 48.4082 17.8462C48.4186 17.8654 48.4249 17.8866 48.4269 17.9083C48.4288 17.9301 48.4263 17.952 48.4195 17.9728C48.4127 17.9936 48.4017 18.0127 48.3872 18.0291C46.5709 20.0451 44.3844 20.9634 41.8277 20.7839C37.3252 20.4668 34.1291 16.4804 34.7361 12.0209Z" fill="#1D2A3A"/>
<path d="M64.6239 13.1318C64.6239 15.1977 63.8032 17.179 62.3424 18.6398C60.8816 20.1006 58.9003 20.9213 56.8344 20.9213C54.7685 20.9213 52.7872 20.1006 51.3264 18.6398C49.8656 17.179 49.0449 15.1977 49.0449 13.1318C49.0449 11.0659 49.8656 9.08459 51.3264 7.62378C52.7872 6.16296 54.7685 5.34229 56.8344 5.34229C58.9003 5.34229 60.8816 6.16296 62.3424 7.62378C63.8032 9.08459 64.6239 11.0659 64.6239 13.1318ZM61.815 13.135C61.815 12.4813 61.6862 11.8341 61.4361 11.2302C61.186 10.6263 60.8193 10.0776 60.3571 9.61543C59.8949 9.15324 59.3462 8.78661 58.7424 8.53647C58.1385 8.28634 57.4912 8.15759 56.8376 8.15759C55.5175 8.15759 54.2515 8.68199 53.3181 9.61543C52.3846 10.5489 51.8602 11.8149 51.8602 13.135C51.8602 14.455 52.3846 15.7211 53.3181 16.6545C54.2515 17.5879 55.5175 18.1123 56.8376 18.1123C57.4912 18.1123 58.1385 17.9836 58.7424 17.7335C59.3462 17.4833 59.8949 17.1167 60.3571 16.6545C60.8193 16.1923 61.186 15.6436 61.4361 15.0397C61.6862 14.4358 61.815 13.7886 61.815 13.135Z" fill="#1D2A3A"/>
<path d="M69.3841 5.48193H66.6596C66.62 5.48193 66.5879 5.51403 66.5879 5.55363V20.5431C66.5879 20.5827 66.62 20.6148 66.6596 20.6148H69.3841C69.4237 20.6148 69.4558 20.5827 69.4558 20.5431V5.55363C69.4558 5.51403 69.4237 5.48193 69.3841 5.48193Z" fill="#1D2A3A"/>
<path d="M90.9056 17.4685C91.0437 17.7574 91.2758 17.9019 91.6019 17.9019L98.4546 17.9066C98.4968 17.9066 98.5373 17.9234 98.5672 17.9533C98.5971 17.9832 98.6139 18.0237 98.6139 18.066L98.6091 20.4144C98.6091 20.6513 98.487 20.7703 98.2427 20.7713C96.2585 20.7735 94.2839 20.774 92.3189 20.7729C89.741 20.7713 88.0824 19.5381 88.0935 16.8344C88.1105 12.9617 88.1079 10.371 88.0856 9.06239C88.0622 7.72299 88.0696 6.57902 88.1079 5.63049C88.1095 5.58935 88.127 5.55044 88.1567 5.52193C88.1864 5.49341 88.226 5.47751 88.2672 5.47754H90.6444C90.6866 5.47754 90.7271 5.49433 90.757 5.5242C90.7869 5.55408 90.8037 5.59461 90.8037 5.63687C90.8037 9.329 90.8005 13.0201 90.7941 16.7101C90.7941 17.0595 90.8313 17.3123 90.9056 17.4685Z" fill="#1D2A3A"/>
<path d="M103.659 5.47754H100.893C100.865 5.47754 100.842 5.50037 100.842 5.52852V20.7219C100.842 20.7501 100.865 20.7729 100.893 20.7729H103.659C103.687 20.7729 103.71 20.7501 103.71 20.7219V5.52852C103.71 5.50037 103.687 5.47754 103.659 5.47754Z" fill="#1D2A3A"/>
<path d="M109.205 10.5137C109.827 12.3316 112.277 11.417 113.702 11.7676C118.032 12.8366 118.41 19.0377 114.145 20.4588C113.596 20.6415 112.708 20.7414 111.481 20.7584C109.785 20.7828 108.089 20.7849 106.39 20.7648C106.348 20.7643 106.309 20.7474 106.279 20.7176C106.25 20.6878 106.233 20.6476 106.232 20.6054L106.215 18.0753C106.215 18.0543 106.219 18.0334 106.226 18.0139C106.234 17.9943 106.246 17.9766 106.26 17.9616C106.275 17.9467 106.293 17.9348 106.312 17.9267C106.331 17.9186 106.352 17.9144 106.373 17.9144C108.449 17.9038 110.522 17.9011 112.591 17.9064C114.869 17.9128 114.876 14.5064 112.741 14.559C111.827 14.5813 111.011 14.5499 110.292 14.465C105.203 13.8643 104.878 6.73124 109.965 5.6287C110.409 5.53204 111.02 5.48105 111.796 5.47574C113.821 5.46193 115.845 5.46724 117.87 5.49167C119.195 5.50654 120.151 5.60267 120.738 5.78006C122.684 6.36957 124.321 8.05525 124.654 10.1839C124.708 10.5365 124.736 10.9932 124.738 11.5541C124.745 14.5207 124.745 17.4874 124.738 20.4541C124.738 20.4963 124.721 20.5368 124.692 20.5667C124.662 20.5966 124.621 20.6134 124.579 20.6134H122.036C121.994 20.6134 121.954 20.5967 121.924 20.5668C121.894 20.537 121.877 20.4965 121.877 20.4541C121.87 17.4024 121.872 14.3518 121.881 11.3023C121.885 10.058 121.392 9.0606 120.237 8.58421C119.857 8.42807 119.232 8.34947 118.362 8.34841C116.054 8.34522 113.747 8.34363 111.441 8.34363C110.738 8.34363 110.244 8.4217 109.959 8.57784C109.279 8.95066 108.95 9.76323 109.205 10.5137Z" fill="#1D2A3A"/>
<path d="M129.922 5.47754H124.343C124.3 5.47754 124.265 5.51249 124.265 5.55561V8.26735C124.265 8.31047 124.3 8.34542 124.343 8.34542H129.922C129.965 8.34542 130 8.31047 130 8.26735V5.55561C130 5.51249 129.965 5.47754 129.922 5.47754Z" fill="#1D2A3A"/>
<path d="M23.0499 21.4518C23.0659 21.4653 23.0791 21.4819 23.0887 21.5006C23.0982 21.5194 23.104 21.5398 23.1056 21.5608C23.1073 21.5818 23.1047 21.603 23.0982 21.6231C23.0916 21.6433 23.0812 21.6619 23.0674 21.6781C20.6026 24.5364 16.9923 25.8907 13.2513 25.5943C5.84259 25.0032 0.705894 16.2068 5.71035 10.0456C6.62064 8.92606 7.87454 8.09969 9.47206 7.56647C9.8895 7.42733 9.9442 7.51496 9.63617 7.82936C8.46034 9.02963 7.79807 10.5921 7.64936 12.5168C7.15704 18.8994 13.4887 22.7981 19.1767 20.4863C19.609 20.31 20.1438 20.0434 20.7811 19.6865C20.8096 19.6706 20.8422 19.6638 20.8744 19.6669C20.9066 19.6701 20.9369 19.683 20.9611 19.704L23.0499 21.4518Z" fill="#1D2A3A"/>
<path d="M19.84 18.7345C19.8596 18.7515 19.8748 18.7729 19.8844 18.7969C19.8941 18.8209 19.8978 18.8469 19.8953 18.8725C19.8928 18.8982 19.8841 18.9228 19.8701 18.9442C19.856 18.9657 19.8369 18.9834 19.8145 18.9958C17.4724 20.3023 15.0751 20.434 12.6225 19.391C12.3474 19.2741 12.358 19.1929 12.6544 19.1472C13.7123 18.9857 14.6969 18.6379 15.6083 18.1036C16.1946 17.7595 16.7889 17.2496 17.3354 16.7907C17.3643 16.7663 17.4009 16.7529 17.4385 16.7529C17.4762 16.7529 17.5125 16.7663 17.5409 16.7907L19.84 18.7345Z" fill="#1D2A3A"/>
</svg>
