<svg width="128" height="25" viewBox="0 0 128 25" fill="none" xmlns="http://www.w3.org/2000/svg">
<g clip-path="url(#clip0_9763_12779)">
<path d="M11.1216 0.42041L0.571289 6.42041V18.4204L11.1216 24.4204L21.6719 18.4204V6.42041L11.1216 0.42041ZM11.1216 0.42041L0.571289 6.42041V18.4204L11.1216 24.4204L21.6719 18.4204V6.42041L11.1216 0.42041Z" fill="white"/>
<path d="M15.2867 19.7329H13.7856L11.9884 18.1079V17.2746L13.849 15.5246V12.7537L16.2804 11.1912L19.0501 13.2537L15.2867 19.7329ZM9.07072 15.3579L9.34558 12.7537L8.43643 10.4204H13.8067L12.9187 12.7537L13.1724 15.3579H9.07072ZM10.297 18.1079L8.49986 19.7537H6.97757L3.193 13.2537L5.98386 11.2121L8.43643 12.7537V15.5246L10.297 17.2746V18.1079ZM6.95643 5.60791H15.2656L16.2593 9.77458H5.98386L6.95643 5.60791ZM11.1216 0.42041L0.571289 6.42041V18.4204L11.1216 24.4204L21.6719 18.4204V6.42041L11.1216 0.42041Z" fill="#1D2A3A"/>
<path d="M33.5116 17.9827C30.7208 17.9827 28.6699 15.8369 28.6699 13.1911C28.6699 10.5452 30.7419 8.33691 33.5328 8.33691C35.3088 8.33691 36.4082 8.98275 37.2751 9.92025L35.9431 11.3369C35.2876 10.6494 34.5899 10.1911 33.5116 10.1911C31.9471 10.1911 30.8054 11.5244 30.8054 13.1494C30.8054 14.7744 31.9682 16.1494 33.6174 16.1494C34.6322 16.1494 35.3722 15.6702 36.0488 15.0036L37.3385 16.2744C36.4082 17.2536 35.3299 17.9827 33.5116 17.9827Z" fill="#1D2A3A"/>
<path d="M41.4193 17.9831H39.2627V8.35807H41.4193V10.6081C42.0113 9.23307 43.0896 8.27473 44.7387 8.35807V10.6081H44.6118C42.7301 10.6081 41.4193 11.8164 41.4193 14.2747V17.9831Z" fill="#1D2A3A"/>
<path d="M56.0078 8.31641L51.2506 20.5664H49.0729L50.1089 17.9831L46.0283 8.31641H48.3329L51.1026 15.4622L53.7666 8.31641H56.0078Z" fill="#1D2A3A"/>
<path d="M62.3505 10.1706C60.8917 10.1706 59.6231 11.3372 59.6231 13.1497C59.6231 14.9622 60.9128 16.1289 62.3505 16.1289C63.7882 16.1289 65.0356 14.9831 65.0356 13.1497C65.0356 11.3164 63.8094 10.1706 62.3505 10.1706ZM62.8368 17.9622C61.2934 17.9622 60.3208 17.1914 59.6654 16.3372V20.5664H57.5088V8.31641H59.6654V10.0456C60.3631 9.08724 61.3356 8.31641 62.8368 8.31641C65.0568 8.31641 67.2134 10.0456 67.2134 13.1289C67.2134 16.2122 65.0779 17.9622 62.8368 17.9622Z" fill="#1D2A3A"/>
<path d="M71.9285 10.3371V14.8787C71.9285 15.6912 72.3513 16.0246 73.0913 16.0246H73.937V17.9204H72.457C70.8925 17.9204 69.7719 17.2329 69.7719 15.2121V10.3371H68.5879V8.52458H69.7719V5.98291H71.9285V8.52458H73.937V10.3371H71.9285Z" fill="#1D2A3A"/>
<path d="M80.7244 10.1702C78.9907 10.1702 77.8913 11.5036 77.8913 13.1286C77.8913 14.7536 79.0753 16.1286 80.7456 16.1286C82.4159 16.1286 83.5787 14.7952 83.5787 13.1702C83.621 11.5244 82.4159 10.1702 80.7244 10.1702ZM80.7244 17.9827C77.8701 17.9827 75.7559 15.8369 75.7559 13.1911C75.7559 10.5452 77.8913 8.33691 80.7667 8.33691C83.6421 8.33691 85.7564 10.4827 85.7564 13.1494C85.7564 15.8161 83.6421 17.9827 80.7244 17.9827Z" fill="#1D2A3A"/>
<path d="M106.328 10.1702C104.594 10.1702 103.495 11.5036 103.495 13.1286C103.495 14.7536 104.679 16.1286 106.349 16.1286C108.019 16.1286 109.182 14.7952 109.182 13.1702C109.203 11.5244 108.019 10.1702 106.328 10.1702ZM106.328 17.9827C103.474 17.9827 101.359 15.8369 101.359 13.1911C101.359 10.5452 103.495 8.33691 106.37 8.33691C109.246 8.33691 111.36 10.4827 111.36 13.1494C111.36 15.8161 109.225 17.9827 106.328 17.9827Z" fill="#1D2A3A"/>
<path d="M124.13 8.31641C126.181 8.31641 127.428 9.58724 127.428 11.8581V17.9622H125.272V12.5039C125.272 11.0247 124.574 10.2539 123.369 10.2539C122.164 10.2539 121.36 11.0664 121.36 12.5456V17.9831H119.204V12.5039C119.204 11.0664 118.485 10.2539 117.301 10.2539C116.117 10.2539 115.292 11.1289 115.292 12.5664V17.9831H113.136V8.33724H115.292V9.92057C115.905 9.10807 116.709 8.33724 118.147 8.33724C119.5 8.33724 120.43 8.98307 120.937 9.96224C121.72 8.96224 122.713 8.31641 124.13 8.31641Z" fill="#1D2A3A"/>
<path d="M89.7096 16.0244V17.1077L89.6462 17.2119L88.6948 17.7327H88.5679L87.6376 17.2119L87.5742 17.1077V16.0244L87.6376 15.9202L88.5679 15.3994H88.6948L89.6462 15.9202L89.7096 16.0244Z" fill="#1D2A3A"/>
<path d="M96.2431 17.9621C93.4523 17.8996 91.4437 15.7121 91.486 13.0663C91.5283 10.4204 93.6426 8.25376 96.4546 8.31626C98.2306 8.35793 99.33 9.02459 100.176 9.98293L98.8226 11.3788C98.1883 10.6913 97.4906 10.1913 96.4123 10.1704C94.8477 10.1496 93.6849 11.4413 93.6637 13.0871C93.6214 14.7538 94.7631 16.1079 96.4123 16.1288C97.4271 16.1496 98.1883 15.6913 98.8649 15.0246L100.133 16.3163C99.182 17.2954 98.0826 18.0038 96.2431 17.9621Z" fill="#1D2A3A"/>
</g>
<defs>
<clipPath id="clip0_9763_12779">
<rect width="126.857" height="24" fill="white" transform="translate(0.571289 0.42041)"/>
</clipPath>
</defs>
</svg>
