<svg width="110" height="26" viewBox="0 0 110 26" fill="none" xmlns="http://www.w3.org/2000/svg">
<path fill-rule="evenodd" clip-rule="evenodd" d="M91.0651 7.48602H94.1891V4.36133H91.0651V7.48602ZM74.4606 12.6897C75.0576 11.1064 76.5861 9.97913 78.3785 9.97913C80.1707 9.97913 81.6992 11.1064 82.2964 12.6897H74.4606ZM78.3785 7.07394C74.4627 7.07394 71.2873 10.2496 71.2873 14.1671C71.2873 18.0846 74.4627 21.2597 78.3785 21.2597C81.0657 21.2597 83.4033 19.7653 84.6066 17.5625L81.9863 16.291C81.2582 17.5256 79.9154 18.3545 78.3785 18.3545C76.4367 18.3545 74.8044 17.0323 74.3308 15.239H82.426C82.4255 15.2403 82.4252 15.2421 82.4249 15.2437H85.3898C85.4434 14.8925 85.4711 14.5329 85.4711 14.1671C85.4711 10.2496 82.2956 7.07394 78.3785 7.07394ZM86.2945 20.8816H89.4185V17.7569H86.2945V20.8816ZM91.0651 20.8816H94.1891V8.8597H91.0651V20.8816ZM102.908 18.3545C100.596 18.3545 98.7217 16.4796 98.7217 14.1671C98.7217 11.854 100.596 9.97913 102.908 9.97913C105.221 9.97913 107.095 11.854 107.095 14.1671C107.095 16.4796 105.221 18.3545 102.908 18.3545ZM102.907 7.07394C98.9913 7.07394 95.8158 10.2496 95.8158 14.1671C95.8158 18.0846 98.9913 21.2597 102.907 21.2597C106.824 21.2597 110 18.0846 110 14.1671C110 10.2496 106.824 7.07394 102.907 7.07394ZM37.5924 11.5525V14.7832H41.9605C41.7324 15.7064 41.2815 16.5337 40.6349 17.1946C39.6597 18.1914 38.3075 18.7407 36.827 18.7407C33.755 18.7407 31.2554 16.2408 31.2554 13.1678C31.2554 10.0949 33.755 7.59472 36.827 7.59472C38.4726 7.59472 39.9852 8.2992 41.0338 9.51427L43.5347 7.47034C41.8766 5.52675 39.4165 4.36368 36.827 4.36368C31.9738 4.36368 28.0254 8.31331 28.0254 13.1678C28.0254 18.0224 31.9738 21.9717 36.827 21.9717C39.1834 21.9717 41.3557 21.1225 42.9438 19.4993C44.2764 18.1368 45.1597 16.2364 45.3295 14.3325C45.4123 13.4038 45.4199 12.4814 45.371 11.5525H37.5924ZM53.5043 18.3553C51.1921 18.3553 49.3174 16.4799 49.3174 14.1671C49.3174 11.8537 51.1921 9.97887 53.5043 9.97887C55.8169 9.97887 57.6916 11.8537 57.6916 14.1671C57.6916 16.4799 55.8169 18.3553 53.5043 18.3553ZM57.6921 8.45625C56.5183 7.59551 55.071 7.08596 53.5043 7.08596C49.5885 7.08596 46.4142 10.2613 46.4142 14.1781C46.4142 18.0953 49.5885 21.2701 53.5043 21.2701C55.071 21.2701 56.5183 20.7609 57.6921 19.9001V20.8816H60.5948V7.47478H57.6921V8.45625ZM66.826 4.36159H63.9231V7.48602H62.1832V10.2263H63.9231V17.3976C63.9231 18.1381 64.0161 18.7611 64.2005 19.25C64.3823 19.7337 64.6603 20.1123 64.9908 20.4081C65.3257 20.7083 65.7186 20.9422 66.1844 21.0749C66.6578 21.2082 67.18 21.2597 67.732 21.2597C68.3033 21.2597 68.8128 21.2004 69.2475 21.083C69.6511 20.9746 70.038 20.8212 70.398 20.6263V18.4183C69.8254 18.666 69.2901 18.7556 68.6793 18.7841C68.0345 18.8144 67.6531 18.6302 67.3357 18.3276C67.0031 18.0106 66.826 17.5975 66.826 16.9045V10.2263H70.398V7.48602H66.826V4.36159Z" fill="#1D2A3A"/>
<path fill-rule="evenodd" clip-rule="evenodd" d="M12.5923 19.5224C8.76738 19.5224 5.66666 16.4212 5.66666 12.5952C5.66666 8.76941 8.76738 5.66771 12.5923 5.66771V0C5.63767 0 0 5.63897 0 12.5952C0 19.5511 5.63767 25.1901 12.5923 25.1901C19.5466 25.1901 25.1845 19.5511 25.1845 12.5952H19.5179C19.5179 16.4212 16.4172 19.5224 12.5923 19.5224Z" fill="#1D2A3A"/>
<path fill-rule="evenodd" clip-rule="evenodd" d="M12.5918 12.5947H19.5174V5.66748H12.5918V12.5947Z" fill="#1D2A3A"/>
</svg>
