<svg width="138" height="21" viewBox="0 0 138 21" fill="none" xmlns="http://www.w3.org/2000/svg">
<g clip-path="url(#clip0_9763_12719)">
<path d="M9.22444 6.58056C9.22444 3.71079 7.80593 1.2387 6.72369 0.429394C6.72369 0.429394 6.64081 0.380557 6.65265 0.499162C6.55318 6.06893 3.6759 7.55032 2.09162 9.57358C-0.321505 12.4922 0.130808 16.7713 3.09571 19.1364C3.74695 19.6573 4.49291 20.0596 5.29334 20.3131C7.23284 20.8457 4.84102 19.3806 4.53554 16.2829C4.16611 12.5201 9.22444 9.68288 9.22444 6.58056Z" fill="#1D2A3A"/>
<path d="M11.1256 8.49014C11.1091 8.46921 11.0806 8.46224 11.0593 8.47386C11.0546 8.47851 11.0475 8.48549 11.0428 8.49014C10.6781 9.78084 10.06 10.9948 9.21929 12.0529C5.8897 16.7018 7.79368 18.9413 8.85934 20.1134C9.47268 20.8134 8.85934 20.1134 10.4105 19.3971C12.2766 18.3715 13.5198 16.5227 13.7401 14.4343C13.9106 12.1506 12.9349 9.932 11.1233 8.49014H11.1256Z" fill="#1D2A3A"/>
<path d="M68.8285 8.08329C69.676 8.08329 70.363 7.40859 70.363 6.57631C70.363 5.74403 69.676 5.06934 68.8285 5.06934C67.981 5.06934 67.2939 5.74403 67.2939 6.57631C67.2939 7.40859 67.981 8.08329 68.8285 8.08329Z" fill="#1D2A3A"/>
<path d="M26.4005 5.08301V10.9086H20.5134V5.84347C20.5134 5.42487 20.1653 5.08301 19.739 5.08301H17.7403V19.0063C17.7355 19.4249 18.0766 19.7667 18.5028 19.7714H20.5513V13.2691H26.4337V19.0132C26.4337 19.4318 26.7818 19.7737 27.2081 19.7737H29.1973V5.84347C29.1973 5.42487 28.8492 5.08301 28.4229 5.08301H26.4005ZM38.0754 8.72254V15.7039C38.0802 16.3388 37.7439 16.9295 37.1921 17.2598C36.2354 17.8667 34.9613 17.597 34.348 16.6574C34.1372 16.3365 34.0212 15.9644 34.0212 15.583V9.48068C34.0212 9.06208 33.6731 8.72022 33.2468 8.72022H31.2576V15.8202C31.2694 18.1086 33.1521 19.9574 35.4823 19.9691H36.6096C38.9398 19.9574 40.8225 18.1086 40.8343 15.8202V9.48068C40.8343 9.06208 40.4862 8.72022 40.0599 8.72022H38.0707L38.0754 8.72254Z" fill="#1D2A3A"/>
<path d="M68.2147 19.7714H70.204V9.88302C70.204 9.46442 69.8559 9.12256 69.4296 9.12256H67.4522V18.9993C67.4475 19.4226 67.7885 19.7644 68.2147 19.7691V19.7714Z" fill="#1D2A3A"/>
<path d="M47.9693 8.71786C45.1962 8.59228 42.8494 10.6969 42.7215 13.4155C42.7215 13.4597 42.7168 13.5086 42.7168 13.5504V15.0807C42.7618 17.7969 45.047 19.9667 47.8154 19.9179C47.8651 19.9179 47.9196 19.9179 47.9693 19.9132C50.7353 20.0434 53.0845 17.9434 53.2171 15.2318C53.2171 15.183 53.2218 15.1295 53.2218 15.0807V13.5504C53.1721 10.8272 50.8798 8.66438 48.1067 8.71321C48.0569 8.71321 48.0119 8.71786 47.9693 8.71786ZM50.4274 15.3016C50.4274 16.6527 49.312 17.7411 47.9433 17.7411C46.5745 17.7411 45.4591 16.6458 45.4591 15.3016V13.3923C45.4591 12.0411 46.5745 10.9527 47.9433 10.9527C49.312 10.9527 50.4274 12.0481 50.4274 13.3923V15.3016Z" fill="#1D2A3A"/>
<path d="M60.3404 8.71821C59.4902 8.71821 58.6448 8.90891 57.8776 9.27635V5.86007C57.8776 5.44147 57.5294 5.09961 57.1032 5.09961H55.0879V15.1229C55.1329 17.8391 57.4181 20.0089 60.1865 19.9601C60.2362 19.9601 60.2907 19.9601 60.3404 19.9554C63.1064 20.0857 65.4556 17.9857 65.5882 15.274C65.5882 15.2252 65.5929 15.1717 65.5929 15.1229V13.5926C65.5645 10.8694 63.2958 8.68333 60.518 8.71124C60.4564 8.71124 60.402 8.71124 60.3404 8.71821ZM62.8033 15.3019C62.8033 16.6531 61.6879 17.7415 60.3191 17.7415C58.9503 17.7415 57.8349 16.6461 57.8349 15.3019V13.3926C57.8349 12.0415 58.9503 10.9531 60.3191 10.9531C61.6879 10.9531 62.8033 12.0484 62.8033 13.3926V15.3019Z" fill="#1D2A3A"/>
<path d="M113.918 8.58329C113.067 8.58329 112.222 8.77399 111.455 9.14143V5.72515C111.455 5.30655 111.107 4.96469 110.68 4.96469H108.691V14.9879C108.736 17.7042 111.021 19.874 113.79 19.8252C113.839 19.8252 113.894 19.8252 113.944 19.8205C116.71 19.9507 119.059 17.8507 119.191 15.1391C119.191 15.0903 119.196 15.0368 119.196 14.9879V13.4577C119.168 10.7345 116.899 8.54841 114.126 8.57631C114.06 8.57631 113.989 8.57631 113.915 8.58329H113.918ZM116.38 15.1624C116.38 16.5135 115.265 17.6019 113.896 17.6019C112.527 17.6019 111.412 16.5065 111.412 15.1624V13.2531C111.412 11.9019 112.527 10.8135 113.896 10.8135C115.265 10.8135 116.38 11.9089 116.38 13.2531V15.1624ZM88.0315 10.9647H82.6416V12.4065C82.6416 12.8507 83.011 13.2158 83.4633 13.2158H86.0257V14.4903C86.0636 15.2507 85.7936 15.9926 85.2679 16.5507C83.9701 17.7484 81.9596 17.8089 80.5908 16.6856C79.8614 15.9856 79.7075 15.2205 79.7075 12.3903C79.7075 9.56004 79.8614 8.8112 80.5908 8.1112C81.2799 7.53678 82.149 7.21585 83.0537 7.19957C85.9972 7.19957 86.9848 8.22515 87.7212 9.15771H87.8207V7.11352C87.8207 6.79957 87.6763 6.49957 87.4276 6.30422C86.1962 5.33911 84.9647 4.98097 82.85 4.98097C81.2326 4.93213 79.6625 5.49725 78.4595 6.56004C76.8184 7.99259 76.8184 9.62515 76.8184 12.3042V12.5158C76.8184 15.1996 76.8184 16.8275 78.4595 18.26C81.0265 20.4182 84.8321 20.374 87.3471 18.1577C88.3962 17.1647 88.8224 15.267 88.8224 13.3252V11.7135C88.7893 11.3065 88.453 10.981 88.0315 10.9647ZM95.9955 19.774V18.0647C95.9955 17.6577 95.6592 17.3321 95.2495 17.3321H93.8642C92.7322 17.3321 92.7867 16.774 92.7867 15.3368V5.66469C92.7867 5.25771 92.4504 4.93213 92.0407 4.93213H90.0089V15.6717C90.0089 18.2647 90.6885 19.7833 93.5374 19.7833H96.0002L95.9955 19.7717V19.774ZM137.433 19.8391V18.1252C137.45 17.7182 137.135 17.3763 136.72 17.36H135.323C134.191 17.36 134.246 16.8019 134.246 15.3647V5.75073C134.246 5.34376 133.909 5.01818 133.5 5.01818H131.468V15.7414C131.468 18.3345 132.147 19.8531 134.996 19.8531H137.459L137.431 19.8368L137.433 19.8391ZM102.247 8.56934C99.4743 8.44376 97.1275 10.5484 96.9996 13.267C96.9996 13.3112 96.9949 13.36 96.9949 13.4019V14.9414C97.0398 17.6577 99.3251 19.8275 102.093 19.7786C102.143 19.7786 102.198 19.7786 102.247 19.774C105.013 19.9042 107.363 17.8042 107.495 15.0926C107.495 15.0438 107.5 14.9903 107.5 14.9414V13.4112C107.455 10.6879 105.17 8.51817 102.397 8.56236C102.347 8.56236 102.297 8.56236 102.247 8.56701V8.56934ZM104.71 15.1484C104.71 16.4996 103.595 17.5879 102.226 17.5879C100.857 17.5879 99.7419 16.4926 99.7419 15.1484V13.2275C99.7419 11.8763 100.857 10.7879 102.226 10.7879C103.595 10.7879 104.71 11.8833 104.71 13.2275V15.1484ZM128.785 9.55771C127.74 8.85306 126.488 8.50655 125.223 8.58097C124.621 8.58097 124.013 8.62515 123.416 8.69957C122.914 8.76469 122.213 8.86236 121.725 8.96469C121.526 9.01352 121.488 9.16469 121.488 9.34376V10.8019C121.488 11.0624 121.488 11.3019 121.775 11.2298C122.301 11.0996 123.317 10.8833 123.587 10.8345C124.056 10.7647 124.527 10.7252 125 10.7321C125.614 10.6879 126.232 10.8298 126.762 11.1345C127.181 11.4879 127.392 12.0298 127.321 12.567V12.6484H125.663C125.022 12.6484 124.382 12.7182 123.757 12.8647C123.177 12.9996 122.62 13.2345 122.116 13.5484C121.647 13.8461 121.254 14.2414 120.967 14.7135C120.681 15.2019 120.536 15.76 120.541 16.3252C120.525 16.8833 120.653 17.4368 120.901 17.9368C121.145 18.381 121.503 18.76 121.934 19.0438C122.436 19.3531 122.995 19.5647 123.575 19.6624C124.247 19.7926 124.934 19.8531 125.618 19.8461C126.161 19.8461 130.092 19.7926 130.092 17.9577V12.6531C130.18 11.4856 129.694 10.3368 128.782 9.55538L128.785 9.55771ZM127.288 14.7647V17.5903C127.073 17.6275 126.836 17.66 126.582 17.6879C125.964 17.7484 125.346 17.7484 124.726 17.6879C124.482 17.667 124.24 17.6019 124.02 17.4926C123.816 17.3903 123.639 17.2438 123.511 17.0577C123.362 16.8135 123.295 16.5321 123.312 16.2507C123.279 15.7786 123.506 15.3228 123.909 15.0693C124.505 14.7554 125.178 14.6135 125.853 14.6577H126.675L127.288 14.767V14.7647Z" fill="#1D2A3A"/>
</g>
<defs>
<clipPath id="clip0_9763_12719">
<rect width="136.923" height="20" fill="white" transform="translate(0.538086 0.42041)"/>
</clipPath>
</defs>
</svg>
