<svg width="120" height="20" viewBox="0 0 120 20" fill="none" xmlns="http://www.w3.org/2000/svg">
<path d="M11.2056 0.580541C13.2867 0.440471 15.4077 0.860677 17.2687 1.80115C20.0301 3.16183 22.2312 5.60306 23.2517 8.48451C23.7119 9.76515 23.952 11.1058 23.952 12.4665V17.489C23.952 17.6891 23.952 17.9092 23.912 18.1093C23.7919 18.6096 23.4318 19.0698 22.9515 19.2899C22.6113 19.45 22.2312 19.47 21.891 19.41C21.1306 19.2699 20.5303 18.5496 20.5303 17.7692C20.5303 16.2084 20.5303 14.6476 20.5303 13.0868C20.5503 12.6466 20.5503 12.1664 20.3102 11.7862C19.93 11.0658 18.9695 10.7256 18.2291 11.0258C17.5888 11.2459 17.1286 11.9062 17.1086 12.5866C17.1086 14.1674 17.1086 15.7481 17.1086 17.3289C17.1086 17.6291 17.1286 17.9292 17.0285 18.2094C16.8685 18.7697 16.4082 19.2099 15.848 19.37C15.1076 19.5701 14.2672 19.2499 13.907 18.5696C13.6468 18.1694 13.6669 17.6691 13.6869 17.2089C13.6869 15.6281 13.6869 14.0673 13.6869 12.4865C13.6669 11.6861 13.0065 10.9658 12.2261 10.8657C11.7059 10.7857 11.1656 10.9657 10.7854 11.3259C10.4452 11.6461 10.2652 12.1063 10.2652 12.5666V17.1489C10.2652 17.529 10.3052 17.9292 10.1651 18.2894C9.94499 18.9498 9.28466 19.43 8.58431 19.41C7.86395 19.45 7.1636 18.9498 6.94349 18.2894C6.82343 17.9493 6.84344 17.6091 6.84344 17.2489C6.84344 15.6681 6.84344 14.0873 6.84344 12.5065C6.84344 11.7261 6.22312 11.0058 5.46274 10.8657C4.76239 10.7256 4.00201 11.0658 3.64183 11.7061C3.50176 11.9663 3.42172 12.2664 3.42172 12.5666V17.7091C3.42172 18.2094 3.20161 18.7096 2.82142 19.0298C2.24112 19.53 1.30065 19.5701 0.700352 19.1098C0.260131 18.8097 0 18.2894 0 17.7492V12.5465C0 10.5856 0.500251 8.62458 1.44072 6.8837C2.2011 5.46299 3.26164 4.20235 4.52227 3.20185C6.3832 1.64107 8.7644 0.720612 11.2056 0.580541Z" fill="#1D2A3A"/>
<path d="M57.9696 6.60373H55.3683C55.4683 4.78281 55.8485 3.14199 57.5093 2.10147C59.1702 1.08095 60.9911 0.840834 62.892 1.00091C63.9125 1.08095 64.9331 1.30107 65.8735 1.74129C67.5344 2.50167 68.3548 3.80232 68.3548 5.62324C68.3548 8.84485 68.3548 12.0665 68.3548 15.2881C68.3548 16.4687 68.5949 16.6888 69.7755 16.5687C69.8956 16.5487 70.0356 16.5287 70.1557 16.5087C70.1757 16.5687 70.1757 16.6288 70.1757 16.6688V18.6298C69.2352 18.9499 68.2747 19.05 67.3343 18.7898C66.6339 18.5897 66.1937 18.0895 65.9536 17.4292C65.8335 17.089 65.7535 16.7288 65.6534 16.3486C65.5534 16.4687 65.4733 16.5687 65.3733 16.6688C63.3123 18.7498 60.871 19.6303 57.9896 18.8899C55.9485 18.3696 54.5478 16.5087 54.4878 14.3876C54.4678 13.7073 54.5278 13.027 54.6879 12.3666C55.0681 10.8459 56.1487 9.92539 57.5093 9.30508C58.4698 8.86486 59.5103 8.7448 60.5509 8.60473C61.7715 8.44465 62.9721 8.30458 64.1927 8.12449C65.0131 8.00443 65.4333 7.56421 65.5534 6.7438C65.8135 5.08297 65.0731 3.98242 63.4723 3.58222C62.5118 3.34209 61.5314 3.30207 60.5509 3.48216C59.1101 3.7423 58.3097 4.56271 58.0296 5.98342C58.0496 6.18352 58.0096 6.38362 57.9696 6.60373ZM65.6334 9.80533C64.4328 10.4457 63.2722 10.6057 62.0916 10.7858C61.1111 10.9459 60.1106 11.086 59.1502 11.3861C57.8895 11.8063 57.3092 12.8469 57.4293 14.2476C57.5293 15.4081 58.3097 16.3486 59.5704 16.5487C61.5113 16.8689 63.2322 16.3286 64.5929 14.8879C64.9931 14.4677 65.3133 13.8674 65.3933 13.3071C65.5734 12.1865 65.5534 11.046 65.6334 9.80533ZM102.712 13.167C102.652 13.4472 102.612 13.6873 102.552 13.9074C101.431 17.3291 99.1502 18.7898 96.3889 19.11C91.6065 19.6303 88.8651 16.5087 88.1647 13.187C87.6044 10.5457 87.6845 7.92439 88.8451 5.44315C89.9456 3.10197 91.7065 1.5612 94.3278 1.10096C97.4694 0.540684 101.912 2.10147 102.652 7.00393C102.852 8.26456 102.892 9.56522 103.012 10.8859H90.8461C90.9461 12.6868 91.2263 14.3676 92.5469 15.6683C93.0872 16.2086 93.7875 16.4687 94.5479 16.6087C97.0092 17.049 99.0502 15.8684 99.8506 13.4872C99.9306 13.2271 100.051 13.147 100.311 13.167C101.091 13.167 101.872 13.167 102.712 13.167ZM90.9461 8.56471H100.051C99.9506 7.50418 99.7705 6.52369 99.2703 5.60322C98.7901 4.72278 98.0897 4.08246 97.1292 3.7623C93.9876 2.68176 90.746 5.18302 90.9461 8.56471ZM109.255 18.5297H106.494V1.3611H109.115V3.7623C109.315 3.54219 109.435 3.40212 109.555 3.26205C111.436 1.12098 113.798 0.560695 116.479 1.22103C118.34 1.68126 119.38 3.00192 119.741 4.84285C119.881 5.60323 119.981 6.38362 119.981 7.144C120.001 10.8258 120.001 14.5077 120.001 18.1895C120.001 18.2896 119.981 18.3896 119.981 18.5097H117.159V18.0495C117.159 14.6077 117.179 11.166 117.139 7.72429C117.139 6.96391 117.019 6.18352 116.799 5.44315C116.439 4.24254 115.478 3.60222 114.218 3.54219C111.917 3.46215 110.096 4.68276 109.535 6.72379C109.335 7.46416 109.275 8.24455 109.275 9.02494C109.255 12.0465 109.255 15.048 109.255 18.0295V18.5297ZM72.857 1.3611H75.5184V8.64475C75.6785 8.48467 75.7785 8.40463 75.8786 8.30458C78.0597 6.08347 80.2407 3.84234 82.4218 1.62123C82.6019 1.42113 82.782 1.34109 83.0622 1.34109C84.0827 1.3611 85.1232 1.34109 86.2438 1.34109C86.0837 1.50117 86.0036 1.60122 85.9036 1.70127C83.9826 3.62223 82.0817 5.56321 80.1407 7.46416C79.9206 7.68427 79.9206 7.82434 80.0607 8.06446C82.1617 11.4061 84.2428 14.7478 86.3238 18.0895C86.4038 18.2096 86.4639 18.3296 86.5639 18.5097C86.4239 18.5297 86.3238 18.5297 86.2037 18.5297C85.2433 18.5297 84.3028 18.5297 83.3423 18.5297C83.0822 18.5297 82.9621 18.4297 82.822 18.2296C81.2212 15.5482 79.6204 12.8669 78.0196 10.1655C77.9396 10.0455 77.8796 9.9254 77.7795 9.78533C77.0391 10.5257 76.3188 11.226 75.5984 11.9664C75.4984 12.0665 75.4784 12.2466 75.4784 12.3866C75.4784 14.2676 75.4784 16.1485 75.4784 18.0295V18.5097C74.9581 18.5097 74.4378 18.5097 73.9376 18.5097C73.5774 18.5097 73.0772 18.6098 72.8771 18.4097C72.697 18.2496 72.797 17.7293 72.797 17.3691V1.82133C72.857 1.72128 72.857 1.5612 72.857 1.3611ZM42.1416 1.34109C39.9805 3.48216 37.8795 5.58322 35.7584 7.68427C38.0396 11.3261 40.2607 14.8879 42.5218 18.5297C42.3417 18.5297 42.2217 18.5497 42.1016 18.5497C41.1811 18.5497 40.2407 18.5497 39.3202 18.5497C39.0601 18.5497 38.9 18.4497 38.7599 18.2296C37.1591 15.5482 35.5583 12.8669 33.9575 10.1655C33.8975 10.0455 33.8174 9.94541 33.7174 9.78533C33.3172 10.2055 32.957 10.6658 32.5168 10.9859C31.6163 11.6663 31.3562 12.5067 31.4162 13.6273C31.5163 15.088 31.4363 16.5687 31.4363 18.0295V18.5097H28.7949V1.3611H31.4363V8.52469C31.4963 8.56471 31.5563 8.60473 31.5963 8.64475C31.6764 8.52469 31.7164 8.38463 31.7964 8.28457C33.9575 6.06346 36.1386 3.86235 38.2997 1.62123C38.4998 1.42113 38.6799 1.32108 38.98 1.34109C39.8805 1.3611 40.7809 1.34109 41.6814 1.34109C41.8215 1.34109 41.9415 1.34109 42.1416 1.34109ZM47.4243 4.20252C48.7649 2.24154 50.1857 0.600719 52.827 1.08096V4.02243C52.1266 4.06245 51.4263 4.04245 50.766 4.18252C49.1451 4.52269 47.8845 6.00343 47.6244 7.80433C47.5844 8.16451 47.5443 8.5247 47.5443 8.88488C47.5443 11.9464 47.5443 15.0079 47.5443 18.0695V18.5497H44.823V1.40112H47.4243C47.4243 2.30157 47.4243 3.20202 47.4243 4.20252Z" fill="#1D2A3A"/>
</svg>
