<svg width="120" height="28" viewBox="0 0 120 28" fill="none" xmlns="http://www.w3.org/2000/svg">
<path d="M93.7717 13.9847C93.7717 13.2823 93.7717 12.6216 93.749 12.0114C93.7335 11.4357 93.6765 10.862 93.5784 10.2945C93.4867 9.77635 93.3248 9.27311 93.0971 8.7987C92.8567 8.30956 92.5356 7.86451 92.1471 7.48229C91.5961 6.91773 90.9404 6.46589 90.2167 6.15199C89.4337 5.83484 88.5952 5.67762 87.7506 5.6896C86.9028 5.67865 86.0612 5.8358 85.2744 6.15199C84.5466 6.4616 83.8868 6.91149 83.3327 7.47598C82.9449 7.85796 82.6249 8.30311 82.3864 8.79238C82.1607 9.2669 82.0012 9.77022 81.9127 10.2882C81.8168 10.8558 81.7619 11.4296 81.7484 12.0051C81.7333 12.6153 81.7257 13.276 81.7295 13.9784C81.7333 14.6808 81.7295 15.3365 81.7484 15.9505C81.7619 16.526 81.8168 17.0998 81.9127 17.6674C82.0012 18.1854 82.1607 18.6887 82.3864 19.1632C82.6259 19.6519 82.9457 20.0969 83.3327 20.4796C83.8858 21.0446 84.5459 21.4938 85.2744 21.8011C86.0606 22.1193 86.9025 22.2774 87.7506 22.266C88.5955 22.2784 89.4343 22.1203 90.2167 21.8011C90.9405 21.4913 91.5964 21.0423 92.1471 20.4796C92.5347 20.0967 92.8558 19.6518 93.0971 19.1632C93.3248 18.6888 93.4867 18.1856 93.5784 17.6674C93.6754 17.1016 93.7316 16.5295 93.7464 15.9556C93.7654 15.3416 93.7742 14.6846 93.7692 13.9835L93.7717 13.9847ZM90.5881 13.9847C90.5881 14.763 90.5767 15.4111 90.5502 15.9265C90.5353 16.3499 90.4931 16.7719 90.4238 17.1899C90.3765 17.4683 90.2915 17.7391 90.1712 17.9946C90.0735 18.2006 89.9458 18.3909 89.7922 18.5593C89.555 18.8308 89.2608 19.0465 88.9306 19.191C88.5589 19.35 88.1586 19.4309 87.7544 19.4286C87.3482 19.4303 86.9459 19.3495 86.5719 19.191C86.2336 19.0492 85.9314 18.8333 85.6876 18.5593C85.533 18.3917 85.4051 18.2012 85.3085 17.9946C85.1916 17.7388 85.1108 17.4679 85.0685 17.1899C85.0011 16.7717 84.9589 16.3498 84.9422 15.9265C84.9194 15.4111 84.9081 14.7638 84.9081 13.9847C84.9081 13.2065 84.9194 12.5572 84.9422 12.0417C84.9589 11.6184 85.0011 11.1966 85.0685 10.7784C85.1108 10.5003 85.1916 10.2294 85.3085 9.97361C85.4054 9.7672 85.5332 9.57677 85.6876 9.4089C85.9318 9.13526 86.2338 8.91947 86.5719 8.77722C86.9453 8.61693 87.348 8.53605 87.7544 8.53971C88.1588 8.53551 88.5595 8.61644 88.9306 8.77722C89.2606 8.92215 89.5547 9.13779 89.7922 9.4089C89.9455 9.57754 90.0732 9.76781 90.1712 9.97361C90.2915 10.2292 90.3765 10.4999 90.4238 10.7784C90.493 11.1963 90.5352 11.6183 90.5502 12.0417C90.578 12.5559 90.5881 13.2053 90.5881 13.9847Z" fill="#1D2A3A"/>
<path d="M119.14 6.11172C119.138 5.95809 119.014 5.83389 118.861 5.83252H116.234C116.08 5.83321 115.956 5.95781 115.955 6.11172V15.8142L109.55 5.91085C109.507 5.84389 109.469 5.83252 109.374 5.83252H106.938C106.785 5.83456 106.661 5.95837 106.659 6.11172V21.8556C106.661 22.0087 106.785 22.1321 106.938 22.1335H109.564C109.717 22.1328 109.841 22.0088 109.842 21.8556V12.1278L116.248 22.0539C116.292 22.1209 116.328 22.1322 116.424 22.1322H118.858C119.011 22.1315 119.136 22.0077 119.137 21.8543L119.14 6.11172Z" fill="#1D2A3A"/>
<path d="M101.534 6.11172C101.533 5.95781 101.409 5.83321 101.255 5.83252H98.6308C98.4768 5.83321 98.3523 5.95781 98.3516 6.11172V21.8543C98.3523 22.0082 98.4768 22.1328 98.6308 22.1335H101.255C101.409 22.1328 101.533 22.0082 101.534 21.8543V6.11172Z" fill="#1D2A3A"/>
<path d="M70.1226 13.9848C70.1226 13.2015 70.1314 12.5497 70.1541 12.0304C70.1696 11.6071 70.2118 11.1851 70.2805 10.7671C70.523 9.36475 71.5969 8.53726 72.9676 8.53726C73.8621 8.54484 74.6731 8.87584 75.1911 9.62879C75.4257 9.98032 75.5967 10.3703 75.6965 10.781C75.7041 10.8242 75.7437 10.8544 75.7874 10.8504H78.8763C78.9205 10.8504 78.9369 10.8201 78.9294 10.7772C78.592 8.86573 77.5725 7.14884 75.771 6.29861C74.8856 5.88867 73.9192 5.68355 72.9436 5.69852C71.2044 5.69852 69.7393 6.29398 68.5484 7.48489C67.8685 8.14755 67.4044 9 67.2169 9.93073C67.0349 10.8471 66.9431 12.198 66.9414 13.9836C66.9398 15.7691 67.0316 17.1196 67.2169 18.0351C67.4028 18.967 67.8656 19.8212 68.5446 20.486C69.7347 21.6761 71.1998 22.2711 72.9398 22.2711C73.9152 22.2859 74.8815 22.0812 75.7672 21.6723C77.5687 20.8221 78.5883 19.1052 78.9256 17.1937C78.9331 17.1495 78.9167 17.1204 78.8725 17.1204H75.7824C75.7384 17.1159 75.6985 17.1463 75.6914 17.1899C75.5914 17.6001 75.4204 17.9896 75.1861 18.3408C74.6681 19.0988 73.857 19.4261 72.9626 19.4324C71.5918 19.4324 70.518 18.6061 70.2754 17.2038C70.2068 16.7858 70.1646 16.3638 70.1491 15.9405C70.1314 15.4187 70.1226 14.7656 70.1226 13.9848Z" fill="#1D2A3A"/>
<path d="M37.4978 6.11172C37.4971 5.95781 37.3725 5.83321 37.2186 5.83252H34.5946C34.4407 5.83321 34.3161 5.95781 34.3154 6.11172V21.8556C34.3168 22.009 34.4412 22.1328 34.5946 22.1336H37.2186C37.372 22.1328 37.4964 22.009 37.4978 21.8556V17.2342L39.6038 14.7164L43.9295 22.0501C43.9628 22.1042 44.0227 22.1361 44.0862 22.1336H47.2749C47.4214 22.1336 47.4479 22.0425 47.3747 21.9175L41.7111 12.316L46.9072 6.08266C47.0121 5.95633 46.9679 5.83631 46.8036 5.83631H43.318C43.2756 5.83382 43.2348 5.8528 43.2094 5.88684L37.4978 12.7367V6.11172Z" fill="#1D2A3A"/>
<path d="M56.6146 19.4325C55.1377 19.4325 53.7986 18.0655 53.7986 16.4333V6.11172C53.7979 5.95781 53.6733 5.83321 53.5194 5.83252H50.8954C50.7415 5.83321 50.6169 5.95781 50.6162 6.11172V16.3928C50.6162 19.9871 53.3046 22.2712 56.6146 22.2712C59.9246 22.2712 62.613 19.9871 62.613 16.3928V6.11172C62.6116 5.95809 62.4874 5.83389 62.3338 5.83252H59.7085C59.5551 5.8339 59.4313 5.9583 59.4306 6.11172V16.4333C59.4306 18.0643 58.0902 19.4325 56.6146 19.4325Z" fill="#1D2A3A"/>
<path fill-rule="evenodd" clip-rule="evenodd" d="M7.93888 13.9847L16.0849 22.1321L21.2268 16.9902C22.1462 16.1624 23.5528 16.1992 24.4277 17.074C25.3025 17.9489 25.3393 19.3555 24.5115 20.2749L17.726 27.0616C16.8146 27.958 15.3528 27.958 14.4413 27.0616L4.65165 17.2694V23.0897C4.65165 24.3742 3.61034 25.4155 2.32582 25.4155C1.04131 25.4155 0 24.3742 0 23.0897V4.87221C0 3.58769 1.04131 2.54638 2.32582 2.54638C3.61034 2.54638 4.65165 3.58769 4.65165 4.87221V10.6924L14.4401 0.902766C15.3512 0.00571848 16.8136 0.00571848 17.7248 0.902766L24.5153 7.68821C25.3431 8.60763 25.3063 10.0143 24.4315 10.8891C23.5566 11.764 22.15 11.8008 21.2306 10.9729L16.0887 5.83109L7.93888 13.9847ZM16.0887 11.6564C15.1469 11.6559 14.2975 12.2228 13.9367 13.0928C13.5759 13.9628 13.7748 14.9645 14.4406 15.6307C15.1064 16.2968 16.108 16.4963 16.9782 16.136C17.8484 15.7757 18.4158 14.9266 18.4158 13.9847C18.4162 13.3672 18.1712 12.7749 17.7348 12.338C17.2983 11.9011 16.7063 11.6555 16.0887 11.6551V11.6564Z" fill="#1D2A3A"/>
</svg>
