<svg width="120" height="24" viewBox="0 0 120 24" fill="none" xmlns="http://www.w3.org/2000/svg">
<path d="M34.8377 16.4923L27.181 3.21079C25.5024 0.442578 21.409 0.413128 19.7892 3.32859L11.7496 17.1402C10.2477 19.6728 12.1031 22.8533 15.1068 22.8533H31.2155C34.2487 22.8533 36.5163 19.5845 34.8377 16.4923Z" fill="#1D2A3A"/>
<path d="M23.7951 17.5236L23.3239 16.6991C22.8822 15.9334 21.9104 14.2842 21.9104 14.2842L15.4316 3.03466C13.753 0.531493 9.77729 0.325349 8.09873 3.4764L0.559753 16.5224C-1.00105 19.2611 0.854243 22.8244 4.24089 22.8539H20.2612H27.0934H31.1573C27.005 22.8834 25.6798 20.7336 23.7951 17.5236Z" fill="#1D2A3A"/>
<path d="M23.7955 17.523L23.3242 16.6985C22.8825 15.9328 21.9107 14.2837 21.9107 14.2837L17.7289 6.92139L11.7213 17.1697C10.2194 19.7023 12.0747 22.8828 15.0785 22.8828H20.2321H27.0643H31.1577C26.9759 22.8533 25.6802 20.733 23.7955 17.523Z" fill="#233954"/>
<path d="M102.216 12.657C102.25 17.8301 106.458 21.8995 111.631 21.8305C114.838 21.8305 117.321 20.7269 119.183 18.5543L118.011 17.5541C117.252 16.9334 116.183 16.8989 115.424 17.4852C114.389 18.2439 113.114 18.6577 111.596 18.6577C108.01 18.6577 105.768 16.3471 105.768 12.588C105.768 8.86344 107.94 6.65632 111.596 6.65632C113.079 6.65632 114.389 7.03567 115.424 7.82887C116.217 8.41514 117.287 8.38066 118.011 7.75989L119.183 6.75977C117.321 4.55261 114.734 3.41455 111.458 3.41455C108.665 3.41455 106.32 4.27672 104.699 5.86312C103.078 7.484 102.216 9.82911 102.216 12.657Z" fill="#1D2A3A"/>
<path d="M53.8297 19.7274L58.7268 11.1747V21.5897H62.4514V3.62207H60.1408C59.4166 3.62207 58.7268 4.00143 58.382 4.65668L52.5191 15.3476L46.6564 4.65668C46.3115 4.00143 45.6218 3.62207 44.8976 3.62207H42.5869V21.5897H46.3115V11.1747L51.2087 19.7274H53.8297Z" fill="#1D2A3A"/>
<path d="M65.5205 3.65576V21.6234L80.4534 21.589V20.4509C80.4534 19.5542 79.7291 18.83 78.8325 18.83H69.2451V14.0018H78.8325V11.2429H69.2451V6.41472H78.8325C79.7291 6.41472 80.4534 5.69049 80.4534 4.79383V3.65576H65.5205Z" fill="#1D2A3A"/>
<path d="M98.3885 3.65576H101.905L94.8017 12.6913L101.94 21.6579H98.423C97.7671 21.6579 97.1811 21.3475 96.7669 20.8647L92.4912 15.5193L88.2493 20.8303C87.8351 21.3475 87.2491 21.6234 86.594 21.6234H83.0762L90.2145 12.6569L83.0762 3.69025H86.594C87.2491 3.69025 87.8351 3.96615 88.2493 4.48345L92.4912 9.79444L96.7332 4.44896C97.1466 3.93166 97.7326 3.65576 98.3885 3.65576Z" fill="#1D2A3A"/>
</svg>
