<svg width="112" height="30" viewBox="0 0 112 30" fill="none" xmlns="http://www.w3.org/2000/svg">
<g clip-path="url(#clip0_9763_12607)">
<path d="M8.56077 2.34727C12.4623 0.477076 17.2207 0.433688 21.1403 2.27845C25.6837 4.31771 28.9751 8.81067 29.5171 13.7136C29.5368 13.9051 29.5655 14.0951 29.6034 14.2836C29.6972 15.6945 29.6019 17.1143 29.2945 18.4953C28.4815 22.1654 26.1939 25.5003 22.9934 27.541C19.8156 29.6342 15.7733 30.3972 12.0353 29.6252C8.79543 29.0267 5.82655 27.2388 3.70548 24.7597C1.91294 22.6471 0.7048 20.0244 0.388381 17.2759C0.00534817 14.3509 0.518582 11.2988 1.9296 8.69247C3.37241 5.94702 5.74328 3.69082 8.56077 2.34727ZM10.2882 7.68556C10.2761 8.73736 10.2912 9.78915 10.2791 10.8395C13.3631 10.8454 16.4485 10.8275 19.5325 10.8499C19.531 9.79215 19.5476 8.73586 19.5219 7.67957C16.444 7.69304 13.3661 7.68406 10.2882 7.68556ZM7.10282 10.8813C7.11947 13.9096 7.10736 16.9363 7.10887 19.9645C8.16411 19.9735 9.22086 19.9451 10.2776 19.981C10.2791 16.9438 10.3139 13.9006 10.2609 10.8649C9.20874 10.832 8.15351 10.82 7.10282 10.8813ZM19.5385 10.8843C19.5537 13.9066 19.5552 16.9318 19.5385 19.9555C20.5998 19.975 21.6626 19.963 22.7254 19.963C22.7239 16.9348 22.7118 13.9051 22.7315 10.8769C21.6672 10.8544 20.6028 10.8649 19.5385 10.8843ZM10.2776 20.0034C10.2943 21.0537 10.2746 22.1055 10.2882 23.1558C13.3661 23.1588 16.4425 23.1468 19.5204 23.1618C19.5522 22.107 19.5279 21.0522 19.534 19.9974C16.45 19.963 13.3616 19.9481 10.2776 20.0034ZM92.7494 5.16753C92.7479 4.31023 93.4246 3.619 94.1967 3.32576C94.7781 3.31528 95.4245 3.22552 95.9181 3.60704C96.9642 4.22345 97.1959 5.79591 96.3541 6.67116C95.8333 7.25018 94.9794 7.38932 94.2452 7.22624C93.2959 7.07812 92.6237 6.09514 92.7494 5.16753ZM50.1191 3.4664C51.2622 3.4634 52.4067 3.46191 53.5513 3.4664C53.5528 6.84023 53.5437 10.2141 53.5558 13.5879C53.8495 13.5879 54.1463 13.5894 54.4415 13.5939C55.9055 12.1232 57.3498 10.63 58.773 9.11888C60.2006 9.12187 61.6283 9.12336 63.056 9.11888C61.8857 10.3891 60.5821 11.5382 59.377 12.7785C58.5186 13.5699 57.7238 14.4287 56.8502 15.2052C59.1318 17.4495 61.4648 19.6473 63.766 21.8736C62.2399 21.8691 60.7139 21.8706 59.1863 21.8706C57.645 20.2204 56.0796 18.591 54.5626 16.9168C54.222 16.9034 53.8828 16.9019 53.5437 16.9049C53.5619 18.5581 53.5422 20.2099 53.5543 21.8631C52.4082 21.8766 51.2622 21.8706 50.1176 21.8676C50.1221 15.7334 50.1176 9.60064 50.1191 3.4664ZM68.6425 8.80768C69.8052 8.59971 70.9997 8.81366 72.1095 9.17423C74.0307 9.87593 75.4992 11.5187 76.1215 13.4323C75.042 13.7959 73.9141 13.9919 72.8392 14.3659C72.5546 13.4981 72.0701 12.6289 71.2223 12.192C70.1171 11.6803 68.7621 11.7521 67.6947 12.3251C65.7962 13.4832 65.498 16.3393 66.8818 17.9971C68.0172 19.3077 70.1731 19.5067 71.6144 18.5821C72.2018 18.1063 72.7211 17.4764 72.871 16.7208C73.9732 16.9034 75.0708 17.1652 76.123 17.5363C75.7036 18.7796 75.0435 19.9885 73.9656 20.7904C71.3222 22.9314 67.0543 22.7144 64.6653 20.2907C64.0022 19.6668 63.5207 18.8783 63.1619 18.0524C63.0772 17.6978 62.9757 17.3492 62.8682 17.0021C62.8001 16.7418 62.8834 16.4156 62.6714 16.2122C62.7032 16.1942 62.7668 16.1568 62.7986 16.1388C62.6502 15.7917 62.6911 15.4072 62.7259 15.0437C62.847 13.9934 63.059 12.9146 63.6449 12.0124C64.6759 10.2485 66.5911 9.02611 68.6425 8.80768ZM102.513 10.2515C103.91 8.88996 106.037 8.46655 107.916 8.88548C109.188 9.14431 110.319 9.97169 110.965 11.0803C111.509 11.8957 111.691 12.8817 111.731 13.8407C111.738 16.5189 111.731 19.1955 111.735 21.8736C110.602 21.8676 109.471 21.8691 108.342 21.8736C108.336 19.4947 108.349 17.1158 108.336 14.7369C108.257 13.9978 108.133 13.1809 107.574 12.6348C106.919 11.8464 105.747 11.7072 104.801 11.9676C103.848 12.1546 103.17 12.9849 102.858 13.8512C102.655 14.5305 102.59 15.2411 102.522 15.9443C102.489 17.9253 102.545 19.9062 102.495 21.8871C101.37 21.8512 100.245 21.8796 99.1201 21.8691C99.1247 17.6215 99.1277 13.3724 99.1201 9.12486C100.25 9.11888 101.38 9.12785 102.511 9.11738C102.511 9.49591 102.511 9.87294 102.513 10.2515ZM40.1194 8.89146C41.8241 8.67152 43.653 8.92437 45.114 9.86396C46.6824 10.7841 47.7649 12.4089 48.1177 14.1654C48.2024 15.0571 48.2055 15.9608 48.1161 16.8525C47.8088 18.3502 46.9852 19.7565 45.7604 20.7021C42.8854 22.9823 38.1906 22.6396 35.7894 19.8329C33.6108 17.3672 33.7032 13.2887 36.012 10.9367C37.0914 9.81459 38.5676 9.08895 40.1194 8.89146ZM40.9127 11.7416C39.4971 11.8748 38.2405 12.8503 37.7712 14.1744C37.3685 15.4027 37.5108 16.857 38.3465 17.8849C38.8794 18.621 39.7333 19.0623 40.6129 19.2568C41.703 19.4633 42.8718 19.0938 43.6848 18.3606C45.3123 16.9213 45.3032 14.0756 43.659 12.6528C42.9323 11.987 41.8937 11.6608 40.9127 11.7416ZM82.9616 8.89445C84.6633 8.67003 86.4906 8.91241 87.9546 9.84451C89.5716 10.7781 90.6874 12.4568 91.0038 14.2746C91.3066 15.8336 90.9992 17.4764 90.2407 18.8678C89.3081 20.4418 87.7064 21.6208 85.8941 21.9978C83.8155 22.4691 81.4855 22.113 79.7641 20.8293C78.4939 19.957 77.6445 18.5746 77.2721 17.1054C77.0223 15.5868 77.042 13.947 77.7732 12.5496C78.7058 10.5462 80.7769 9.19069 82.9616 8.89445ZM83.119 11.8853C81.8912 12.192 80.8844 13.2168 80.5937 14.4317C80.3227 15.3489 80.4333 16.3408 80.7996 17.2161C81.437 18.594 83.0131 19.4633 84.5361 19.2912C86.3922 19.0923 87.8911 17.3373 87.7896 15.497C87.8441 14.1534 87.0463 12.8533 85.8866 12.18C85.0403 11.7551 84.035 11.5681 83.119 11.8853ZM93.0764 9.12187C94.23 9.12935 95.3822 9.1099 96.5358 9.13234C96.5297 13.3754 96.5297 17.6185 96.5358 21.8601C95.3822 21.8826 94.23 21.8601 93.0779 21.8736C93.0794 17.623 93.0794 13.3724 93.0764 9.12187Z" fill="#1D2A3A"/>
</g>
<defs>
<clipPath id="clip0_9763_12607">
<rect width="111.469" height="29" fill="white" transform="translate(0.265625 0.92041)"/>
</clipPath>
</defs>
</svg>
