<svg width="74" height="27" viewBox="0 0 74 27" fill="none" xmlns="http://www.w3.org/2000/svg">
<g clip-path="url(#clip0_9763_12621)">
<path d="M21.7443 23.6702H0.590783C0.460134 23.6702 0.334446 23.6228 0.243488 23.536C0.150877 23.4509 0.0996094 23.3347 0.0996094 23.2136V3.62525C0.0996094 3.50413 0.150877 3.38792 0.243488 3.30281C0.3361 3.2177 0.460134 3.17024 0.590783 3.17024H21.7426C21.8733 3.17024 21.999 3.2177 22.0899 3.30281C22.1826 3.38792 22.2338 3.50413 22.2338 3.62525V23.2152C22.2338 23.3363 22.1826 23.4526 22.0899 23.5377C21.9973 23.6228 21.8733 23.6719 21.7426 23.6719L21.7443 23.6702ZM14.858 10.4602C14.858 10.3391 14.8067 10.2229 14.7141 10.1378C14.6215 10.0527 14.4974 10.0036 14.3668 10.0036H7.97161C7.84096 10.0036 7.71527 10.051 7.62432 10.1378C7.5317 10.2229 7.48044 10.3391 7.48044 10.4602V16.3819C7.48044 16.503 7.5317 16.6192 7.62432 16.7043C7.71693 16.7894 7.84096 16.8385 7.97161 16.8385H14.3668C14.4974 16.8385 14.6231 16.7911 14.7141 16.7043C14.8067 16.6192 14.858 16.503 14.858 16.3819V10.4602Z" fill="#1D2A3A"/>
<path d="M66.024 16.8369H59.6289C59.3576 16.8369 59.1377 16.6323 59.1377 16.3819V10.4602C59.1377 10.2082 59.3576 10.0052 59.6289 10.0052H66.024C66.2953 10.0052 66.5152 10.2098 66.5152 10.4602V16.3819C66.5152 16.634 66.2953 16.8369 66.024 16.8369Z" fill="#1D2A3A"/>
<path d="M58.6481 23.6704H52.2529C51.9817 23.6704 51.7617 23.4658 51.7617 23.2154V17.2937C51.7617 17.0417 51.9817 16.8387 52.2529 16.8387H58.6481C58.9193 16.8387 59.1409 17.0433 59.1409 17.2937V23.2138C59.1409 23.4658 58.9209 23.6688 58.6481 23.6688V23.6704Z" fill="#1D2A3A"/>
<path d="M73.4088 23.6704H67.0136C66.7424 23.6704 66.5225 23.4658 66.5225 23.2154V17.2937C66.5225 17.0417 66.7424 16.8387 67.0136 16.8387H73.4088C73.68 16.8387 73.9 17.0433 73.9 17.2937V23.2138C73.9 23.4658 73.68 23.6688 73.4088 23.6688V23.6704Z" fill="#1D2A3A"/>
<path d="M58.6481 10.0034H52.2529C51.9817 10.0034 51.7617 9.79883 51.7617 9.54841V3.62673C51.7617 3.37468 51.9817 3.17172 52.2529 3.17172H58.6481C58.9193 3.17172 59.1409 3.37631 59.1409 3.62673V9.54841C59.1409 9.80046 58.9209 10.0034 58.6481 10.0034Z" fill="#1D2A3A"/>
<path d="M73.4088 10.0034H67.0136C66.7424 10.0034 66.5225 9.79883 66.5225 9.54841V3.62673C66.5225 3.37468 66.7424 3.17172 67.0136 3.17172H73.4088C73.68 3.17172 73.9 3.37631 73.9 3.62673V9.54841C73.9 9.80046 73.68 10.0034 73.4088 10.0034Z" fill="#1D2A3A"/>
<path d="M47.5716 23.6704H41.1764C40.9052 23.6704 40.6836 23.4658 40.6836 23.2154V17.2937C40.6836 17.0417 40.9035 16.8387 41.1764 16.8387H47.5716C47.8428 16.8387 48.0628 17.0433 48.0628 17.2937V23.2138C48.0628 23.4658 47.8428 23.6688 47.5716 23.6688V23.6704Z" fill="#1D2A3A"/>
<path d="M47.5716 10.0034H41.1764C40.9052 10.0034 40.6836 9.79883 40.6836 9.54841V3.62673C40.6836 3.37468 40.9035 3.17172 41.1764 3.17172H47.5716C47.8428 3.17172 48.0628 3.37631 48.0628 3.62673V9.54841C48.0628 9.80046 47.8428 10.0034 47.5716 10.0034Z" fill="#1D2A3A"/>
<path d="M40.6818 16.3868C40.6818 16.5079 40.6305 16.6241 40.5379 16.7092C40.4453 16.7944 40.3213 16.8435 40.1906 16.8435H33.3043V23.2152C33.3043 23.3363 33.253 23.4526 33.1604 23.5377C33.0678 23.6228 32.9438 23.6719 32.8131 23.6719H26.4179C26.2873 23.6719 26.1616 23.6244 26.0706 23.5377C25.978 23.4526 25.9268 23.3363 25.9268 23.2152V3.6367C25.9268 3.51559 25.978 3.39938 26.0706 3.31427C26.1632 3.22916 26.2873 3.18006 26.4179 3.18006H32.8131C32.9438 3.18006 33.0694 3.22752 33.1604 3.31427C33.2514 3.40102 33.3043 3.51559 33.3043 3.6367V10.0085H40.1906C40.3213 10.0085 40.447 10.0559 40.5379 10.1427C40.6305 10.2278 40.6818 10.344 40.6818 10.4651V16.3868Z" fill="#1D2A3A"/>
</g>
<defs>
<clipPath id="clip0_9763_12621">
<rect width="73.8" height="20.5" fill="white" transform="matrix(1 0 0 -1 0.0996094 23.6704)"/>
</clipPath>
</defs>
</svg>
