<svg width="120" height="29" viewBox="0 0 120 29" fill="none" xmlns="http://www.w3.org/2000/svg">
<path d="M36.377 20.8741L36.3934 9.18604H41.5315C43.9939 9.18604 45.3564 10.8769 45.3564 12.8632C45.3564 14.8495 43.9611 16.5239 41.5315 16.5239H38.4453V20.8905H36.377V20.8741ZM41.236 10.9918H38.4289V14.7182H41.236C42.4016 14.7182 43.2388 13.9794 43.2388 12.8632C43.2388 11.7469 42.4016 10.9918 41.236 10.9918Z" fill="#1D2A3A"/>
<path d="M52.4978 9.00545C56.0108 9.00545 58.4732 11.5663 58.4732 15.0629C58.4732 18.5594 55.9944 21.1039 52.4814 21.1039C48.9684 21.1039 46.5225 18.543 46.5225 15.0465C46.5225 11.5499 49.0012 8.98903 52.4978 9.00545ZM52.4978 10.8276C50.1339 10.8276 48.6237 12.6333 48.6237 15.0465C48.6237 17.4596 50.1175 19.2653 52.4978 19.2653C54.8781 19.2653 56.3719 17.4432 56.3719 15.0465C56.3719 12.6498 54.8453 10.8276 52.4978 10.8276Z" fill="#1D2A3A"/>
<path d="M60.459 20.9068L60.4754 9.21875H62.5274L62.511 19.1011H67.6655V20.9068H60.459Z" fill="#1D2A3A"/>
<path d="M74.4449 9.03865C77.9579 9.03865 80.4202 11.5995 80.4202 15.0961C80.4202 18.5926 77.9415 21.1371 74.4285 21.1371C70.9155 21.1371 68.4531 18.5762 68.4531 15.0797C68.4531 11.5831 70.9483 9.02224 74.4449 9.03865ZM74.4449 10.8444C72.081 10.8444 70.5708 12.6501 70.5708 15.0633C70.5708 17.4764 72.0646 19.2985 74.4449 19.2985C76.8088 19.2985 78.319 17.4764 78.319 15.0797C78.319 12.683 76.8088 10.8608 74.4449 10.8444Z" fill="#1D2A3A"/>
<path d="M90.5661 20.9398L84.4758 12.4036V20.9234H82.4238L82.4402 9.23535H84.5415L90.5004 17.5417V9.25176H92.5524L92.536 20.9398H90.5661Z" fill="#1D2A3A"/>
<path d="M95.0312 20.94L95.0477 9.25195H97.0996L97.0832 20.94H95.0312Z" fill="#1D2A3A"/>
<path d="M99.5781 20.9564L99.5945 9.25195H107.605V11.0577L101.647 11.0413V14.0782H107.491V15.8839H101.647V19.1179H107.605V20.9236L99.5781 20.9564Z" fill="#1D2A3A"/>
<path d="M117.521 20.9725L114.254 16.3925L110.971 20.9725H108.509L112.908 14.9808L108.804 9.26807H111.267L114.271 13.569L117.275 9.28448H119.754L115.65 14.9644L120 20.9889L117.521 20.9725Z" fill="#1D2A3A"/>
<path d="M24.2623 8.02047V15.0136L18.2049 11.517L12.1475 8.00406L18.2213 4.52391L24.2787 1.02734L24.2623 8.02047Z" fill="#1D2A3A"/>
<path d="M12.1315 14.9975V21.9907L6.07403 18.4941L0.0166016 14.9811L6.07403 11.501L12.1315 8.00439V14.9975Z" fill="#233954"/>
<path d="M0.0166016 7.98776V0.994629L6.07403 4.4912L12.1315 7.98776L6.07403 11.5007L0.0166016 14.9809V7.98776Z" fill="#1D2A3A"/>
<path d="M0 21.9741L0.0164168 14.981L6.07385 18.4939L12.1313 21.9905L6.07385 25.4871L0 28.9672V21.9741Z" fill="#1D2A3A"/>
<path d="M18.2049 11.5174L12.1475 8.00439V14.9975V21.9907L18.1885 25.5036L24.2459 29.0002V22.0071L24.2623 15.0139L18.2049 11.5174Z" fill="#1D2A3A"/>
</svg>
