<svg width="94" height="31" viewBox="0 0 94 31" fill="none" xmlns="http://www.w3.org/2000/svg">
<path d="M29.8482 14.3089C29.2871 6.07683 22.1584 -0.143054 13.9263 0.41797C9.82708 0.698482 6.2253 2.60596 3.71192 5.46719L3.70444 5.46345C3.68573 5.48589 3.67077 5.50833 3.65581 5.53077C1.16113 8.41069 -0.245174 12.2369 0.0353381 16.3398C0.0615192 16.7326 0.106401 17.114 0.162504 17.4955C0.162504 17.5142 0.166244 17.5292 0.169984 17.5479C0.207385 17.7985 0.252267 18.0491 0.300889 18.2959C0.345771 18.5241 0.398134 18.7485 0.454236 18.9729C2.18219 25.8548 8.62649 30.7282 15.9572 30.2308C24.1893 29.6698 30.4092 22.5448 29.8482 14.3089ZM26.5942 14.5333C26.6653 15.5469 26.598 16.5381 26.4184 17.4955C26.4184 17.4918 26.4147 17.4843 26.4147 17.4806C25.33 14.8325 23.1869 12.9213 21.3056 11.8666C21.6871 7.38215 20.1649 5.48963 18.4407 5.18293C17.0867 4.9286 15.7852 5.81876 15.5308 7.1727C15.5233 7.22132 15.5159 7.26994 15.5084 7.31857C15.3326 8.68373 16.2976 9.93294 17.6627 10.1087H17.6665C17.7861 10.1237 17.9058 10.1274 18.018 10.1274C18.0255 10.2883 18.0292 10.4491 18.0292 10.6099C16.4359 10.2172 14.9474 10.1349 13.5897 10.2583C13.0773 10.292 12.5724 10.3556 12.0674 10.4491C12.2357 8.93432 12.808 7.23254 13.9076 5.99081C14.9735 4.78648 16.5594 4.09829 18.2873 4.27408C18.6165 4.30774 18.9643 4.39002 19.2785 4.49475C19.2934 4.49849 19.3084 4.50597 19.3233 4.50597C23.3328 6.13668 26.28 9.93668 26.5942 14.5333ZM16.1779 16.8148C16.1779 16.8148 16.1779 16.8186 16.1741 16.8186C15.7964 17.3609 15.37 17.8658 14.895 18.3296C14.1806 17.5741 13.5747 16.7213 13.096 15.7938C13.0735 15.7451 13.0474 15.7003 13.0249 15.6516V15.6479C12.7444 15.0495 12.52 14.4249 12.3554 13.7853C13.4176 13.5347 14.4574 13.4412 15.4523 13.4898L15.6094 13.4973H15.6131C16.2377 13.5497 16.8885 13.6619 17.558 13.8489C17.2513 14.8999 16.7838 15.8985 16.1779 16.8148ZM11.0763 4.30026L11.0688 4.31148C9.31468 6.57427 8.73121 9.38313 8.75739 11.5412C4.68062 13.4524 3.80542 15.7152 4.4001 17.3646C4.41507 17.4095 4.43377 17.4544 4.45247 17.4993C4.98357 18.7709 6.44597 19.3694 7.71763 18.8383C8.98928 18.3072 9.58771 16.8448 9.0566 15.5731C9.01172 15.4646 8.95562 15.3599 8.89578 15.2589C9.02294 15.1729 9.16133 15.0906 9.31094 15.0046C9.76723 16.5829 10.4367 17.9144 11.2222 19.029C11.5064 19.4516 11.8131 19.8556 12.146 20.2483C10.7509 20.8579 8.98928 21.217 7.36231 20.8841C5.7877 20.5625 4.4001 19.5339 3.68573 17.9481C3.54735 17.6377 3.44636 17.3123 3.37904 16.9794C3.3379 16.6952 3.30424 16.4072 3.28554 16.1192C2.92274 10.7633 6.24026 5.99829 11.0763 4.30026ZM15.7328 26.9768C12.5537 27.1938 9.58397 26.1091 7.33613 24.1829C10.1712 24.5682 12.894 23.6705 14.7529 22.5672C18.4481 25.1404 20.8456 24.7702 21.9751 23.4312C22.8728 22.3839 22.7531 20.8093 21.7058 19.9117C21.6684 19.878 21.631 19.8481 21.5899 19.8182C20.494 18.9841 18.9269 19.1936 18.0928 20.2894C18.0218 20.3829 17.9582 20.4877 17.9021 20.5887C17.7674 20.5176 17.6216 20.4428 17.4794 20.3568C18.5192 19.2833 19.372 18.0416 20.0041 16.6839C20.2285 16.2239 20.4267 15.7526 20.5987 15.2701C21.8255 16.1753 23.0186 17.518 23.546 19.0963C24.0546 20.6186 23.8602 22.3391 22.8428 23.7491C22.6409 24.0221 22.4127 24.2727 22.1584 24.4971L22.1472 24.5083C20.307 25.9595 18.0704 26.816 15.7328 26.9768Z" fill="url(#paint0_linear_9816_15758)"/>
<path opacity="0.9" d="M18.4404 5.17559C18.1599 5.12323 17.8719 5.11949 17.5914 5.16437C19.0202 5.94233 20.0637 8.10788 19.5139 12.3829C19.3343 13.7742 18.9229 15.1244 18.3058 16.3811C17.7709 17.5293 17.0753 18.5953 16.2412 19.5453C16.6377 19.8445 17.0528 20.1138 17.4829 20.3606C18.5227 19.2872 19.3792 18.0455 20.0076 16.6878C20.6284 15.4311 21.0361 14.0809 21.2156 12.6896C21.8664 7.6067 20.2656 5.50473 18.4404 5.17559Z" fill="url(#paint1_radial_9816_15758)"/>
<path opacity="0.8" d="M19.5137 12.3828C20.0598 8.10781 19.02 5.94226 17.5913 5.16431C17.5352 5.17179 17.4828 5.18301 17.4267 5.19797C18.8255 6.0021 19.8316 8.16765 19.2931 12.3828C19.1135 13.7742 18.7021 15.1244 18.085 16.381C17.5688 17.4881 16.9068 18.5204 16.1064 19.4442C16.1513 19.4816 16.1962 19.5153 16.2411 19.5452C17.0751 18.5915 17.7708 17.5255 18.3057 16.381C18.9228 15.1244 19.3342 13.7742 19.5137 12.3828Z" fill="white"/>
<path opacity="0.5" d="M14.0803 22.0777C13.9457 21.9767 13.8185 21.8682 13.6876 21.7598C11.5781 22.6387 8.65334 23.1922 5.75098 22.5153C6.22224 23.1212 6.75708 23.6785 7.34054 24.1797C10.1756 24.5649 12.8984 23.6672 14.7573 22.5639C14.5254 22.4068 14.301 22.2422 14.0803 22.0777Z" fill="url(#paint2_radial_9816_15758)"/>
<path opacity="0.6" d="M13.6859 21.7599C13.6224 21.7076 13.555 21.6515 13.4952 21.5991C11.3708 22.4481 8.43102 22.9568 5.53613 22.2349C5.6072 22.3285 5.67826 22.4257 5.74932 22.5192C8.65169 23.1924 11.5765 22.6389 13.6859 21.7599Z" fill="url(#paint3_linear_9816_15758)"/>
<path opacity="0.9" d="M4.40333 17.3652C4.41829 17.41 4.43699 17.4549 4.45569 17.4998C4.54919 17.7242 4.67262 17.9262 4.82223 18.1095C4.78108 16.4825 6.13502 14.4965 10.1108 12.8321C11.4049 12.2935 12.7813 11.9719 14.1801 11.8821C15.4405 11.7699 16.7122 11.8372 17.9539 12.0878C18.0175 11.5492 18.0437 11.048 18.04 10.6067C16.5888 10.2402 15.089 10.1242 13.5966 10.2551C12.1978 10.3486 10.8214 10.6665 9.52735 11.2051C4.7923 13.1874 3.77124 15.6223 4.40333 17.3652Z" fill="url(#paint4_radial_9816_15758)"/>
<path opacity="0.8" d="M10.1079 12.8356C6.1358 14.4962 4.77812 16.486 4.81926 18.1092C4.85666 18.1541 4.89407 18.1953 4.93147 18.2364C4.92773 16.6244 6.30037 14.6683 10.2201 13.0264C11.5142 12.4878 12.8905 12.1661 14.2893 12.0764C15.5049 11.9679 16.7317 12.0277 17.9323 12.2559C17.9397 12.1998 17.9472 12.1437 17.951 12.0876C16.7092 11.8407 15.4376 11.7734 14.1771 11.8819C12.7783 11.9754 11.4019 12.2933 10.1079 12.8356Z" fill="white"/>
<path opacity="0.4" d="M21.2192 12.6936C21.2005 12.8619 21.1705 13.0265 21.1406 13.191C22.9546 14.5786 24.8957 16.834 25.7672 19.6877C26.0552 18.9733 26.2721 18.2328 26.4143 17.4773C25.3333 14.8292 23.1902 12.9217 21.3089 11.8633C21.2865 12.1326 21.2566 12.4056 21.2192 12.6936Z" fill="url(#paint5_radial_9816_15758)"/>
<path opacity="0.5" d="M21.1416 13.1909C21.1266 13.2732 21.1116 13.3555 21.0967 13.4378C22.8957 14.8553 24.8032 17.1443 25.626 20.013C25.6746 19.9045 25.7195 19.7923 25.7644 19.6838C24.8967 16.8338 22.9593 14.5785 21.1416 13.1909Z" fill="url(#paint6_linear_9816_15758)"/>
<path opacity="0.9" d="M21.9801 23.4278C22.1634 23.2108 22.313 22.964 22.4139 22.6984C21.0263 23.5475 18.6289 23.3642 15.1992 20.7536C14.0846 19.9008 13.1197 18.8723 12.3417 17.7053C11.6124 16.6693 11.0364 15.536 10.6324 14.3354C10.135 14.5486 9.68992 14.7768 9.30469 15.0012C9.71611 16.4412 10.3632 17.7988 11.2234 19.0219C11.9901 20.1664 12.9476 21.2024 14.0809 22.0701C18.1614 25.1819 20.7832 24.8453 21.9801 23.4278Z" fill="url(#paint7_radial_9816_15758)"/>
<path opacity="0.8" d="M15.2005 20.7534C18.6265 23.3641 21.024 23.5473 22.4153 22.6946C22.434 22.6422 22.4527 22.5861 22.4677 22.5375C21.0726 23.3491 18.6938 23.1359 15.3127 20.5627C14.1982 19.7099 13.2332 18.6814 12.4552 17.5144C11.7521 16.5158 11.1948 15.4237 10.7909 14.2717C10.7385 14.2942 10.6862 14.3166 10.6338 14.3391C11.0415 15.5396 11.6175 16.6729 12.343 17.7089C13.1098 18.8534 14.0673 19.8894 15.2005 20.7534Z" fill="white"/>
<path opacity="0.3" d="M9.52164 11.2011C9.67873 11.1375 9.83208 11.0776 9.9929 11.0178C10.2846 8.75126 11.2683 5.9424 13.3067 3.76562C12.5437 3.87409 11.7957 4.05362 11.0701 4.30795C9.31593 6.57075 8.73247 9.37961 8.75865 11.5377C9.00176 11.4255 9.25609 11.3133 9.52164 11.2011Z" fill="url(#paint8_radial_9816_15758)"/>
<path opacity="0.4" d="M9.99219 11.0178C10.0707 10.9916 10.1493 10.9579 10.2278 10.9317C10.5532 8.66519 11.5818 5.86755 13.6575 3.7207C13.5416 3.73192 13.4219 3.75062 13.306 3.76559C11.2676 5.94236 10.2839 8.75122 9.99219 11.0178Z" fill="url(#paint9_linear_9816_15758)"/>
<path opacity="0.4" d="M13.9277 0.418362C9.82475 0.698874 6.22672 2.60636 3.71333 5.46758L3.65723 5.53116C4.14719 6.01738 5.74798 6.97486 6.39128 7.37132C7.68164 5.98372 9.28991 4.92899 11.0777 4.30065C11.2049 4.13608 11.3358 3.97525 11.4742 3.81817C13.161 1.91443 15.4649 0.908323 18.1391 0.908323C18.4346 0.908323 19.0405 0.956945 19.0555 0.956945C17.3911 0.481944 15.6594 0.298677 13.9277 0.418362Z" fill="url(#paint10_linear_9816_15758)"/>
<path opacity="0.4" d="M15.7346 26.9771C12.5555 27.194 9.58579 26.1094 7.33795 24.1832C7.1285 24.157 6.91905 24.1196 6.7096 24.0785C4.21492 23.5698 2.19149 22.0775 0.856252 19.7623C0.710386 19.508 0.57574 19.2424 0.456055 18.9731C2.18401 25.855 8.6283 30.7285 15.9553 30.231C15.9889 29.4755 15.7645 27.7251 15.7346 26.9771Z" fill="url(#paint11_linear_9816_15758)"/>
<path opacity="0.4" d="M29.8487 14.3092C29.3886 14.2643 27.1483 14.4401 26.5948 14.5299C26.6621 15.5435 26.5985 16.5346 26.419 17.4921C26.4975 17.6828 26.5686 17.8773 26.6359 18.0718C27.44 20.4842 27.1595 22.9826 25.8243 25.3015C25.6747 25.5559 25.5176 25.8027 25.3418 26.0421C25.3418 26.0421 25.3493 26.0384 25.353 26.0309C28.39 23.0836 30.1554 18.8685 29.8487 14.3092Z" fill="url(#paint12_linear_9816_15758)"/>
<path opacity="0.5" d="M18.2956 4.2704C18.621 4.30406 18.9725 4.38635 19.2867 4.49107C19.3017 4.49481 19.3166 4.50229 19.3316 4.50229C20.6145 5.02591 21.7926 5.77395 22.8174 6.70525C22.8174 6.70525 22.8212 6.70899 22.8249 6.70899C23.3149 6.14796 24.2611 5.53458 24.2611 5.53458C24.2611 5.53458 22.8174 4.05721 20.6033 3.59717C19.0548 3.27552 15.5653 2.96509 13.3623 6.71273L13.381 6.69403C13.5456 6.44717 13.7176 6.2078 13.9121 5.98714C14.9818 4.77906 16.5639 4.09087 18.2956 4.2704Z" fill="url(#paint13_linear_9816_15758)"/>
<path opacity="0.5" d="M22.8408 23.7528C22.6389 24.0259 22.4107 24.2765 22.1564 24.5009C22.1452 24.5121 22.1339 24.5196 22.1227 24.5308C21.0269 25.3798 19.7926 26.0269 18.4723 26.4458C18.4686 26.4458 18.4686 26.4458 18.4648 26.4495C18.7042 27.1564 18.7678 28.2822 18.7678 28.2822C18.7678 28.2822 20.7688 27.7698 22.2761 26.0867C23.3271 24.9086 25.343 22.0398 23.1999 18.2585C23.1999 18.2585 23.2036 18.2698 23.2074 18.2847C23.342 18.5503 23.4617 18.8196 23.5515 19.0963C24.0564 20.6261 23.8619 22.3428 22.8408 23.7528Z" fill="url(#paint14_linear_9816_15758)"/>
<path opacity="0.5" d="M3.69413 17.9522C3.55574 17.6418 3.45476 17.3164 3.38743 16.9835C3.38369 16.9685 3.37995 16.9536 3.37621 16.9386C3.18546 15.5622 3.24905 14.1634 3.54078 12.8207V12.8132C2.80771 12.6711 1.80535 12.1587 1.80535 12.1587C1.80535 12.1587 1.24806 14.1522 1.95495 16.2953C2.45239 17.7951 3.92602 20.9742 8.27208 21.0079C8.27208 21.0079 8.26086 21.0042 8.2459 21.0004C7.95043 20.9817 7.6587 20.9518 7.3707 20.892C5.79236 20.5666 4.40476 19.538 3.69413 17.9522Z" fill="url(#paint15_linear_9816_15758)"/>
<path opacity="0.6" d="M17.6659 10.1053C17.7856 10.1203 17.9053 10.124 18.0175 10.124C18.0175 10.124 17.939 8.57185 17.7482 7.7752C17.5575 6.97855 17.2732 6.45118 16.9665 6.15197C16.7459 5.93878 16.0465 5.66949 15.5041 7.31142C15.3283 8.67658 16.2896 9.92579 17.6585 10.1016C17.6622 10.1016 17.6622 10.1016 17.6659 10.1053Z" fill="url(#paint16_linear_9816_15758)"/>
<path opacity="0.5" d="M9.06043 15.5769C9.01555 15.4684 8.95945 15.3637 8.8996 15.2627C8.8996 15.2627 7.59429 16.108 6.9996 16.669C6.40492 17.23 6.09074 17.7424 5.98602 18.1576C5.91121 18.4568 6.0309 19.1936 7.72145 18.842C8.99311 18.3109 9.59153 16.8485 9.06043 15.5769Z" fill="url(#paint17_linear_9816_15758)"/>
<path opacity="0.6" d="M18.0999 20.2896C18.0289 20.3831 17.9653 20.4878 17.9092 20.5888C17.9092 20.5888 19.293 21.2957 20.0785 21.5313C20.8639 21.7632 21.4623 21.7857 21.8737 21.666C22.1692 21.58 22.7489 21.1087 21.6007 19.8184C20.5011 18.9843 18.934 19.1937 18.0999 20.2896C18.0999 20.2934 18.0999 20.2934 18.0999 20.2896Z" fill="url(#paint18_linear_9816_15758)"/>
<path opacity="0.3" d="M17.5614 13.8525C17.2473 14.896 16.8059 15.846 16.2673 16.6801C16.2374 16.725 16.2112 16.7661 16.1813 16.8147C16.1813 16.8147 16.1813 16.8185 16.1776 16.8185C15.7998 17.3608 15.3734 17.8657 14.8984 18.3295C15.2425 18.6923 15.6091 19.0439 16.0167 19.3805C16.4805 19.7433 16.9667 20.0724 17.4791 20.3604C18.5189 19.287 19.3754 18.0453 20.0038 16.6876C20.2282 16.2275 20.4264 15.7563 20.5947 15.2738C20.0673 14.8886 19.5362 14.5781 19.0463 14.3687C18.5638 14.163 18.0664 13.9909 17.5614 13.8525Z" fill="url(#paint19_linear_9816_15758)"/>
<path opacity="0.3" d="M7.33876 24.1828C10.1701 24.568 12.8966 23.6704 14.7555 22.567C14.5273 22.4062 14.3029 22.2454 14.0785 22.0771C13.3716 21.5385 12.7246 20.9251 12.1449 20.2481C10.7498 20.8578 8.98817 21.2168 7.3612 20.884C5.78659 20.5623 4.39899 19.5338 3.68462 17.9479C3.54624 17.6375 3.44525 17.3121 3.37793 16.9792C3.78935 19.8704 5.24427 22.3913 7.33876 24.1828Z" fill="url(#paint20_linear_9816_15758)"/>
<path opacity="0.3" d="M14.8993 18.3301C14.185 17.5746 13.579 16.7218 13.1003 15.798C13.0779 15.7494 13.0517 15.7045 13.0292 15.6559V15.6522C12.7487 15.0537 12.5243 14.4291 12.3598 13.7896C11.8735 13.9055 11.3873 14.0476 10.8936 14.2309C10.3475 14.4478 9.82019 14.7059 9.31152 15.0014C9.76782 16.5797 10.4411 17.9112 11.2265 19.0258C11.5107 19.4484 11.8174 19.8524 12.154 20.2451C12.7525 19.9833 13.2873 19.6766 13.7137 19.3549C14.1326 19.0407 14.529 18.6966 14.8993 18.3301Z" fill="url(#paint21_linear_9816_15758)"/>
<path opacity="0.3" d="M11.0701 4.31155C9.31593 6.57435 8.73247 9.3832 8.75865 11.5413C9.00924 11.4216 9.26731 11.3094 9.52164 11.2009C10.3407 10.8568 11.1935 10.6025 12.0687 10.4417C12.237 8.92691 12.8092 7.22513 13.9089 5.9834C14.9748 4.77907 16.5606 4.09088 18.2886 4.26667C18.614 4.30033 18.9655 4.38261 19.2797 4.48734C19.2947 4.49108 19.3096 4.49856 19.3246 4.49856C17.6864 3.82907 15.9136 3.54482 14.1482 3.66824C13.0748 3.74304 12.0463 3.95997 11.0738 4.30407C11.0701 4.30407 11.0701 4.30781 11.0701 4.31155Z" fill="url(#paint22_linear_9816_15758)"/>
<path opacity="0.3" d="M26.4146 17.4734C25.3299 14.8253 23.1868 12.9141 21.3055 11.8594C21.2831 12.1287 21.2532 12.4054 21.2158 12.6934C21.0998 13.5761 20.8941 14.4401 20.5986 15.2779C21.8254 16.183 23.0185 17.5257 23.5459 19.1041C24.0545 20.6263 23.8601 22.3468 22.8427 23.7568C22.6408 24.0299 22.4126 24.2804 22.1583 24.5049L22.1471 24.5161C24.3425 22.7919 25.891 20.3084 26.4258 17.4958C26.4258 17.4921 26.4221 17.4846 26.4221 17.4808L26.4146 17.4734Z" fill="url(#paint23_linear_9816_15758)"/>
<path opacity="0.3" d="M12.0639 12.2408C12.1274 12.7607 12.2247 13.2769 12.3593 13.7855C13.4215 13.5349 14.4613 13.4414 15.4562 13.49L15.6133 13.4975H15.617C16.2416 13.5499 16.8924 13.6621 17.5619 13.8491C17.704 13.3704 17.8237 12.8729 17.9135 12.3568C18.007 11.7135 18.0369 11.115 18.0332 10.5989C16.4399 10.2062 14.9513 10.1239 13.5936 10.2473C13.0812 10.281 12.5763 10.3446 12.0713 10.4381C12.0003 11.0926 11.9965 11.706 12.0639 12.2408Z" fill="url(#paint24_linear_9816_15758)"/>
<path d="M74.9251 11.4816L73.0026 16.8338H73.0176L74.9363 11.5115L74.9251 11.4816ZM40.7887 11.4816L38.8662 16.8338H38.8737L40.7961 11.5003C40.7961 11.4966 40.7887 11.4816 40.7887 11.4816ZM41.2711 12.8168L42.7148 16.83H39.8237L39.0944 18.8535H43.4516L44.6859 22.2869H47.4499L42.4119 9.64893L41.2711 12.8168Z" fill="url(#paint25_linear_9816_15758)"/>
<path d="M38.8667 16.8337L40.7892 11.4815L40.7966 11.5002L41.6082 9.24862H39.4876L34.3037 22.2906H36.9069L38.8742 16.8299L38.8667 16.8337ZM55.8246 15.5732C55.1963 15.203 54.3585 14.8551 53.3187 14.5335C52.724 14.339 52.2565 14.1594 51.9199 13.9949C51.5833 13.8303 51.3476 13.6396 51.2167 13.4301C51.0858 13.2169 51.0185 12.9701 51.0185 12.6821C51.0185 12.1772 51.213 11.7882 51.602 11.5152C51.9909 11.2421 52.537 11.1037 53.2327 11.1037C53.8049 11.1037 54.3996 11.1898 55.0242 11.3618C55.6488 11.5339 56.1986 11.7695 56.6811 12.065L57.0401 9.95551C56.5502 9.66004 55.9518 9.42067 55.2486 9.24114C54.5604 9.06535 53.8535 8.97559 53.1466 8.97559C52.1966 8.97559 51.3738 9.12893 50.6781 9.43937C49.9787 9.7498 49.4401 10.1874 49.0586 10.7596C48.6734 11.3319 48.4827 12.0089 48.4827 12.7831C48.4827 13.4488 48.6098 14.0211 48.8679 14.5073C49.126 14.9935 49.5449 15.4161 50.1283 15.7677C50.7118 16.123 51.4785 16.4447 52.4285 16.7289C53.113 16.9384 53.6441 17.1291 54.0256 17.3124C54.4033 17.4957 54.6689 17.6976 54.8148 17.9221C54.9644 18.1465 55.0354 18.412 55.0354 18.7187C55.0354 19.2573 54.8148 19.6762 54.3772 19.9791C53.9358 20.2821 53.3262 20.4354 52.5482 20.4354C51.8712 20.4354 51.1681 20.3307 50.4275 20.1175C49.687 19.9043 49.0474 19.635 48.4976 19.3022L48.2583 21.4789C48.5762 21.6959 48.9801 21.8866 49.4588 22.0437C49.9413 22.2045 50.4575 22.3317 51.011 22.4215C51.5646 22.515 52.1181 22.5599 52.6679 22.5599C54.2126 22.5599 55.4244 22.2083 56.3071 21.5051C57.186 20.802 57.6274 19.8258 57.6274 18.5803C57.6274 17.9183 57.4852 17.3423 57.1972 16.8561C56.913 16.3736 56.4567 15.9435 55.8246 15.5732ZM69.5173 9.24862H58.4839V11.3768H69.5173V9.24862ZM65.3134 12.2669H62.6878V22.2906H65.3134V12.2669ZM73.0032 16.8337L74.9256 11.4815L74.9368 11.5114L75.7522 9.24862H73.6203L68.4402 22.2943H71.0471L72.2813 18.8608H72.285L73.0181 16.8374L73.0032 16.8337ZM75.4081 12.828L76.8443 16.8337H73.9606L73.2313 18.8571H77.5811L78.8154 22.2906H81.5793L76.5451 9.66378L75.4081 12.828ZM90.077 17.0057C90.6979 16.6579 91.229 16.1679 91.6217 15.5732C92.0219 14.9711 92.2238 14.2717 92.2238 13.4713C92.2238 12.5998 92.0294 11.8518 91.6404 11.2234C91.2514 10.5951 90.6979 10.1089 89.976 9.76476C89.2542 9.42067 88.3977 9.25236 87.4028 9.25236H86.4902V11.2272H87.0587C88.7979 11.2272 89.6656 11.9715 89.6656 13.4563C89.6656 14.9411 88.7679 15.6854 86.9689 15.6854H86.4864V17.6602H87.8254L90.5707 22.2943H93.5067L90.077 17.0057ZM85.6 9.24862H83.1128V22.2906H85.6V9.24862Z" fill="url(#paint26_linear_9816_15758)"/>
<defs>
<linearGradient id="paint0_linear_9816_15758" x1="4.74587" y1="25.5215" x2="23.7967" y2="6.4682" gradientUnits="userSpaceOnUse">
<stop stop-color="#E6007A"/>
<stop offset="0.21" stop-color="#703AC2"/>
<stop offset="0.46" stop-color="#0070EB"/>
<stop offset="0.77" stop-color="#0297FB"/>
<stop offset="1" stop-color="#0AE2FF"/>
</linearGradient>
<radialGradient id="paint1_radial_9816_15758" cx="0" cy="0" r="1" gradientUnits="userSpaceOnUse" gradientTransform="translate(19.201 12.2981) scale(5.68202)">
<stop stop-color="white"/>
<stop offset="1" stop-color="white" stop-opacity="0"/>
</radialGradient>
<radialGradient id="paint2_radial_9816_15758" cx="0" cy="0" r="1" gradientUnits="userSpaceOnUse" gradientTransform="translate(10.8044 22.8386) scale(3.30641)">
<stop stop-color="white"/>
<stop offset="1" stop-color="white" stop-opacity="0"/>
</radialGradient>
<linearGradient id="paint3_linear_9816_15758" x1="5.84145" y1="22.2798" x2="9.02812" y2="22.236" gradientUnits="userSpaceOnUse">
<stop stop-color="white" stop-opacity="0"/>
<stop offset="1" stop-color="white"/>
</linearGradient>
<radialGradient id="paint4_radial_9816_15758" cx="0" cy="0" r="1" gradientUnits="userSpaceOnUse" gradientTransform="translate(10.1938 13.1466) rotate(-120) scale(5.68201)">
<stop stop-color="white"/>
<stop offset="1" stop-color="white" stop-opacity="0"/>
</radialGradient>
<radialGradient id="paint5_radial_9816_15758" cx="0" cy="0" r="1" gradientUnits="userSpaceOnUse" gradientTransform="translate(23.5209 15.1499) rotate(-120) scale(3.3064)">
<stop stop-color="white"/>
<stop offset="1" stop-color="white" stop-opacity="0"/>
</radialGradient>
<linearGradient id="paint6_linear_9816_15758" x1="25.5131" y1="19.7252" x2="23.8819" y2="16.9877" gradientUnits="userSpaceOnUse">
<stop stop-color="white" stop-opacity="0"/>
<stop offset="1" stop-color="white"/>
</linearGradient>
<radialGradient id="paint7_radial_9816_15758" cx="0" cy="0" r="1" gradientUnits="userSpaceOnUse" gradientTransform="translate(15.1623 20.261) rotate(120) scale(5.68201)">
<stop stop-color="white"/>
<stop offset="1" stop-color="white" stop-opacity="0"/>
</radialGradient>
<radialGradient id="paint8_radial_9816_15758" cx="0" cy="0" r="1" gradientUnits="userSpaceOnUse" gradientTransform="translate(10.502 7.98352) rotate(120) scale(3.3064)">
<stop stop-color="white"/>
<stop offset="1" stop-color="white" stop-opacity="0"/>
</radialGradient>
<linearGradient id="paint9_linear_9816_15758" x1="13.4613" y1="3.96275" x2="11.9078" y2="6.74549" gradientUnits="userSpaceOnUse">
<stop stop-color="white" stop-opacity="0"/>
<stop offset="1" stop-color="white"/>
</linearGradient>
<linearGradient id="paint10_linear_9816_15758" x1="14.1601" y1="2.55019" x2="9.29091" y2="3.96671" gradientUnits="userSpaceOnUse">
<stop stop-color="#231F20"/>
<stop offset="1" stop-color="white"/>
</linearGradient>
<linearGradient id="paint11_linear_9816_15758" x1="4.96192" y1="21.1158" x2="9.03317" y2="25.3654" gradientUnits="userSpaceOnUse">
<stop stop-color="#231F20"/>
<stop offset="1" stop-color="white"/>
</linearGradient>
<linearGradient id="paint12_linear_9816_15758" x1="26.8085" y1="20.4756" x2="28.225" y2="16.1693" gradientUnits="userSpaceOnUse">
<stop stop-color="#231F20"/>
<stop offset="1" stop-color="white"/>
</linearGradient>
<linearGradient id="paint13_linear_9816_15758" x1="16.3764" y1="5.01547" x2="22.9027" y2="6.50919" gradientUnits="userSpaceOnUse">
<stop stop-color="#231F20"/>
<stop offset="1" stop-color="white"/>
</linearGradient>
<linearGradient id="paint14_linear_9816_15758" x1="23.158" y1="21.7216" x2="18.5981" y2="26.6276" gradientUnits="userSpaceOnUse">
<stop stop-color="#231F20"/>
<stop offset="1" stop-color="white"/>
</linearGradient>
<linearGradient id="paint15_linear_9816_15758" x1="5.29399" y1="19.241" x2="3.3266" y2="12.8413" gradientUnits="userSpaceOnUse">
<stop stop-color="#231F20"/>
<stop offset="1" stop-color="white"/>
</linearGradient>
<linearGradient id="paint16_linear_9816_15758" x1="17.8023" y1="7.42181" x2="15.7388" y2="9.48831" gradientUnits="userSpaceOnUse">
<stop stop-color="#231F20"/>
<stop offset="1" stop-color="white"/>
</linearGradient>
<linearGradient id="paint17_linear_9816_15758" x1="6.66839" y1="16.7975" x2="9.48849" y2="17.5551" gradientUnits="userSpaceOnUse">
<stop stop-color="#231F20"/>
<stop offset="1" stop-color="white"/>
</linearGradient>
<linearGradient id="paint18_linear_9816_15758" x1="20.3544" y1="21.7504" x2="19.5989" y2="18.9313" gradientUnits="userSpaceOnUse">
<stop stop-color="#231F20"/>
<stop offset="1" stop-color="white"/>
</linearGradient>
<linearGradient id="paint19_linear_9816_15758" x1="16.0563" y1="19.2409" x2="17.2965" y2="17.5305" gradientUnits="userSpaceOnUse">
<stop stop-color="#231F20"/>
<stop offset="1" stop-color="white"/>
</linearGradient>
<linearGradient id="paint20_linear_9816_15758" x1="11.7922" y1="18.5005" x2="9.31428" y2="19.682" gradientUnits="userSpaceOnUse">
<stop stop-color="#231F20"/>
<stop offset="1" stop-color="white"/>
</linearGradient>
<linearGradient id="paint21_linear_9816_15758" x1="10.8955" y1="14.3767" x2="11.6626" y2="15.97" gradientUnits="userSpaceOnUse">
<stop stop-color="#231F20"/>
<stop offset="1" stop-color="white"/>
</linearGradient>
<linearGradient id="paint22_linear_9816_15758" x1="14.4581" y1="9.45823" x2="13.9287" y2="7.6298" gradientUnits="userSpaceOnUse">
<stop stop-color="#231F20"/>
<stop offset="1" stop-color="white"/>
</linearGradient>
<linearGradient id="paint23_linear_9816_15758" x1="20.1837" y1="17.8326" x2="21.7177" y2="18.1858" gradientUnits="userSpaceOnUse">
<stop stop-color="#231F20"/>
<stop offset="1" stop-color="white"/>
</linearGradient>
<linearGradient id="paint24_linear_9816_15758" x1="17.7778" y1="12.6466" x2="15.8319" y2="12.2934" gradientUnits="userSpaceOnUse">
<stop stop-color="#231F20"/>
<stop offset="1" stop-color="white"/>
</linearGradient>
<linearGradient id="paint25_linear_9816_15758" x1="38.8662" y1="15.9679" x2="74.9363" y2="15.9679" gradientUnits="userSpaceOnUse">
<stop stop-color="#E6007A"/>
<stop offset="0.21" stop-color="#703AC2"/>
<stop offset="0.46" stop-color="#0070EB"/>
<stop offset="0.77" stop-color="#0297FB"/>
<stop offset="1" stop-color="#0AE2FF"/>
</linearGradient>
<linearGradient id="paint26_linear_9816_15758" x1="34.3037" y1="15.7677" x2="93.5067" y2="15.7677" gradientUnits="userSpaceOnUse">
<stop stop-color="#E6007A"/>
<stop offset="0.21" stop-color="#703AC2"/>
<stop offset="0.46" stop-color="#0070EB"/>
<stop offset="0.77" stop-color="#0297FB"/>
<stop offset="1" stop-color="#0AE2FF"/>
</linearGradient>
</defs>
</svg>
