<svg width="131" height="14" viewBox="0 0 131 14" fill="none" xmlns="http://www.w3.org/2000/svg">
<path d="M11.8268 10.1178V11.7894C11.8268 11.846 11.7843 11.9027 11.7135 11.9027H10.0419C9.98522 11.9027 9.92856 11.9452 9.92856 12.016L9.94273 13.6876C9.94273 13.7443 9.90023 13.8009 9.84357 13.8009H0.635787C0.579124 13.8009 0.522461 13.7584 0.522461 13.6876V0.697554C0.522461 0.640891 0.564958 0.584229 0.635787 0.584229H9.84357C9.90023 0.584229 9.95689 0.626725 9.95689 0.697554L9.94273 2.36912C9.94273 2.42578 9.98522 2.48245 10.0419 2.48245H11.7276C11.7843 2.48245 11.8409 2.52494 11.8409 2.59577V4.26734C11.8409 4.324 11.8834 4.38067 11.9543 4.38067H13.6258C13.6825 4.38067 13.7392 4.42316 13.7392 4.49399V9.93366C13.7392 9.99033 13.6967 10.047 13.6258 10.047H11.9401C11.8834 10.0187 11.8268 10.0612 11.8268 10.1178ZM8.15783 4.3665C8.10117 4.3665 8.05867 4.324 8.05867 4.26734V2.56744C8.05867 2.51078 8.01618 2.46828 7.95951 2.46828H4.38973C4.33306 2.46828 4.29057 2.51078 4.29057 2.56744V11.8036C4.29057 11.8602 4.33306 11.9027 4.38973 11.9027H7.97368C8.03034 11.9027 8.07284 11.8602 8.07284 11.8036V10.1037C8.07284 10.047 8.11534 10.0045 8.172 10.0045H9.8719C9.92856 10.0045 9.97106 9.962 9.97106 9.90533V4.43733C9.97106 4.38067 9.92856 4.33817 9.8719 4.33817H8.15783V4.3665Z" fill="black"/>
<path d="M26.8854 12.016L26.8995 13.6876C26.8995 13.7443 26.857 13.8009 26.8004 13.8009H17.5926C17.5359 13.8009 17.4793 13.7584 17.4793 13.6876V12.016C17.4793 11.9594 17.4368 11.9027 17.3659 11.9027H15.6944C15.6377 11.9027 15.5811 11.8602 15.5811 11.7894V2.58161C15.5811 2.52494 15.6236 2.46828 15.6944 2.46828H17.3801C17.4368 2.46828 17.4934 2.42578 17.4934 2.35496V0.697554C17.4934 0.640891 17.5359 0.584229 17.6068 0.584229H26.8287C26.8854 0.584229 26.942 0.626725 26.942 0.697554L26.9279 2.36912C26.9279 2.42578 26.9704 2.48245 27.027 2.48245H28.7128C28.7694 2.48245 28.8261 2.52494 28.8261 2.59577V11.8036C28.8261 11.8602 28.7836 11.9169 28.7128 11.9169H27.027C26.942 11.9027 26.8854 11.9452 26.8854 12.016ZM25.0155 2.59577C25.0155 2.52494 24.9588 2.48245 24.9022 2.48245H19.4908C19.42 2.48245 19.3775 2.53911 19.3775 2.59577V11.7752C19.3775 11.846 19.4342 11.8885 19.4908 11.8885H24.9022C24.973 11.8885 25.0155 11.8319 25.0155 11.7752V2.59577Z" fill="black"/>
<path d="M36.3895 11.903H39.9451C40.0018 11.903 40.0585 11.8605 40.0585 11.7896V8.23403C40.0585 8.17737 40.016 8.1207 39.9451 8.1207H38.2736C38.2169 8.1207 38.1602 8.0782 38.1602 8.00738V6.33581C38.1602 6.27915 38.2027 6.22248 38.2736 6.22248H43.7132C43.7699 6.22248 43.8266 6.26498 43.8266 6.33581V13.6595C43.8266 13.7162 43.7841 13.7729 43.7132 13.7729H34.4913C34.4346 13.7729 34.378 13.7304 34.378 13.6595L34.3921 11.988C34.3921 11.9313 34.3496 11.8746 34.293 11.8746H32.6072C32.5506 11.8746 32.4939 11.8321 32.4939 11.7613L32.5081 10.0898C32.5081 10.0331 32.4656 9.97643 32.4089 9.97643H30.7374C30.6807 9.97643 30.624 9.93393 30.624 9.8631L30.5957 4.42343C30.5957 4.36676 30.6382 4.3101 30.709 4.3101H32.3948C32.4514 4.3101 32.5081 4.2676 32.5081 4.19677V2.52521C32.5081 2.46854 32.5506 2.41188 32.6214 2.41188H34.2788C34.3355 2.41188 34.378 2.36938 34.3921 2.31272L34.4205 0.641152C34.4205 0.584489 34.463 0.541992 34.5338 0.541992H43.7274C43.7841 0.541992 43.8407 0.58449 43.8407 0.655319V2.32688C43.8407 2.38355 43.7982 2.44021 43.7274 2.44021H36.4037C36.347 2.44021 36.2904 2.48271 36.2904 2.55354L36.3045 4.2251C36.3045 4.28177 36.262 4.33843 36.2054 4.33843H34.5196C34.463 4.33843 34.4063 4.38093 34.4063 4.45176V9.89143C34.4063 9.94809 34.4488 10.0048 34.5196 10.0048H36.177C36.2337 10.0048 36.2904 10.0473 36.2904 10.1181L36.3045 11.7896C36.2904 11.8605 36.3329 11.903 36.3895 11.903Z" fill="black"/>
<path d="M49.5787 11.9032H56.9024C56.9591 11.9032 57.0157 11.9457 57.0157 12.0165V13.6881C57.0157 13.7448 56.9733 13.8014 56.9024 13.8014H45.8106C45.7539 13.8014 45.6973 13.7589 45.6973 13.6881V0.712203C45.6973 0.65554 45.7398 0.598877 45.8106 0.598877H56.9024C56.9591 0.598877 57.0157 0.641374 57.0157 0.712203V2.38377C57.0157 2.44043 56.9733 2.4971 56.9024 2.4971H49.5787C49.522 2.4971 49.4654 2.53959 49.4654 2.61042V6.13771C49.4654 6.19437 49.5079 6.25104 49.5787 6.25104H56.9024C56.9591 6.25104 57.0157 6.29353 57.0157 6.36436V8.03593C57.0157 8.09259 56.9733 8.14925 56.9024 8.14925H49.5787C49.522 8.14925 49.4654 8.19175 49.4654 8.26258V11.8182C49.4795 11.8607 49.522 11.9032 49.5787 11.9032Z" fill="black"/>
<path d="M62.7672 10.0191H64.4529C64.5096 10.0191 64.5521 10.0616 64.5521 10.1183V11.804C64.5521 11.8607 64.5946 11.9032 64.6512 11.9032H68.221C68.2777 11.9032 68.3202 11.8607 68.3202 11.804V10.1183C68.3202 10.0616 68.3627 10.0191 68.4193 10.0191H71.9891C72.0458 10.0191 72.0883 10.0616 72.0883 10.1183V11.804C72.0883 11.8607 72.0458 11.9032 71.9891 11.9032H70.3034C70.2467 11.9032 70.2042 11.9457 70.2042 12.0024V13.6881C70.2042 13.7448 70.1617 13.7873 70.1051 13.7873H62.7672C62.7105 13.7873 62.668 13.7448 62.668 13.6881V12.0024C62.668 11.9457 62.6255 11.9032 62.5689 11.9032H60.869C60.8123 11.9032 60.7698 11.8607 60.7698 11.804V10.1183C60.7698 10.0616 60.7273 10.0191 60.6706 10.0191H58.9849C58.9282 10.0191 58.8857 9.97665 58.8857 9.91998V4.46614C58.8857 4.40948 58.9282 4.36698 58.9849 4.36698H60.6706C60.7273 4.36698 60.7698 4.32449 60.7698 4.26782V2.58209C60.7698 2.52543 60.8123 2.48293 60.869 2.48293H62.5689C62.6255 2.48293 62.668 2.44043 62.668 2.38377V0.698037C62.668 0.641374 62.7105 0.598877 62.7672 0.598877H70.1192C70.1759 0.598877 70.2184 0.641374 70.2184 0.698037L70.2042 2.39794C70.2042 2.4546 70.2467 2.4971 70.3034 2.4971L71.9891 2.48293C72.0458 2.48293 72.0883 2.52543 72.0883 2.58209L72.1024 4.28199C72.1024 4.33865 72.0599 4.38115 72.0033 4.38115H68.4193C68.3627 4.38115 68.3202 4.33865 68.3202 4.28199V2.58209C68.3202 2.52543 68.2777 2.48293 68.221 2.48293H64.6512C64.5946 2.48293 64.5521 2.52543 64.5521 2.58209V4.26782C64.5521 4.32449 64.5096 4.36698 64.4529 4.36698H62.7672C62.7105 4.36698 62.668 4.40948 62.668 4.46614V9.91998C62.668 9.97665 62.7105 10.0191 62.7672 10.0191Z" fill="black"/>
<path d="M77.8399 6.25104H83.2938C83.3504 6.25104 83.3929 6.20854 83.3929 6.15188V0.698037C83.3929 0.641374 83.4354 0.598877 83.4921 0.598877H87.0619C87.1185 0.598877 87.161 0.641374 87.161 0.698037V13.6881C87.161 13.7448 87.1185 13.7873 87.0619 13.7873H83.4921C83.4354 13.7873 83.3929 13.7448 83.3929 13.6881V8.23425C83.3929 8.17759 83.3504 8.13509 83.2938 8.13509H77.8399C77.7833 8.13509 77.7408 8.17759 77.7408 8.23425V13.6881C77.7408 13.7448 77.6983 13.7873 77.6416 13.7873H74.0718C74.0152 13.7873 73.9727 13.7448 73.9727 13.6881V0.698037C73.9727 0.641374 74.0152 0.598877 74.0718 0.598877H77.6416C77.6983 0.598877 77.7408 0.641374 77.7408 0.698037V6.15188C77.7408 6.20854 77.7833 6.25104 77.8399 6.25104Z" fill="black"/>
<path d="M98.2529 10.0189H92.9407C92.8416 10.0189 92.7707 10.1039 92.7707 10.1889L92.7849 13.617C92.7849 13.7162 92.6999 13.787 92.6149 13.787H89.2293C89.1443 13.787 89.0593 13.7162 89.0593 13.6312C89.0309 13.2487 89.0168 12.8804 89.0309 12.4979C89.0593 11.7188 89.0734 11.3221 89.0734 11.308C89.0734 9.05562 89.0734 6.80325 89.0734 4.53672C89.0734 4.43756 89.1584 4.36673 89.2434 4.36673H90.745C90.8442 4.36673 90.915 4.28174 90.915 4.19674V2.66684C90.915 2.56768 91 2.49685 91.085 2.49685H92.6007C92.6999 2.49685 92.7707 2.42602 92.7707 2.32686L92.7991 0.782782C92.7991 0.683622 92.884 0.612793 92.969 0.612793H98.2671C98.3662 0.612793 98.4371 0.697787 98.4371 0.782782L98.4229 2.31269C98.4229 2.41185 98.4937 2.48268 98.5929 2.48268L100.137 2.46851C100.236 2.46851 100.307 2.53934 100.307 2.6385L100.293 4.16841C100.293 4.26757 100.364 4.3384 100.463 4.3384H101.993C102.092 4.3384 102.163 4.4234 102.163 4.50839V13.5745C102.163 13.6737 102.078 13.7445 101.993 13.7445H98.5645C98.4654 13.7445 98.3946 13.6595 98.3946 13.5745L98.4087 10.1606C98.437 10.1039 98.3521 10.0189 98.2529 10.0189ZM96.638 4.36673C96.5813 4.36673 96.5388 4.32424 96.5388 4.26757L96.5247 2.58184C96.5247 2.52518 96.4822 2.48268 96.4255 2.48268H94.7398C94.6831 2.48268 94.6406 2.52518 94.6406 2.58184L94.6548 4.26757C94.6548 4.32424 94.6123 4.36673 94.5556 4.36673H92.8557C92.7991 4.36673 92.7566 4.40923 92.7566 4.46589V8.04985C92.7566 8.10651 92.7991 8.14901 92.8557 8.14901H98.3096C98.3662 8.14901 98.4087 8.10651 98.4087 8.04985L98.4229 4.48006C98.4229 4.4234 98.3804 4.3809 98.3237 4.3809H96.638V4.36673Z" fill="black"/>
<path d="M107.743 2.48293H104.173C104.117 2.48293 104.074 2.44043 104.074 2.38377L104.088 0.698037C104.088 0.641374 104.131 0.598877 104.188 0.598877H115.294C115.35 0.598877 115.393 0.641374 115.393 0.698037V2.38377C115.393 2.44043 115.35 2.48293 115.294 2.48293H111.724C111.667 2.48293 111.625 2.52543 111.625 2.58209V11.804C111.625 11.8607 111.667 11.9032 111.724 11.9032H115.294C115.35 11.9032 115.393 11.9457 115.393 12.0024V13.6881C115.393 13.7448 115.35 13.7873 115.294 13.7873H104.188C104.131 13.7873 104.088 13.7448 104.088 13.6881V12.0024C104.088 11.9457 104.131 11.9032 104.188 11.9032H107.757C107.814 11.9032 107.856 11.8607 107.856 11.804V2.58209C107.842 2.52543 107.8 2.48293 107.743 2.48293Z" fill="black"/>
<path d="M117.376 0.598394H120.932C120.988 0.598394 121.045 0.640891 121.045 0.71172V2.39745C121.045 2.45412 121.087 2.51078 121.158 2.51078L122.83 2.49661C122.887 2.49661 122.943 2.53911 122.943 2.59577V4.26734C122.943 4.324 122.986 4.38067 123.057 4.38067H124.728C124.785 4.38067 124.841 4.42316 124.841 4.49399V6.13723C124.841 6.19389 124.884 6.25055 124.955 6.25055H126.626C126.683 6.25055 126.74 6.20806 126.74 6.13723V0.697554C126.74 0.640891 126.782 0.584229 126.853 0.584229H130.409C130.465 0.584229 130.522 0.626725 130.522 0.697554V13.6734C130.522 13.7301 130.479 13.7868 130.409 13.7868H126.853C126.796 13.7868 126.74 13.7443 126.74 13.6734V12.0019C126.74 11.9452 126.697 11.8885 126.626 11.8885H124.955C124.898 11.8885 124.841 11.846 124.841 11.7752V10.1037C124.841 10.047 124.799 9.99033 124.728 9.99033H123.057C123 9.99033 122.943 9.94783 122.943 9.877V8.20544C122.943 8.14877 122.901 8.09211 122.83 8.09211H121.158C121.102 8.09211 121.045 8.13461 121.045 8.20544V13.6451C121.045 13.7018 121.002 13.7584 120.932 13.7584H117.376C117.319 13.7584 117.263 13.7159 117.263 13.6451V0.669223C117.263 0.640892 117.319 0.598394 117.376 0.598394Z" fill="black"/>
</svg>
