<svg width="93" height="27" viewBox="0 0 93 27" fill="none" xmlns="http://www.w3.org/2000/svg">
<path d="M34.6949 6.54641H30.1631V19.5019H34.6949C38.8368 19.5019 41.5296 16.9592 41.5296 13.0427C41.5296 9.1079 38.8362 6.54641 34.6949 6.54641ZM32.7633 17.293V8.73751H34.6023C37.3323 8.73751 38.874 10.3526 38.874 13.0433C38.874 15.735 37.3323 17.2936 34.6023 17.2936L32.7633 17.293ZM52.4835 14.4161C52.4835 16.099 52.038 17.3985 51.1465 18.3137C50.2674 19.2295 49.0662 19.6876 47.5433 19.6876C46.6023 19.6876 45.7603 19.4831 45.0175 19.075C44.2871 18.6669 43.7112 18.0726 43.29 17.293C42.8693 16.5016 42.6587 15.5423 42.6587 14.4161C42.6587 12.7337 43.0982 11.4406 43.9773 10.5372C44.8564 9.63387 46.0636 9.18219 47.5994 9.18219C48.5528 9.18219 49.3948 9.38677 50.1252 9.79484C50.8556 10.2029 51.4315 10.7967 51.8522 11.5768C52.2734 12.3439 52.4835 13.2904 52.4835 14.4161ZM45.4818 14.4161C45.4818 15.4185 45.6429 16.1797 45.965 16.6992C46.299 17.2064 46.8377 17.4605 47.5811 17.4605C48.311 17.4605 48.8372 17.2064 49.1594 16.6992C49.4933 16.1797 49.6603 15.4185 49.6603 14.4166C49.6603 13.4142 49.4933 12.6653 49.1594 12.1706C48.8372 11.6629 48.305 11.4094 47.5622 11.4094C46.8312 11.4094 46.299 11.6629 45.9645 12.1706C45.6429 12.6659 45.4818 13.4142 45.4818 14.4161ZM47.5622 23.3996C47.141 23.3996 46.7817 23.3005 46.4849 23.1024C46.1999 22.9048 46.0577 22.5522 46.0577 22.0445C46.0577 21.525 46.1999 21.1659 46.4849 20.9678C46.7817 20.7826 47.141 20.6895 47.5622 20.6895C47.9705 20.6895 48.3233 20.7826 48.6207 20.9684C48.918 21.1659 49.0662 21.525 49.0662 22.0451C49.0662 22.5522 48.918 22.9048 48.6207 23.1024C48.3233 23.3005 47.9705 23.3996 47.5622 23.3996ZM49.2148 5.28451C49.3883 5.55692 49.6113 5.86593 49.8833 6.21263C50.412 6.83288 50.9634 7.43338 51.5365 8.01289V8.25407H49.698C49.3401 8.03299 48.987 7.80414 48.639 7.56767C48.2585 7.29815 47.9041 6.99354 47.5805 6.65785C47.2636 6.98776 46.9154 7.28615 46.5409 7.54883C46.1692 7.80885 45.8223 8.04411 45.5007 8.25407H43.6617V8.01289C43.8971 7.77763 44.1572 7.50576 44.4417 7.19621C44.7365 6.87722 45.0214 6.5492 45.296 6.21263C45.581 5.86593 45.8099 5.55692 45.9834 5.28451H49.2154H49.2148ZM55.5507 7.99459C56.4611 7.99459 57.1296 7.32595 57.1296 6.47212C57.1296 5.61883 56.4611 4.9502 55.5507 4.9502C54.6037 4.9502 53.9347 5.61883 53.9347 6.47212C53.9347 7.32595 54.6037 7.99459 55.5507 7.99459ZM54.232 9.21934V21.2096C54.232 21.8965 53.9535 22.1931 53.1547 22.1931H52.4119V24.402H53.5635C55.5507 24.402 56.8322 23.5665 56.8322 21.1907V9.21934H54.232ZM59.03 19.5019H61.6302V9.21934H59.03V19.5019ZM60.3487 7.99459C61.2585 7.99459 61.9458 7.32595 61.9458 6.47212C61.9458 5.61883 61.2585 4.9502 60.3487 4.9502C59.42 4.9502 58.7515 5.61883 58.7515 6.47212C58.7515 7.32595 59.42 7.99459 60.3487 7.99459ZM78.2213 19.5019H80.8214V13.4696C80.8214 10.6298 79.0756 9.07129 76.6058 9.07129C75.1013 9.07129 73.7454 9.86913 73.0769 11.0384C72.3707 9.75715 71.0526 9.07075 69.4549 9.07075C68.1734 9.07075 67.0778 9.60911 66.4276 10.4629V9.21934H63.8274V19.5019H66.4276V13.8223C66.4276 12.1889 67.3379 11.3351 68.7492 11.3351C70.1239 11.3351 71.0338 12.1889 71.0338 13.8223V19.5019H73.6339V13.8223C73.6339 12.1889 74.5438 11.3351 75.9368 11.3351C77.3115 11.3351 78.2213 12.1889 78.2213 13.8223V19.5019ZM82.2489 14.3235C82.2489 17.5347 84.3293 19.6693 86.9294 19.6693C88.5638 19.6693 89.7338 18.8892 90.3468 17.9983V19.5019H92.9653V9.21934H90.3468V10.6858C89.7338 9.83199 88.6009 9.05245 86.9478 9.05245C84.3293 9.05245 82.2489 11.1127 82.2489 14.3235ZM90.3468 14.3606C90.3468 16.3095 89.0464 17.3862 87.6162 17.3862C86.2232 17.3862 84.9046 16.2723 84.9046 14.3235C84.9046 12.3746 86.2232 11.3356 87.6162 11.3356C89.0464 11.3356 90.3468 12.4118 90.3468 14.3606Z" fill="black"/>
<path d="M12.9822 22.5601C18.2848 22.5601 22.5834 18.2549 22.5834 12.9451C22.5834 7.63475 18.2848 3.33008 12.9822 3.33008C7.67946 3.33008 3.38086 7.63475 3.38086 12.9451C3.38086 18.2549 7.67946 22.5601 12.9822 22.5601Z" fill="url(#paint0_linear_9816_15994)"/>
<path d="M24.3492 5.1738C26.0654 1.39402 22.2747 1.88985 18.539 5.14635C18.6231 5.23033 19.0443 5.56788 19.297 5.73638C23.6548 3.03708 22.2031 6.13907 21.3999 7.59532C20.5973 9.05156 13.3225 18.034 7.58784 21.4536C2.99997 24.1895 4.37843 20.9551 5.5689 19.0628L4.98013 18.3037L3.83653 19.9484C2.41013 22.2175 0.607729 26.3101 4.80237 24.5298C12.4704 21.0289 21.3999 11.669 24.3492 5.1738Z" fill="url(#paint1_linear_9816_15994)"/>
<g filter="url(#filter0_d_9816_15994)">
<path d="M11.7754 18.2896L12.8166 17.3621C13.1706 17.6883 13.5131 17.9989 13.8401 18.2896L12.8166 19.1973C12.4811 18.912 12.1331 18.6094 11.7754 18.2896Z" fill="url(#paint2_linear_9816_15994)"/>
</g>
<path d="M7.26085 5.27378L6.64299 5.72976C4.91924 4.65521 2.06105 3.55482 4.41558 7.74751C6.14041 10.8194 9.86695 14.6427 12.8173 17.3625C13.1712 17.6882 13.5143 17.9988 13.8407 18.2901C14.4187 18.8067 15.006 19.3128 15.6022 19.8082C19.0497 22.3794 23.261 24.5818 20.308 19.2177L20.7293 18.6271C23.4119 21.215 27.1309 28.922 16.9198 22.331C16.414 22.0042 14.8454 20.921 12.8173 19.1978C12.4822 18.9124 12.1342 18.6093 11.7765 18.2896C8.66194 15.5063 4.80397 11.4325 2.0088 6.41347C-0.632852 1.66896 2.33416 1.22105 7.26085 5.27378Z" fill="url(#paint3_linear_9816_15994)"/>
<defs>
<filter id="filter0_d_9816_15994" x="11.0237" y="17.3621" width="2.81619" height="2.58694" filterUnits="userSpaceOnUse" color-interpolation-filters="sRGB">
<feFlood flood-opacity="0" result="BackgroundImageFix"/>
<feColorMatrix in="SourceAlpha" type="matrix" values="0 0 0 0 0 0 0 0 0 0 0 0 0 0 0 0 0 0 127 0" result="hardAlpha"/>
<feOffset dx="-0.375869" dy="0.375869"/>
<feGaussianBlur stdDeviation="0.187934"/>
<feComposite in2="hardAlpha" operator="out"/>
<feColorMatrix type="matrix" values="0 0 0 0 0.0999942 0 0 0 0 0.0802951 0 0 0 0 0.154167 0 0 0 0.16 0"/>
<feBlend mode="normal" in2="BackgroundImageFix" result="effect1_dropShadow_9816_15994"/>
<feBlend mode="normal" in="SourceGraphic" in2="effect1_dropShadow_9816_15994" result="shape"/>
</filter>
<linearGradient id="paint0_linear_9816_15994" x1="22.5834" y1="11.0894" x2="3.37713" y2="16.4729" gradientUnits="userSpaceOnUse">
<stop stop-color="#8D57DE"/>
<stop offset="1" stop-color="#D6D6FC"/>
</linearGradient>
<linearGradient id="paint1_linear_9816_15994" x1="-6.90459" y1="-2.04606" x2="48.7272" y2="-4.45265" gradientUnits="userSpaceOnUse">
<stop stop-color="#FF8811"/>
<stop offset="1" stop-color="#FF1267"/>
</linearGradient>
<linearGradient id="paint2_linear_9816_15994" x1="10.2326" y1="16.8646" x2="19.6367" y2="16.2318" gradientUnits="userSpaceOnUse">
<stop stop-color="#FF8811"/>
<stop offset="1" stop-color="#FF1267"/>
</linearGradient>
<linearGradient id="paint3_linear_9816_15994" x1="-8.10908" y1="-2.03975" x2="47.68" y2="-4.46413" gradientUnits="userSpaceOnUse">
<stop stop-color="#FF8811"/>
<stop offset="1" stop-color="#FF1267"/>
</linearGradient>
</defs>
</svg>
