<svg width="170" height="19" viewBox="0 0 170 19" fill="none" xmlns="http://www.w3.org/2000/svg">
<path d="M67.3157 18.0215H76.8063V0.616382H67.3157V18.0215ZM60.1825 0.616382H65.8007V2.85146H60.6037C59.7545 2.85146 59.0343 3.09603 58.4909 3.57837C57.9474 4.06071 57.6417 4.72648 57.6417 5.51453C57.6417 6.30258 57.9406 6.96835 58.4909 7.45069C59.0411 7.93303 59.7613 8.1776 60.6037 8.1776H65.8007V17.9671H54.4419V15.732H60.3659C61.2694 15.732 62.0575 15.4875 62.601 14.944C63.2056 14.4005 63.4502 13.7959 63.4502 12.9467C63.4502 12.1586 63.1512 11.4929 62.601 11.0105C61.9963 10.5282 61.2694 10.2836 60.3659 10.2836H59.639C57.2205 10.2836 55.23 8.34744 55.23 5.92894V5.38545C55.23 2.66803 57.465 0.487305 60.1892 0.487305V0.616382H60.1825ZM83.7561 0.616382H89.1977V2.85146H84.1773C83.3281 2.85146 82.608 3.09603 82.0645 3.57837C81.521 4.06071 81.2153 4.72648 81.2153 5.51453C81.2153 6.30258 81.5142 6.96835 82.0645 7.45069C82.608 7.93303 83.3349 8.1776 84.1773 8.1776H89.1909V13.0146C89.1909 15.732 86.9558 17.9739 84.1773 17.9739H78.3756V15.7388H83.8172C84.7207 15.7388 85.5088 15.4943 86.0523 14.9508C86.6569 14.4073 86.9015 13.8027 86.9015 12.9535C86.9015 12.1654 86.6026 11.4996 86.0523 11.0173C85.4477 10.535 84.7207 10.2904 83.8172 10.2904H78.8579L78.7968 5.45339C78.7968 2.73597 81.0319 0.55524 83.7561 0.55524V0.616382ZM9.35314 0.616382H15.6983V2.85146H9.53656C8.38845 2.85146 7.30149 3.15038 6.33001 3.70065C5.35853 4.25093 4.57727 5.02539 3.97265 6.05801C3.42916 7.0227 3.12346 8.10967 3.12346 9.26457C3.12346 10.4195 3.42237 11.6219 3.97265 12.5866C4.52293 13.5513 5.30418 14.3393 6.33001 14.8828C7.29469 15.4263 8.38166 15.732 9.53656 15.732H13.2866V10.2904H7.1792V8.11646H15.6983V17.9671H9.35314C4.45499 17.9671 0.52832 14.1016 0.52832 9.26457C0.52832 4.42756 4.45499 0.55524 9.35314 0.55524V0.616382ZM34.2515 8.71429V18.0826H32.0164V8.77543C32.0164 5.51453 29.3601 2.9126 26.0924 2.9126C22.8247 2.9126 20.1685 5.51453 20.1685 8.77543V18.0826H17.8722V0.677524H26.0924C30.6237 0.677524 34.2515 4.30528 34.2515 8.77543V8.71429ZM75.169 5.87459C75.169 7.56618 73.7763 8.89772 72.0848 8.89772C70.3932 8.89772 69.0005 7.56618 69.0005 5.87459C69.0005 4.183 70.3932 2.85146 72.0848 2.85146C73.7831 2.85146 75.169 4.183 75.169 5.87459ZM95.3594 9.31892C95.3594 14.1559 99.2861 18.0215 104.184 18.0215H107.934V15.7864H104.245C100.557 15.7864 97.5945 12.8244 97.7168 9.19663C97.7779 5.69116 100.801 2.85146 104.368 2.85146H107.934V0.616382H104.184C99.3473 0.616382 95.3594 4.48191 95.3594 9.31892ZM161.841 0.616382H153.621V18.0215H155.917V8.71429C155.917 5.45339 158.573 2.85146 161.841 2.85146C165.102 2.85146 167.765 5.45339 167.765 8.71429V18.0215H170V8.71429C170 4.24414 166.311 0.616382 161.841 0.616382ZM120.74 6.47921C120.74 6.96156 120.557 7.38276 120.197 7.68847C119.837 8.04852 119.47 8.17081 118.987 8.17081H113.729C113.247 8.17081 112.826 7.98738 112.52 7.68847C112.16 7.38955 112.038 6.96156 112.038 6.47921V0.616382H109.741V18.0215H112.038V12.0975C112.038 11.6151 112.221 11.1939 112.52 10.8882C112.88 10.5893 113.247 10.4059 113.729 10.4059H118.987C119.47 10.4059 119.891 10.5893 120.197 10.8882C120.557 11.2483 120.74 11.6151 120.74 12.0975V18.0215H122.975V0.616382H120.74V6.47921ZM142.255 0.616382V18.0215H151.746V0.616382H142.255ZM146.97 8.89772C145.278 8.89772 143.886 7.56618 143.886 5.87459C143.886 4.183 145.278 2.85146 146.97 2.85146C148.662 2.85146 150.054 4.183 150.054 5.87459C150.054 7.56618 148.662 8.89772 146.97 8.89772ZM133.92 1.51992C133.621 0.854156 133.193 0.55524 132.649 0.55524C132.106 0.55524 131.685 0.854156 131.379 1.51992L123.824 18.0215H141.413L133.92 1.51992ZM132.649 15.1817C130.958 15.1817 129.565 13.8502 129.565 12.1586C129.565 10.467 130.958 9.13549 132.649 9.13549C134.341 9.13549 135.733 10.467 135.733 12.1586C135.733 13.8502 134.341 15.1817 132.649 15.1817ZM52.628 4.9099C51.84 3.57837 50.753 2.4914 49.3671 1.76449C47.9744 0.97644 46.4595 0.616382 44.8902 0.616382C43.2597 0.616382 41.8059 0.97644 40.42 1.76449C39.0274 2.55254 37.9404 3.57837 37.1591 4.9099C36.3711 6.24144 36.011 7.74961 36.011 9.31892C36.011 10.8882 36.3711 12.342 37.1591 13.7279C37.9472 15.0595 39.0341 16.1464 40.42 16.9345C41.8127 17.7225 43.3209 18.1437 44.8902 18.1437C46.4595 18.1437 48.0356 17.7225 49.3603 16.9345C50.753 16.1464 51.84 15.0595 52.6212 13.7279C53.4093 12.3964 53.8305 10.8882 53.8305 9.31892C53.8305 7.74961 53.4161 6.29579 52.628 4.9099ZM44.8902 12.4032C43.1986 12.4032 41.8059 11.0717 41.8059 9.38006C41.8059 7.68847 43.1986 6.35693 44.8902 6.35693C46.5818 6.35693 47.9744 7.68847 47.9744 9.38006C47.9744 11.0717 46.5818 12.4032 44.8902 12.4032Z" fill="#3E6957"/>
</svg>
