<svg width="138" height="23" viewBox="0 0 138 23" fill="none" xmlns="http://www.w3.org/2000/svg">
<g clip-path="url(#clip0_9816_16116)">
<path d="M0.283203 6.41121L4.39488 15.63L11.2236 22.4145L4.45499 1.37402L0.283203 6.41121Z" fill="#9C2131"/>
<path d="M0.283203 6.4112L7.44853 10.6892L4.45499 1.37402L0.283203 6.4112Z" fill="#576B98"/>
<path d="M6.98047 0.807129L9.34887 8.18212L10.8276 8.71237L12.5709 3.18111L6.98047 0.807129Z" fill="#D71B2A"/>
<path d="M24.0055 7.76095L20.7233 12.3402L13.1973 9.6047L15.3373 3.013L21.1561 1.53076L24.0055 7.76095Z" fill="#C41A24"/>
<path d="M19.1706 14.5093L13.8206 21.8844L10.3701 11.3159L19.1706 14.5093Z" fill="#C71C26"/>
<path d="M10.0107 3.90444L10.8283 8.71265L12.5715 3.1814L10.0107 3.90444Z" fill="#A71927"/>
<path d="M9.31281 8.19418L10.8276 8.72443L10.0101 3.9162L6.98047 0.807129L9.31281 8.19418Z" fill="#61395F"/>
<path d="M7.43784 10.6884L4.38412 15.6292L0.272461 6.4104L7.43784 10.6884Z" fill="#614268"/>
<path d="M15.3253 3.02441L18.0544 7.24214L13.1973 9.61615L15.3253 3.02441Z" fill="#DA1728"/>
<path d="M21.145 1.54224L18.0553 7.24219L15.3262 3.02446L21.145 1.54224Z" fill="#E42735"/>
<path d="M20.7214 12.3397L18.0645 7.23022L24.0155 7.76043L20.7214 12.3397Z" fill="#A61D1E"/>
<path d="M14.0129 15.4011L13.8206 21.8844L10.3701 11.3159L14.0129 15.4011Z" fill="#D71B2A"/>
<path d="M13.8223 21.8835L14.0146 15.4003L19.1722 14.5085L13.8223 21.8835Z" fill="#A51C1C"/>
<path d="M11.2486 22.4142L4.38379 15.6296L9.31301 16.5575L11.2486 22.4142Z" fill="#721919"/>
<path d="M114.521 5.32666L112.153 18.3052H114.317L114.714 15.4372L116.625 16.8833L117.551 18.3052H119.715L117.287 5.32666C117.274 5.32666 114.521 5.32666 114.521 5.32666ZM115.014 13.4609L115.904 7.89348H115.94L117.227 15.3408L115.014 13.4609Z" fill="#AD182A"/>
<path d="M35.7021 5.3623H33.466L31.1336 10.1344H31.0975V5.3623H28.8613V18.3047H31.0975V13.7255L31.915 12.2794H31.9511L33.7545 18.3047H36.0267L33.3337 10.1705L35.7021 5.3623Z" fill="#AD182A"/>
<path d="M58.3651 9.14674C58.3651 7.79706 58.0645 6.8089 57.4394 6.21842C56.8143 5.62793 55.9006 5.32666 54.6142 5.32666H51.4883V18.3052H53.6884V12.9668C54.0852 12.9668 54.4458 12.9668 54.8426 12.9307L56.4175 18.2932H58.6897L56.7782 12.4366C57.8482 11.9425 58.3651 10.858 58.3651 9.14674ZM55.7683 10.6892C55.6 10.858 55.4076 10.9905 55.1792 11.0507C54.9508 11.111 54.7223 11.1471 54.4939 11.111H53.7005V7.12222H54.4939C54.7223 7.08607 54.9508 7.12222 55.1792 7.18247C55.4076 7.24272 55.612 7.37529 55.7683 7.54399C56.0689 8.00195 56.2011 8.56832 56.129 9.12262C56.2011 9.70104 56.0689 10.2313 55.7683 10.6892Z" fill="#AD182A"/>
<path d="M65.9267 5.32666H62.6445V18.3052H65.9267C68.259 18.3052 69.4131 16.9917 69.4369 14.3888V9.25521C69.377 6.64019 68.223 5.32666 65.9267 5.32666ZM67.177 14.6419C67.2371 15.1359 67.1169 15.63 66.8163 16.0638C66.648 16.1964 66.4556 16.329 66.2272 16.3892C66.0349 16.4494 65.7944 16.4856 65.566 16.4494H64.8086V7.13427H65.566C65.7944 7.09811 66.0229 7.13427 66.2272 7.19452C66.4316 7.25477 66.624 7.36323 66.8163 7.51989C67.0808 7.95371 67.2131 8.44778 67.177 8.94185V14.6419Z" fill="#AD182A"/>
<path d="M81.8337 5.32666L79.4658 18.3052H81.6293L82.0266 15.4372L83.9617 16.8833L84.8874 18.3052H87.0515L84.5868 5.32666H81.8337ZM82.3511 13.4609L83.2406 7.89348H83.2767L84.5629 15.3408L82.3511 13.4609Z" fill="#AD182A"/>
<path d="M42.3039 5.32666L39.9355 18.3052H42.0995L42.4963 15.4372L44.4319 16.8833L45.3576 18.3052H47.5217L45.057 5.32666C45.0691 5.32666 42.3039 5.32666 42.3039 5.32666ZM42.7969 13.4609L43.6865 7.89348H43.7226L45.009 15.3408L42.7969 13.4609Z" fill="#AD182A"/>
<path d="M134.526 5.36249V12.8701H134.49C134.43 12.7375 134.358 12.6411 134.322 12.5085C133.432 10.1707 132.519 7.86903 131.629 5.53119C131.593 5.43479 131.497 5.33838 131.401 5.33838C130.812 5.33838 130.187 5.33838 129.562 5.33838V18.3049H131.629V10.8576C131.69 10.8937 131.761 10.9179 131.797 10.9902C132.723 13.3642 133.673 15.7381 134.586 18.076C134.622 18.1362 134.683 18.3049 134.755 18.3049C135.38 18.3049 135.969 18.3049 136.594 18.3049V5.36249H134.526Z" fill="#AD182A"/>
<path d="M106.142 10.8218H103.677V5.32666H101.705V18.3052H103.713V12.5451H106.178V18.2811H108.15V5.32666H106.142V10.8218Z" fill="#AD182A"/>
<path d="M95.5986 14.5451C95.5986 14.8463 95.5986 15.1356 95.5986 15.4007C95.5631 15.7261 95.4064 15.9912 95.1658 16.2201C94.9374 16.4491 94.613 16.5214 94.2763 16.4853C93.519 16.3166 93.1945 16.1237 93.1945 15.1356C93.1584 12.9665 93.1945 10.7853 93.1945 8.58002C93.1945 8.27878 93.2307 8.02572 93.3629 7.72441C93.4951 7.45931 93.6873 7.23034 93.9518 7.09779C94.144 7.03753 94.3485 7.00138 94.5407 7.00138C94.7336 7.03754 94.9374 7.09779 95.0942 7.23034C95.2503 7.3629 95.3948 7.53161 95.4909 7.6883C95.587 7.85701 95.6231 8.08595 95.587 8.27878C95.587 8.50773 95.587 8.71255 95.587 8.94156H97.655C97.655 8.58002 97.655 8.21848 97.655 7.85701C97.6189 7.49546 97.5582 7.13394 97.3905 6.80857C97.2222 6.4832 96.9932 6.18193 96.7287 5.91682C96.2359 5.48299 95.6109 5.22993 94.9497 5.09737C94.2885 5.00097 93.639 5.06122 93.0139 5.29018C92.485 5.48299 91.9922 5.84452 91.6677 6.31449C91.3433 6.77242 91.1388 7.3388 91.1143 7.89312C91.1504 10.4961 91.1143 13.0629 91.1143 15.6658C91.1143 16.0635 91.211 16.4611 91.4148 16.7865C91.6193 17.1119 91.8722 17.4132 92.2082 17.6421C92.9662 18.1724 93.9157 18.4013 94.8413 18.2688C95.5986 18.2085 96.3204 17.8711 96.8493 17.3168C97.1738 16.9552 97.4021 16.4973 97.5344 16.0033C97.6666 15.5092 97.6666 15.015 97.5705 14.521L95.5986 14.5451Z" fill="#AD182A"/>
<path d="M75.5567 5.36206H73.3203V18.3044H75.5567V5.36206Z" fill="#AD182A"/>
<path d="M123.659 18.3047H125.631V5.3623H123.659V18.3047Z" fill="#AD182A"/>
</g>
<defs>
<clipPath id="clip0_9816_16116">
<rect width="137.004" height="21.8042" fill="white" transform="translate(0.272461 0.807129)"/>
</clipPath>
</defs>
</svg>
