<svg width="63" height="33" viewBox="0 0 63 33" fill="none" xmlns="http://www.w3.org/2000/svg">
<g clip-path="url(#clip0_9816_16298)">
<path d="M41.0804 12.8884C40.9682 11.9421 40.5138 11.2075 39.717 10.6845C38.9202 10.1616 37.9428 9.90014 36.7848 9.90014C35.9382 9.90014 35.1973 10.0371 34.5623 10.311C33.9335 10.5849 33.4417 10.9616 33.0869 11.441C32.7382 11.9203 32.5639 12.465 32.5639 13.0751C32.5639 13.5856 32.6854 14.0245 32.9281 14.3918C33.1772 14.7529 33.4947 15.0548 33.8806 15.2977C34.2666 15.5342 34.6713 15.7303 35.0946 15.8859C35.518 16.0354 35.9071 16.1568 36.2619 16.2501L38.2043 16.7731C38.7023 16.9038 39.2564 17.0844 39.8665 17.3147C40.4828 17.5451 41.0709 17.8595 41.6316 18.2579C42.1978 18.6501 42.6648 19.1544 43.032 19.7707C43.3996 20.387 43.5831 21.1434 43.5831 22.0399C43.5831 23.0733 43.3123 24.0072 42.7707 24.8414C42.2354 25.6756 41.4508 26.3386 40.4174 26.8304C39.3902 27.3222 38.142 27.5681 36.6728 27.5681C35.3032 27.5681 34.1172 27.3471 33.1149 26.9051C32.1188 26.4631 31.3344 25.8468 30.7616 25.0561C30.1952 24.2655 29.8745 23.3472 29.7998 22.3014H32.1904C32.2526 23.0235 32.4955 23.6212 32.9188 24.0943C33.3483 24.5612 33.89 24.9098 34.5436 25.1402C35.2035 25.3643 35.9133 25.4764 36.6728 25.4764C37.5568 25.4764 38.3505 25.3332 39.054 25.0468C39.7575 24.7542 40.3147 24.3495 40.7256 23.8328C41.1363 23.3099 41.3417 22.6998 41.3417 22.0025C41.3417 21.3675 41.1645 20.8508 40.8096 20.4524C40.4548 20.0539 39.9879 19.7302 39.4089 19.4812C38.8299 19.2321 38.2043 19.0143 37.5319 18.8275L35.1786 18.1552C33.6845 17.7256 32.5017 17.1124 31.6301 16.3155C30.7585 15.5187 30.3228 14.4759 30.3228 13.1872C30.3228 12.1164 30.6122 11.1826 31.1912 10.3857C31.7764 9.58262 32.5609 8.96007 33.5445 8.51805C34.5343 8.06985 35.6393 7.8457 36.8595 7.8457C38.0922 7.8457 39.1879 8.06671 40.1466 8.50873C41.1054 8.94453 41.8647 9.54218 42.425 10.3017C42.9916 11.0612 43.2905 11.9234 43.3215 12.8884H41.0804Z" fill="#011829"/>
<path d="M54.5551 21.368V12.8889H56.7589V27.2325H54.5551V24.8045H54.4056C54.0694 25.5329 53.5464 26.1524 52.837 26.6628C52.1273 27.1671 51.2308 27.4192 50.1476 27.4192C49.2511 27.4192 48.4541 27.2231 47.7567 26.8309C47.0596 26.4325 46.5116 25.8348 46.1132 25.038C45.7151 24.2349 45.5156 23.2232 45.5156 22.003V12.8889H47.7194V21.8536C47.7194 22.8995 48.012 23.7337 48.5972 24.3563C49.1888 24.9788 49.9422 25.2901 50.8573 25.2901C51.4049 25.2901 51.9624 25.15 52.5286 24.8699C53.1015 24.5897 53.5809 24.1602 53.9667 23.5812C54.3588 23.0022 54.5551 22.2645 54.5551 21.368Z" fill="#011829"/>
<path d="M59.2156 27.2324V12.8888H61.4194V27.2324H59.2156ZM60.3361 10.4983C59.9067 10.4983 59.5364 10.3519 59.2251 10.0593C58.9198 9.76674 58.7676 9.41501 58.7676 9.00411C58.7676 8.59321 58.9198 8.24148 59.2251 7.9489C59.5364 7.65628 59.9067 7.51001 60.3361 7.51001C60.766 7.51001 61.1331 7.65628 61.438 7.9489C61.7493 8.24148 61.9051 8.59321 61.9051 9.00411C61.9051 9.41501 61.7493 9.76674 61.438 10.0593C61.1331 10.3519 60.766 10.4983 60.3361 10.4983Z" fill="#011829"/>
<path fill-rule="evenodd" clip-rule="evenodd" d="M40.9353 13.053L40.9178 12.908C40.8116 12.0099 40.3839 11.3185 39.6276 10.8222C38.8628 10.3203 37.9184 10.0648 36.7856 10.0648C35.9565 10.0648 35.2387 10.1988 34.6284 10.4621C34.0224 10.7261 33.5553 11.0858 33.2201 11.5384C32.8928 11.9887 32.729 12.4992 32.729 13.0754C32.729 13.5583 32.8433 13.964 33.0651 14.3001C33.3006 14.6413 33.601 14.9273 33.9681 15.1583C34.3443 15.3888 34.7386 15.5799 35.1511 15.7316C35.5707 15.8797 35.9551 15.9995 36.3045 16.0915L36.3053 16.0917L38.2467 16.6144C38.2468 16.6144 38.247 16.6145 38.2471 16.6145C38.7518 16.747 39.3111 16.9294 39.925 17.1611C40.555 17.3966 41.1554 17.7176 41.7263 18.1236C42.3127 18.5297 42.7953 19.0514 43.1739 19.6868C43.5597 20.3342 43.7481 21.1214 43.7481 22.0402C43.7481 23.1039 43.4689 24.0688 42.9095 24.9307C42.3552 25.7942 41.5455 26.4761 40.4891 26.9789C39.4343 27.4839 38.1604 27.7327 36.6735 27.7327C35.2866 27.7327 34.0771 27.509 33.0493 27.0558L33.049 27.0556C32.0295 26.6032 31.221 25.9696 30.6293 25.1528L30.6288 25.1522C30.0432 24.3349 29.7133 23.387 29.6366 22.3133L29.624 22.1373H32.3419L32.3549 22.2875C32.4145 22.979 32.6454 23.5414 33.0413 23.9842C33.4507 24.4289 33.9682 24.763 34.5981 24.9851C35.2393 25.2028 35.9307 25.3123 36.6735 25.3123C37.5394 25.3123 38.3114 25.1721 38.992 24.8951C39.6735 24.6116 40.2065 24.2226 40.5975 23.731C40.9841 23.2386 41.1783 22.6649 41.1783 22.0028C41.1783 21.4 41.0106 20.9248 40.6875 20.562C40.3514 20.1845 39.9055 19.8737 39.3447 19.6324C38.7732 19.3866 38.1546 19.1711 37.4887 18.9861L37.4875 18.9858L35.1342 18.3135L35.134 18.3134C33.6229 17.8789 32.4152 17.2556 31.5199 16.4371C30.611 15.606 30.1591 14.5176 30.1591 13.1875C30.1591 12.0852 30.4578 11.1168 31.059 10.2894L31.0591 10.2892C31.6625 9.46112 32.4703 8.8212 33.4776 8.36852C34.4912 7.9096 35.6197 7.68165 36.8603 7.68165C38.1125 7.68165 39.2322 7.90619 40.2158 8.35955C41.1966 8.8055 41.9793 9.41976 42.5578 10.204C43.1446 10.9909 43.4543 11.8857 43.4868 12.8834L43.4919 13.053H40.9353ZM42.4257 10.3019C41.8655 9.54244 41.1062 8.94479 40.1473 8.509C39.1886 8.06697 38.0929 7.846 36.8603 7.846C35.6401 7.846 34.535 8.07011 33.5452 8.51835C32.5616 8.96033 31.7772 9.58292 31.192 10.386C30.613 11.1829 30.3235 12.1167 30.3235 13.1875C30.3235 14.4762 30.7593 15.5189 31.6308 16.3158C32.5024 17.1127 33.6853 17.7259 35.1794 18.1554L37.5326 18.8278C38.205 19.0146 38.8307 19.2324 39.4096 19.4815C39.9886 19.7305 40.4555 20.0542 40.8104 20.4526C41.1653 20.8511 41.3425 21.3678 41.3425 22.0028C41.3425 22.7001 41.1371 23.3102 40.7263 23.8331C40.3154 24.3498 39.7582 24.7545 39.0548 25.0471C38.3513 25.3334 37.5575 25.4766 36.6735 25.4766C35.914 25.4766 35.2043 25.3646 34.5444 25.1405C33.8907 24.9101 33.3491 24.5615 32.9195 24.0946C32.4962 23.6214 32.2534 23.0238 32.1911 22.3016H29.8005C29.8045 22.3568 29.8091 22.4115 29.8144 22.466C29.9097 23.444 30.2257 24.3074 30.7624 25.0564C31.3351 25.8471 32.1195 26.4634 33.1156 26.9054C34.1179 27.3474 35.3039 27.5684 36.6735 27.5684C38.1427 27.5684 39.391 27.3225 40.4181 26.8307C41.4515 26.3388 42.2358 25.6759 42.7715 24.8416C43.3131 24.0074 43.5839 23.0736 43.5839 22.0402C43.5839 21.1437 43.4003 20.3873 43.0328 19.7709C42.6656 19.1546 42.1986 18.6503 41.6319 18.2582C41.0717 17.8597 40.4835 17.5453 39.8672 17.315C39.2571 17.0846 38.703 16.9041 38.205 16.7734L36.2626 16.2504C35.9078 16.1571 35.5187 16.0356 35.0953 15.8862C34.672 15.7306 34.2673 15.5345 33.8814 15.2979C33.4954 15.0551 33.1779 14.7532 32.9289 14.3921C32.6861 14.0248 32.5647 13.5859 32.5647 13.0754C32.5647 12.4653 32.739 11.9206 33.0876 11.4412C33.4425 10.9618 33.9343 10.5852 34.5631 10.3113C35.1981 10.0374 35.9389 9.9004 36.7856 9.9004C37.9435 9.9004 38.9209 10.1619 39.7178 10.6848C40.5146 11.2078 40.969 11.9424 41.0812 12.8886H43.3222C43.3207 12.8335 43.3179 12.7787 43.3143 12.7243C43.256 11.8255 42.9602 11.0181 42.4257 10.3019ZM54.3898 12.7243H56.9227V27.3966H54.3898V25.1951C54.0437 25.8131 53.5568 26.3467 52.9319 26.796L52.9311 26.7966C52.1876 27.3249 51.2555 27.5833 50.1468 27.5833C49.2254 27.5833 48.4002 27.3816 47.6754 26.9739L47.6746 26.9734C46.9459 26.5571 46.3769 25.9338 45.9657 25.1112L45.9653 25.1108C45.5522 24.2783 45.3503 23.2397 45.3503 22.0028V12.7243H47.8832V21.8534C47.8832 22.8671 48.1655 23.6576 48.7159 24.2431C49.2741 24.8305 49.9831 25.1255 50.8562 25.1255C51.3752 25.1255 51.9077 24.993 52.4549 24.7223L52.4557 24.722C53.0001 24.4558 53.458 24.0468 53.8292 23.4898L53.83 23.4888C54.1991 22.9438 54.3898 22.2406 54.3898 21.3678V12.7243ZM48.5965 24.3561C48.0113 23.7335 47.7187 22.8993 47.7187 21.8534V12.8886H45.5149V22.0028C45.5149 23.223 45.7139 24.2346 46.1124 25.0377C46.5109 25.8346 47.0589 26.4323 47.7559 26.8307C48.4534 27.2229 49.2503 27.419 50.1468 27.419C51.2301 27.419 52.1262 27.1669 52.8359 26.6626C53.5353 26.1596 54.0532 25.5508 54.3898 24.8363C54.395 24.8257 54.4001 24.815 54.4049 24.8043H54.5544V27.2322H56.7581V12.8886H54.5544V21.3678C54.5544 22.2643 54.3581 23.002 53.966 23.581C53.5802 24.1599 53.1008 24.5895 52.5278 24.8696C51.9612 25.1498 51.4042 25.2899 50.8562 25.2899C49.9411 25.2899 49.1881 24.9786 48.5965 24.3561ZM59.0523 27.3966V12.7243H61.5851V27.3966H59.0523ZM59.1137 10.1789L59.1126 10.1778C58.7759 9.85516 58.6042 9.46104 58.6042 9.00395C58.6042 8.54686 58.7759 8.1527 59.1126 7.8301L59.1137 7.82895C59.4555 7.50755 59.8663 7.34546 60.3374 7.34546C60.8084 7.34546 61.2164 7.50747 61.5526 7.82959C61.8948 8.15175 62.0705 8.54599 62.0705 9.00395C62.0705 9.46187 61.8948 9.85615 61.5526 10.1783C61.2164 10.5004 60.8084 10.6624 60.3374 10.6624C59.8663 10.6624 59.4555 10.5004 59.1137 10.1789ZM61.4392 10.0592C61.7505 9.76654 61.9063 9.41481 61.9063 9.00395C61.9063 8.59305 61.7505 8.24132 61.4392 7.9487C61.1343 7.65612 60.7672 7.50981 60.3374 7.50981C59.9079 7.50981 59.5376 7.65612 59.226 7.9487C58.921 8.24132 58.7684 8.59305 58.7684 9.00395C58.7684 9.41481 58.921 9.76654 59.226 10.0592C59.5376 10.3517 59.9079 10.4981 60.3374 10.4981C60.7672 10.4981 61.1343 10.3517 61.4392 10.0592ZM59.2168 27.2322H61.4206V12.8886H59.2168V27.2322Z" fill="#011829"/>
<path fill-rule="evenodd" clip-rule="evenodd" d="M20.7107 13.5901L20.7101 13.5915C22.0042 15.2141 22.7775 17.2693 22.7775 19.5047C22.7775 21.7732 21.981 23.8563 20.652 25.4899L20.5376 25.6306L20.5073 25.4518C20.4815 25.2998 20.4511 25.1463 20.4159 24.9916C19.7508 22.0693 17.5838 19.5634 14.0172 17.5344C11.6087 16.168 10.2301 14.5227 9.86812 12.6534C9.63434 11.4446 9.80817 10.2304 10.144 9.19044C10.4798 8.15081 10.9792 7.27977 11.4036 6.75536L11.4039 6.75504L12.7913 5.05852C13.0346 4.76099 13.4899 4.76099 13.7332 5.05852L20.7107 13.5901ZM22.9052 11.8952L22.9054 11.8945L13.606 0.523672C13.4284 0.306562 13.096 0.306562 12.9185 0.523672L3.6189 11.8946L3.61915 11.8953L3.5889 11.9328C1.8776 14.0564 0.853516 16.755 0.853516 19.6927C0.853516 26.5345 6.40895 32.081 13.2622 32.081C20.1155 32.081 25.6709 26.5345 25.6709 19.6927C25.6709 16.755 24.6468 14.0564 22.9355 11.9328L22.9052 11.8952ZM5.84402 13.5535L5.84437 13.553L6.67616 12.536L6.70129 12.7237C6.7212 12.8725 6.74535 13.022 6.77397 13.1721C7.31219 15.9959 9.23479 18.3505 12.4492 20.174C15.2432 21.7642 16.87 23.5929 17.3387 25.5984C17.5343 26.4354 17.5692 27.2588 17.4845 27.9788L17.4792 28.0234L17.4389 28.0431C16.1779 28.6591 14.7602 29.0049 13.2619 29.0049C8.0067 29.0049 3.74629 24.7516 3.74629 19.5047C3.74629 17.2519 4.53168 15.1819 5.84402 13.5535Z" fill="#011829"/>
</g>
<defs>
<clipPath id="clip0_9816_16298">
<rect width="61.22" height="31.7202" fill="white" transform="translate(0.852539 0.36084)"/>
</clipPath>
</defs>
</svg>
