<svg width="110" height="29" viewBox="0 0 110 29" fill="none" xmlns="http://www.w3.org/2000/svg">
<path d="M4.75801 0.253418V9.54149L0.114258 14.1852V4.89717L4.75801 0.253418Z" fill="#242828"/>
<path d="M18.6901 18.8286C18.6996 20.0543 18.4664 21.2698 18.0039 22.405C17.5414 23.5402 16.8588 24.5726 15.9954 25.4427C15.132 26.3128 14.1049 27.0034 12.9733 27.4747C11.8418 27.9459 10.6281 28.1886 9.40233 28.1886C8.17655 28.1886 6.96289 27.9459 5.83133 27.4747C4.69976 27.0034 3.67268 26.3128 2.80928 25.4427C1.94589 24.5726 1.26326 23.5402 0.800766 22.405C0.338267 21.2698 0.105042 20.0543 0.114536 18.8286V14.1848H4.75829V18.8286C4.75156 19.4427 4.86672 20.0521 5.09708 20.6214C5.32745 21.1908 5.66846 21.7088 6.10036 22.1454C6.53227 22.5821 7.0465 22.9288 7.61328 23.1653C8.18007 23.4019 8.78815 23.5238 9.40233 23.5238C10.0165 23.5238 10.6246 23.4019 11.1914 23.1653C11.7582 22.9288 12.2724 22.5821 12.7043 22.1454C13.1362 21.7088 13.4772 21.1908 13.7076 20.6214C13.9379 20.0521 14.0531 19.4427 14.0464 18.8286H18.6901Z" fill="#242828"/>
<path d="M18.6898 9.5415L14.0461 14.1853H0.114258L4.75801 9.5415H18.6898Z" fill="#00E8B5"/>
<path d="M33.1606 20.1479V11.4545H29.8359V9.54248H38.8337V11.4545H35.5084V20.1479H33.1606Z" fill="#242828"/>
<path d="M40.173 19.7968C39.5953 19.4949 39.1191 19.0298 38.8038 18.4594C38.4828 17.8824 38.3223 17.2027 38.3223 16.4203C38.3223 15.6379 38.4828 14.9584 38.8038 14.3818C39.1179 13.8119 39.5945 13.3482 40.173 13.0499C40.7648 12.7397 41.4521 12.5842 42.2349 12.5835C43.0177 12.5828 43.705 12.7382 44.2968 13.0499C44.8752 13.3482 45.3518 13.8119 45.666 14.3818C45.9855 14.9566 46.1453 15.6355 46.1453 16.4187C46.1453 17.2018 45.9848 17.8815 45.6638 18.4577C45.3484 19.0282 44.8722 19.4933 44.2946 19.7952C43.7027 20.1113 43.0154 20.2692 42.2326 20.2689C41.4499 20.2685 40.7633 20.1111 40.173 19.7968ZM43.8894 16.4187C43.8894 15.7072 43.7464 15.1756 43.4603 14.8237C43.1743 14.4719 42.7656 14.2964 42.2343 14.2971C41.1309 14.2971 40.5792 15.0043 40.5792 16.4187C40.5792 17.833 41.1309 18.5402 42.2343 18.5402C43.3377 18.5402 43.8894 17.833 43.8894 16.4187Z" fill="#242828"/>
<path d="M58.5173 13.3492C58.926 13.8607 59.1303 14.6432 59.1303 15.6964V20.1479H56.8583V15.7716C56.8583 15.2705 56.7805 14.9093 56.6248 14.6883C56.4692 14.4672 56.2059 14.3569 55.8352 14.3573C55.4038 14.3573 55.0678 14.5077 54.8271 14.8087C54.5863 15.1096 54.466 15.5309 54.466 16.0726V20.1479H52.1956V15.7716C52.1956 15.2705 52.1178 14.9093 51.9621 14.6883C51.8065 14.4672 51.5432 14.3569 51.1725 14.3573C50.7411 14.3573 50.4051 14.5077 50.1644 14.8087C49.9236 15.1096 49.8033 15.5309 49.8033 16.0726V20.1479H47.5312V12.7624H49.7431V13.7554C49.9639 13.3837 50.2846 13.0813 50.6687 12.8827C51.0814 12.6758 51.5384 12.5725 52 12.5818C53.0934 12.5818 53.8256 13.0382 54.1968 13.951C54.435 13.5309 54.7836 13.184 55.2049 12.9479C55.6405 12.701 56.1336 12.5737 56.6343 12.579C57.4769 12.5809 58.1046 12.8376 58.5173 13.3492Z" fill="#242828"/>
<path d="M62.337 19.7968C61.7594 19.4949 61.2832 19.0298 60.9678 18.4593C60.6468 17.8824 60.4863 17.2027 60.4863 16.4203C60.4863 15.6379 60.6474 14.9578 60.9695 14.3801C61.2837 13.8101 61.7603 13.3465 62.3387 13.0482C62.9305 12.738 63.6178 12.5825 64.4006 12.5818C65.1834 12.581 65.8707 12.7365 66.4625 13.0482C67.0408 13.3467 67.5174 13.8103 67.8317 14.3801C68.1527 14.9571 68.3132 15.6366 68.3132 16.4186C68.3132 17.2007 68.1527 17.8803 67.8317 18.4577C67.5162 19.028 67.0401 19.4931 66.4625 19.7951C65.8707 20.1113 65.1834 20.2692 64.4006 20.2688C63.6178 20.2684 62.93 20.1111 62.337 19.7968ZM66.0535 16.4186C66.0535 15.7072 65.9105 15.1755 65.6244 14.8237C65.3383 14.4719 64.9297 14.2963 64.3984 14.2971C63.295 14.2971 62.7433 15.0043 62.7433 16.4186C62.7433 17.833 63.295 18.5402 64.3984 18.5402C65.5018 18.5402 66.0535 17.833 66.0535 16.4186Z" fill="#242828"/>
<path d="M72.0491 19.6085C71.2612 19.167 70.6223 18.5013 70.2134 17.696C69.7869 16.8742 69.5738 15.9212 69.5742 14.8372C69.5746 13.7531 69.7877 12.8001 70.2134 11.9784C70.6216 11.175 71.2609 10.5122 72.0491 10.0753C72.8467 9.62945 73.7822 9.40654 74.8555 9.40654C75.5407 9.4039 76.2218 9.51327 76.8717 9.73032C77.5133 9.94617 78.0399 10.2445 78.4516 10.6253L77.6993 12.2971C77.2828 11.9715 76.8182 11.7126 76.3222 11.5298C75.8657 11.3689 75.3852 11.287 74.9012 11.2873C73.9583 11.2873 73.2338 11.5883 72.7278 12.1901C72.2218 12.792 71.9686 13.6747 71.9683 14.8383C71.9683 16.0022 72.2214 16.8876 72.7278 17.4942C73.2342 18.1009 73.9587 18.4043 74.9012 18.4043C75.3853 18.4055 75.8661 18.3241 76.3228 18.1635C76.8192 17.9816 77.2839 17.7226 77.6998 17.3962L78.4521 19.068C78.0401 19.4495 77.5135 19.748 76.8723 19.9635C76.2223 20.1804 75.5412 20.2896 74.856 20.2867C73.782 20.286 72.8463 20.0599 72.0491 19.6085Z" fill="#242828"/>
<path d="M86.5018 13.357C86.9328 13.8738 87.1485 14.654 87.1488 15.6976V20.1479H84.8768V15.8012C84.8768 15.3 84.784 14.9339 84.5982 14.7028C84.4124 14.4717 84.1241 14.3564 83.7333 14.3568C83.2615 14.3568 82.8827 14.5072 82.597 14.8082C82.3113 15.1091 82.1685 15.5103 82.1685 16.0119V20.1479H79.8965V9.54248H82.1685V13.7393C82.419 13.3671 82.7643 13.0685 83.1688 12.8744C83.5946 12.6744 84.0604 12.5739 84.5308 12.5807C85.4131 12.5815 86.0701 12.8402 86.5018 13.357Z" fill="#242828"/>
<path d="M96.3262 12.762V20.1475H94.0715V19.0514C93.8502 19.4336 93.5239 19.7444 93.1313 19.9469C92.7062 20.167 92.233 20.2781 91.7543 20.2701C91.1123 20.2701 90.5456 20.1146 90.0541 19.8037C89.5626 19.4927 89.179 19.049 88.9033 18.4724C88.6277 17.8954 88.4896 17.2257 88.4893 16.4634C88.4889 15.701 88.6269 15.0266 88.9033 14.4399C89.179 13.8533 89.5652 13.3969 90.0619 13.0707C90.5647 12.7427 91.154 12.5723 91.7543 12.5814C92.2331 12.5737 92.7062 12.6849 93.1313 12.9052C93.5236 13.1078 93.8498 13.4184 94.0715 13.8002V12.762H96.3262ZM93.6407 18.0004C93.9268 17.6392 94.0696 17.1176 94.0692 16.4355C94.0689 15.7534 93.926 15.2294 93.6407 14.8635C93.355 14.4975 92.9463 14.3144 92.4147 14.314C91.8831 14.3136 91.4718 14.5018 91.1809 14.8785C90.89 15.2549 90.7445 15.7839 90.7445 16.4656C90.7445 17.1377 90.89 17.6519 91.1809 18.0082C91.4718 18.3644 91.8831 18.5424 92.4147 18.542C92.946 18.5405 93.3546 18.3592 93.6407 17.9981V18.0004Z" fill="#242828"/>
<path d="M97.9951 9.21143H100.433V11.333H97.9951V9.21143ZM98.0703 20.1479V12.7624H100.342V20.1479H98.0703Z" fill="#242828"/>
<path d="M108.694 13.3569C109.125 13.8718 109.341 14.6516 109.341 15.6963V20.1478H107.069V15.8011C107.069 15.2999 106.976 14.9338 106.79 14.7027C106.604 14.4716 106.316 14.3562 105.925 14.3566C105.453 14.3566 105.075 14.5071 104.789 14.808C104.503 15.1089 104.36 15.5102 104.36 16.0117V20.1478H102.088V12.7623H104.3V13.8155C104.55 13.424 104.901 13.107 105.316 12.8977C105.753 12.6822 106.235 12.5738 106.722 12.5817C107.606 12.5817 108.263 12.8401 108.694 13.3569Z" fill="#242828"/>
</svg>
