<svg width="80" height="29" viewBox="0 0 80 29" fill="none" xmlns="http://www.w3.org/2000/svg">
<mask id="mask0_9816_16339" style="mask-type:luminance" maskUnits="userSpaceOnUse" x="0" y="0" width="80" height="29">
<path d="M79.9999 0.0349121H0.204102V28.4068H79.9999V0.0349121Z" fill="white"/>
</mask>
<g mask="url(#mask0_9816_16339)">
<path d="M27.4479 4.10463H18.2585L20.5343 0.0349121H18.499L16.2207 4.08842H0.204102L8.21236 18.3946L5.0042 24.1182H7.03126L9.2286 20.1998L13.826 28.4096L27.4479 4.10463ZM3.22849 5.87737H15.2287L9.2286 16.5813L3.22849 5.87737ZM17.2586 5.87737H24.4235L13.826 24.7937L10.2448 18.3946L17.2586 5.87737Z" fill="#1D2A3A"/>
<path d="M48.186 10.5552L44.0507 22.686H42.4994L39.0696 14.4194L35.6425 22.686H34.0884L29.9883 10.5552H31.9829L34.9993 19.4918L38.7236 10.7335H39.4156L43.1561 19.5729L46.2535 10.5552H48.186Z" fill="#1D2A3A"/>
<path d="M61.3188 10.5551V22.6859H59.7376L59.5348 20.8483C58.9437 21.5255 58.211 22.0647 57.3887 22.428C56.5663 22.7912 55.6742 22.9697 54.7754 22.9508C51.1888 22.9508 48.4941 20.2322 48.4941 16.6191C48.4941 13.0062 51.197 10.2876 54.7754 10.2876C55.6806 10.268 56.5791 10.4485 57.4065 10.8161C58.2339 11.1838 58.9698 11.7295 59.562 12.4144L59.7996 10.5551H61.3188ZM59.37 16.6191C59.37 14.0411 57.4916 12.136 54.9187 12.136C54.3265 12.1219 53.7376 12.2282 53.1878 12.4486C52.6381 12.6692 52.1387 12.9991 51.7203 13.4183C51.3021 13.8376 50.9733 14.3376 50.7542 14.8879C50.5349 15.4381 50.43 16.0271 50.4456 16.6191C50.429 17.212 50.5331 17.802 50.7517 18.3534C50.9703 18.9048 51.2988 19.4058 51.7172 19.8262C52.1357 20.2466 52.6353 20.5775 53.1856 20.7988C53.736 21.02 54.3257 21.1269 54.9187 21.1131C57.5024 21.1131 59.37 19.1999 59.37 16.6191Z" fill="#1D2A3A"/>
<path d="M71.0613 20.9187V22.686H69.4884C66.883 22.686 65.2746 21.0647 65.2746 18.4462V12.2794H63.1396V11.9389L66.8854 7.98535H67.1855V10.5553H70.9909V12.2794H67.1855V18.384C67.1855 20.0053 68.0828 20.9187 69.7343 20.9187H71.0613Z" fill="#1D2A3A"/>
<path d="M79.7722 10.4902V12.2981H78.5345C76.3127 12.2981 75.0612 13.7385 75.0612 16.0814V22.6859H73.1533V10.5551H74.5044L74.813 12.4008C75.6725 11.1604 76.9451 10.4902 78.6912 10.4902H79.7722Z" fill="#1D2A3A"/>
</g>
</svg>
