<svg width="59" height="50" viewBox="0 0 59 50" fill="none" xmlns="http://www.w3.org/2000/svg">
<path d="M17.1613 17.1418C15.028 15.2043 13.2941 13.241 16.0237 10.712C19.1081 7.85489 22.2099 5.01327 25.3292 2.18715C28.1193 -0.341884 29.5248 -0.961878 32.5776 1.85132C35.1943 4.25895 37.7988 6.67949 40.3909 9.11295C42.4244 11.0246 44.5025 12.479 42.9445 14.9796C42.6748 15.4119 42.0005 16.1223 40.9216 17.1108C38.4468 19.3738 35.9877 21.6505 33.5444 23.941C30.6808 26.6225 28.9915 28.2086 25.6235 24.9201C22.8886 22.2464 19.9934 19.7148 17.1613 17.1418ZM30.2552 13.334C30.2552 13.1912 30.2266 13.0498 30.171 12.9178C30.1154 12.7859 30.034 12.666 29.9313 12.565C29.8286 12.464 29.7066 12.3839 29.5724 12.3293C29.4382 12.2746 29.2944 12.2465 29.1492 12.2465C29.0039 12.2465 28.8601 12.2746 28.7259 12.3293C28.5917 12.3839 28.4698 12.464 28.3671 12.565C28.2644 12.666 28.1829 12.7859 28.1273 12.9178C28.0717 13.0498 28.0431 13.1912 28.0431 13.334C28.0431 13.6225 28.1597 13.8991 28.3671 14.1031C28.5745 14.307 28.8558 14.4216 29.1492 14.4216C29.2944 14.4216 29.4382 14.3935 29.5724 14.3388C29.7066 14.2842 29.8286 14.2041 29.9313 14.1031C30.034 14.0021 30.1154 13.8822 30.171 13.7502C30.2266 13.6183 30.2552 13.4769 30.2552 13.334Z" fill="white"/>
<path d="M2.67195 40.2959C1.11665 38.839 -0.680341 37.5266 0.260192 35.0699C0.55181 34.313 1.36361 33.5871 2.0677 32.9361C5.3044 29.9499 8.54634 26.9696 11.7935 23.9954C14.137 21.8461 15.7895 22.9776 17.7389 24.7704C20.8179 27.6051 23.8751 30.4613 26.9104 33.3391C29.1882 35.4962 29.0726 37.3742 26.8421 39.4925C23.686 42.4908 20.4974 45.4556 17.2765 48.3868C15.2614 50.2209 13.7219 50.3992 11.6885 48.5728C8.65494 45.8414 5.64943 43.0824 2.67195 40.2959ZM15.9971 36.4055C15.9971 36.2047 15.9568 36.0058 15.8787 35.8203C15.8005 35.6347 15.6859 35.4661 15.5415 35.3241C15.3971 35.1821 15.2256 35.0694 15.0369 34.9926C14.8482 34.9157 14.646 34.8762 14.4418 34.8762C14.2375 34.8762 14.0353 34.9157 13.8466 34.9926C13.6579 35.0694 13.4864 35.1821 13.342 35.3241C13.1976 35.4661 13.083 35.6347 13.0048 35.8203C12.9267 36.0058 12.8865 36.2047 12.8865 36.4055C12.8865 36.8111 13.0503 37.2001 13.342 37.4869C13.6337 37.7737 14.0293 37.9348 14.4418 37.9348C14.8542 37.9348 15.2498 37.7737 15.5415 37.4869C15.8332 37.2001 15.9971 36.8111 15.9971 36.4055Z" fill="white"/>
<path d="M31.8945 40.1095C30.8909 39.1641 29.911 38.5001 29.6561 37.1827C29.4004 35.8566 29.8453 34.6528 30.9907 33.5712C32.9559 31.7147 36.415 28.5063 41.3681 23.9459C43.7562 21.7475 45.372 23.003 47.4369 24.8862C50.4232 27.6107 53.384 30.3594 56.3195 33.1321C58.9072 35.5759 58.8022 37.2628 56.2301 39.66C53.0985 42.5774 49.9564 45.4845 46.8038 48.3812C43.8167 51.1247 42.2771 49.6057 39.8522 47.4332C37.169 45.0255 34.5164 42.5843 31.8945 40.1095ZM45.4718 36.4103C45.4718 36.2091 45.4315 36.0099 45.3532 35.824C45.2749 35.6382 45.1602 35.4693 45.0155 35.3271C44.8708 35.1848 44.6991 35.072 44.5101 34.995C44.321 34.918 44.1185 34.8784 43.9139 34.8784C43.7093 34.8784 43.5067 34.918 43.3177 34.995C43.1287 35.072 42.9569 35.1848 42.8123 35.3271C42.6676 35.4693 42.5528 35.6382 42.4745 35.824C42.3962 36.0099 42.356 36.2091 42.356 36.4103C42.356 36.8166 42.5201 37.2062 42.8123 37.4935C43.1044 37.7808 43.5007 37.9422 43.9139 37.9422C44.3271 37.9422 44.7233 37.7808 45.0155 37.4935C45.3077 37.2062 45.4718 36.8166 45.4718 36.4103Z" fill="white"/>
</svg>
