<svg width="388" height="50" viewBox="0 0 388 50" fill="none" xmlns="http://www.w3.org/2000/svg">
<path d="M17.3239 17.1418C15.1906 15.2043 13.4567 13.241 16.1863 10.712C19.2707 7.85489 22.3725 5.01327 25.4919 2.18715C28.2819 -0.341884 29.6875 -0.961878 32.7403 1.85132C35.3569 4.25895 37.9614 6.67949 40.5535 9.11295C42.587 11.0246 44.6651 12.479 43.1071 14.9796C42.8374 15.4119 42.1631 16.1223 41.0842 17.1108C38.6094 19.3738 36.1503 21.6505 33.7071 23.941C30.8434 26.6225 29.1542 28.2086 25.7861 24.9201C23.0512 22.2464 20.156 19.7148 17.3239 17.1418ZM30.4178 13.334C30.4178 13.1912 30.3892 13.0498 30.3336 12.9178C30.278 12.7859 30.1966 12.666 30.0939 12.565C29.9912 12.464 29.8692 12.3839 29.735 12.3293C29.6008 12.2746 29.457 12.2465 29.3118 12.2465C29.1665 12.2465 29.0227 12.2746 28.8885 12.3293C28.7543 12.3839 28.6324 12.464 28.5297 12.565C28.427 12.666 28.3455 12.7859 28.2899 12.9178C28.2343 13.0498 28.2057 13.1912 28.2057 13.334C28.2057 13.6225 28.3223 13.8991 28.5297 14.1031C28.7371 14.307 29.0184 14.4216 29.3118 14.4216C29.457 14.4216 29.6008 14.3935 29.735 14.3388C29.8692 14.2842 29.9912 14.2041 30.0939 14.1031C30.1966 14.0021 30.278 13.8822 30.3336 13.7502C30.3892 13.6183 30.4178 13.4769 30.4178 13.334Z" fill="#E14A38"/>
<path d="M2.83444 40.2959C1.27914 38.8389 -0.51785 37.5266 0.422683 35.0699C0.714301 34.313 1.5261 33.5871 2.23019 32.9361C5.46689 29.9498 8.70883 26.9696 11.956 23.9953C14.2995 21.8461 15.952 22.9775 17.9014 24.7703C20.9804 27.6051 24.0376 30.4613 27.0729 33.3391C29.3507 35.4961 29.2351 37.3742 27.0046 39.4925C23.8484 42.4908 20.6599 45.4556 17.439 48.3867C15.4239 50.2209 13.8844 50.3991 11.851 48.5727C8.81743 45.8413 5.81192 43.0824 2.83444 40.2959ZM16.1595 36.4055C16.1595 36.2046 16.1193 36.0058 16.0412 35.8202C15.963 35.6347 15.8484 35.4661 15.704 35.3241C15.5596 35.1821 15.3881 35.0694 15.1994 34.9926C15.0107 34.9157 14.8085 34.8762 14.6043 34.8762C14.4 34.8762 14.1978 34.9157 14.0091 34.9926C13.8204 35.0694 13.6489 35.1821 13.5045 35.3241C13.3601 35.4661 13.2455 35.6347 13.1673 35.8202C13.0892 36.0058 13.049 36.2046 13.049 36.4055C13.049 36.811 13.2128 37.2 13.5045 37.4868C13.7962 37.7736 14.1918 37.9348 14.6043 37.9348C15.0167 37.9348 15.4123 37.7736 15.704 37.4868C15.9957 37.2 16.1595 36.811 16.1595 36.4055Z" fill="#E14A38"/>
<path d="M32.0569 40.1095C31.0533 39.164 30.0734 38.5001 29.8185 37.1826C29.5628 35.8566 30.0077 34.6527 31.1532 33.5712C33.1183 31.7147 36.5774 28.5062 41.5305 23.9459C43.9187 21.7475 45.5344 23.003 47.5993 24.8862C50.5856 27.6107 53.5464 30.3593 56.4819 33.132C59.0697 35.5758 58.9646 37.2627 56.3926 39.66C53.2609 42.5774 50.1188 45.4845 46.9662 48.3812C43.9791 51.1246 42.4396 49.6057 40.0147 47.4331C37.3314 45.0255 34.6788 42.5843 32.0569 40.1095ZM45.6342 36.4102C45.6342 36.2091 45.5939 36.0099 45.5156 35.824C45.4373 35.6382 45.3226 35.4693 45.1779 35.327C45.0332 35.1848 44.8615 35.072 44.6725 34.995C44.4835 34.918 44.2809 34.8784 44.0763 34.8784C43.8717 34.8784 43.6691 34.918 43.4801 34.995C43.2911 35.072 43.1194 35.1848 42.9747 35.327C42.83 35.4693 42.7152 35.6382 42.637 35.824C42.5587 36.0099 42.5184 36.2091 42.5184 36.4102C42.5184 36.8165 42.6825 37.2062 42.9747 37.4935C43.2669 37.7807 43.6631 37.9421 44.0763 37.9421C44.4895 37.9421 44.8857 37.7807 45.1779 37.4935C45.4701 37.2062 45.6342 36.8165 45.6342 36.4102Z" fill="#E14A38"/>
<path d="M74.162 31.5331C75.3014 32.9861 76.9843 33.7125 79.2108 33.7125C81.4373 33.7125 83.115 32.9913 84.2439 31.5488C85.3833 30.0958 85.953 28.047 85.953 25.4024C85.953 22.7265 85.3833 20.6516 84.2439 19.1777C83.115 17.7038 81.4425 16.9669 79.2265 16.9669C77 16.9669 75.3118 17.7091 74.162 19.1934C73.0226 20.6672 72.453 22.7369 72.453 25.4024C72.453 28.0366 73.0226 30.0801 74.162 31.5331ZM79.1951 37.1777C75.7352 37.1777 73.0017 36.1324 70.9948 34.0418C68.9983 31.9408 68 29.0453 68 25.3554C68 21.6446 69.0035 18.7491 71.0105 16.669C73.0174 14.5889 75.7509 13.5488 79.2108 13.5488C82.6707 13.5488 85.399 14.5941 87.3955 16.6847C89.392 18.7648 90.3902 21.6603 90.3902 25.3711C90.3902 29.0401 89.3868 31.9251 87.3798 34.0261C85.3728 36.1272 82.6446 37.1777 79.1951 37.1777Z" fill="#333333"/>
<path d="M94.0279 44.0139V19.6167H97.5557L97.9948 22.0314C98.5592 21.122 99.3066 20.4216 100.237 19.9303C101.178 19.4286 102.223 19.1777 103.373 19.1777C104.784 19.1777 106.023 19.5697 107.089 20.3537C108.166 21.1376 108.981 22.2091 109.535 23.5679C110.089 24.9164 110.366 26.4425 110.366 28.1463C110.366 30.8118 109.718 32.9861 108.422 34.669C107.136 36.3415 105.39 37.1777 103.185 37.1777C102.098 37.1777 101.11 36.9634 100.221 36.5348C99.3432 36.0958 98.6063 35.5052 98.0105 34.7631C98.0941 36.2683 98.1359 37.115 98.1359 37.3031V43.8101L94.0279 44.0139ZM102.307 34.0418C103.53 34.0418 104.491 33.5296 105.192 32.5052C105.902 31.4808 106.258 30.0174 106.258 28.115C106.258 26.1812 105.902 24.7282 105.192 23.7561C104.481 22.784 103.493 22.2979 102.228 22.2979C99.5105 22.2979 98.1359 24.1481 98.1045 27.8484C98.1045 29.9808 98.4547 31.5488 99.1551 32.5523C99.8659 33.5453 100.916 34.0418 102.307 34.0418Z" fill="#333333"/>
<path d="M121.686 37.1777C118.916 37.1777 116.758 36.3833 115.211 34.7944C113.674 33.1951 112.906 30.9895 112.906 28.1777C112.906 25.439 113.632 23.2596 115.085 21.6394C116.538 20.0192 118.519 19.2038 121.028 19.1934C123.401 19.1934 125.24 19.9355 126.547 21.4199C127.864 22.9042 128.523 24.8746 128.523 27.331C128.523 27.5087 128.517 27.7962 128.507 28.1934C128.507 28.5906 128.507 28.8833 128.507 29.0714H117.045C117.087 30.6812 117.526 31.9303 118.362 32.8188C119.209 33.6969 120.369 34.1359 121.843 34.1359C123.725 34.1359 125.533 33.6446 127.268 32.662L127.848 35.5784C126.124 36.6446 124.07 37.1777 121.686 37.1777ZM117.124 26.4843H124.65C124.65 25.0836 124.331 24.007 123.693 23.2544C123.056 22.5017 122.172 22.1254 121.044 22.1254C119.988 22.1254 119.094 22.4913 118.362 23.223C117.641 23.9547 117.228 25.0418 117.124 26.4843Z" fill="#333333"/>
<path d="M131.878 36.8484V19.6167H135.186L135.641 21.7962C137.397 20.061 139.347 19.1934 141.49 19.1934C143.497 19.1934 144.997 19.7735 145.99 20.9338C146.993 22.0836 147.495 23.7561 147.495 25.9512V36.8484H143.371V26.453C143.361 25.0627 143.136 24.0226 142.697 23.3328C142.258 22.6429 141.469 22.2979 140.329 22.2979C139.441 22.2979 138.625 22.5279 137.883 22.9878C137.152 23.4373 136.618 24.007 136.284 24.6969C136.085 25.5122 135.986 26.7666 135.986 28.4599V36.8484H131.878Z" fill="#333333"/>
<path d="M165.667 31.5331C166.807 32.9861 168.49 33.7125 170.716 33.7125C172.943 33.7125 174.62 32.9913 175.749 31.5488C176.888 30.0958 177.458 28.047 177.458 25.4024C177.458 22.7265 176.888 20.6516 175.749 19.1777C174.62 17.7038 172.948 16.9669 170.732 16.9669C168.505 16.9669 166.817 17.7091 165.667 19.1934C164.528 20.6672 163.958 22.7369 163.958 25.4024C163.958 28.0366 164.528 30.0801 165.667 31.5331ZM170.7 37.1777C167.24 37.1777 164.507 36.1324 162.5 34.0418C160.503 31.9408 159.505 29.0453 159.505 25.3554C159.505 21.6446 160.509 18.7491 162.516 16.669C164.523 14.5889 167.256 13.5488 170.716 13.5488C174.176 13.5488 176.904 14.5941 178.901 16.6847C180.897 18.7648 181.895 21.6603 181.895 25.3711C181.895 29.0401 180.892 31.9251 178.885 34.0261C176.878 36.1272 174.15 37.1777 170.7 37.1777Z" fill="#333333"/>
<path d="M185.549 36.8484V19.6167H188.998L189.531 22.2509C190.66 20.4425 192.296 19.5383 194.439 19.5383C194.888 19.5383 195.254 19.5592 195.537 19.601L195.474 23.0348C195.056 22.9721 194.622 22.9408 194.172 22.9408C192.657 22.9408 191.523 23.3432 190.77 24.1481C190.028 24.953 189.657 26.0714 189.657 27.5035V36.8484H185.549Z" fill="#333333"/>
<path d="M202.467 37.1777C200.868 37.1777 199.571 36.7387 198.578 35.8606C197.596 34.9721 197.105 33.6969 197.105 32.0348C197.105 30.2474 197.69 28.9251 198.861 28.0679C200.031 27.2003 201.798 26.6516 204.16 26.4216C204.484 26.3798 204.834 26.338 205.211 26.2962C205.587 26.2544 206.01 26.2125 206.481 26.1707C206.951 26.1289 207.322 26.0923 207.594 26.061V25.1516C207.594 24.1063 207.354 23.3484 206.873 22.878C206.392 22.3972 205.66 22.1568 204.678 22.1568C203.277 22.1568 201.547 22.5488 199.488 23.3328C199.477 23.3014 199.305 22.8258 198.97 21.9059C198.636 20.9861 198.463 20.5157 198.453 20.4948C200.481 19.6272 202.676 19.1934 205.038 19.1934C207.359 19.1934 209.047 19.7003 210.103 20.7143C211.159 21.7178 211.686 23.3484 211.686 25.6063V36.8484H208.645C208.634 36.8066 208.519 36.4564 208.3 35.7979C208.08 35.1394 207.97 34.7892 207.97 34.7474C207.113 35.5836 206.272 36.2003 205.446 36.5976C204.631 36.9843 203.638 37.1777 202.467 37.1777ZM203.58 34.2613C204.531 34.2613 205.357 34.0366 206.057 33.5871C206.768 33.1272 207.275 32.5732 207.578 31.9251V28.601C207.547 28.601 207.27 28.622 206.747 28.6638C206.235 28.7056 205.958 28.7265 205.916 28.7265C204.254 28.8728 203.037 29.1864 202.263 29.6672C201.49 30.1481 201.103 30.9216 201.103 31.9878C201.103 32.7195 201.317 33.284 201.746 33.6812C202.174 34.0679 202.786 34.2613 203.58 34.2613Z" fill="#333333"/>
<path d="M223.368 37.1777C220.733 37.1777 218.679 36.3937 217.206 34.8258C215.742 33.2578 215.01 31.0157 215.01 28.0993C215.01 25.277 215.779 23.0871 217.315 21.5296C218.862 19.9721 220.895 19.1934 223.415 19.1934C225.432 19.1934 227.136 19.6272 228.526 20.4948L227.554 23.4268C226.132 22.6847 224.81 22.3136 223.587 22.3136C222.197 22.3136 221.099 22.8101 220.294 23.8031C219.5 24.7962 219.103 26.2439 219.103 28.1463C219.103 30.0697 219.495 31.5331 220.279 32.5366C221.073 33.5401 222.192 34.0418 223.634 34.0418C225.139 34.0418 226.587 33.5976 227.977 32.7091L228.369 35.8293C227.648 36.3101 226.901 36.6551 226.127 36.8641C225.354 37.0732 224.434 37.1777 223.368 37.1777Z" fill="#333333"/>
<path d="M237.667 37.0836C236.486 37.0836 235.503 36.9477 234.72 36.676C233.946 36.3937 233.334 35.9495 232.885 35.3432C232.436 34.7369 232.122 34.0157 231.944 33.1794C231.767 32.3432 231.678 31.3031 231.678 30.0592V13.2666L235.786 13V29.9808C235.786 31.5279 235.969 32.5784 236.334 33.1324C236.7 33.676 237.411 33.9477 238.467 33.9477C238.99 33.9477 239.653 33.8902 240.458 33.7753L240.568 36.7073C240.557 36.7073 240.427 36.7334 240.176 36.7857C239.936 36.838 239.7 36.8798 239.47 36.9111C239.251 36.953 238.969 36.9895 238.624 37.0209C238.279 37.0627 237.96 37.0836 237.667 37.0836Z" fill="#333333"/>
<path d="M250.477 37.1777C247.707 37.1777 245.549 36.3833 244.002 34.7944C242.465 33.1951 241.697 30.9895 241.697 28.1777C241.697 25.439 242.423 23.2596 243.876 21.6394C245.329 20.0192 247.31 19.2038 249.819 19.1934C252.192 19.1934 254.031 19.9355 255.338 21.4199C256.655 22.9042 257.314 24.8746 257.314 27.331C257.314 27.5087 257.308 27.7962 257.298 28.1934C257.298 28.5906 257.298 28.8833 257.298 29.0714H245.836C245.878 30.6812 246.317 31.9303 247.153 32.8188C248 33.6969 249.16 34.1359 250.634 34.1359C252.516 34.1359 254.324 33.6446 256.059 32.662L256.639 35.5784C254.915 36.6446 252.861 37.1777 250.477 37.1777ZM245.915 26.4843H253.441C253.441 25.0836 253.122 24.007 252.484 23.2544C251.847 22.5017 250.963 22.1254 249.834 22.1254C248.779 22.1254 247.885 22.4913 247.153 23.223C246.432 23.9547 246.019 25.0418 245.915 26.4843Z" fill="#333333"/>
<path d="M274.796 31.5331C275.936 32.9861 277.618 33.7125 279.845 33.7125C282.071 33.7125 283.749 32.9913 284.878 31.5488C286.017 30.0958 286.587 28.047 286.587 25.4024C286.587 22.7265 286.017 20.6516 284.878 19.1777C283.749 17.7038 282.077 16.9669 279.861 16.9669C277.634 16.9669 275.946 17.7091 274.796 19.1934C273.657 20.6672 273.087 22.7369 273.087 25.4024C273.087 28.0366 273.657 30.0801 274.796 31.5331ZM279.829 37.1777C276.369 37.1777 273.636 36.1324 271.629 34.0418C269.632 31.9408 268.634 29.0453 268.634 25.3554C268.634 21.6446 269.638 18.7491 271.645 16.669C273.652 14.5889 276.385 13.5488 279.845 13.5488C283.305 13.5488 286.033 14.5941 288.03 16.6847C290.026 18.7648 291.024 21.6603 291.024 25.3711C291.024 29.0401 290.021 31.9251 288.014 34.0261C286.007 36.1272 283.279 37.1777 279.829 37.1777Z" fill="#333333"/>
<path d="M294.678 36.8484V19.6167H298.127L298.66 22.2509C299.789 20.4425 301.425 19.5383 303.568 19.5383C304.017 19.5383 304.383 19.5592 304.665 19.601L304.603 23.0348C304.185 22.9721 303.751 22.9408 303.301 22.9408C301.786 22.9408 300.652 23.3432 299.899 24.1481C299.157 24.953 298.786 26.0714 298.786 27.5035V36.8484H294.678Z" fill="#333333"/>
<path d="M307.268 36.8484V19.6167H311.376V36.8484H307.268ZM307.268 17.108V13.5958H311.392V17.108H307.268Z" fill="#333333"/>
<path d="M319.122 44.5627L318.887 41.2387H320.972C323.387 41.2387 325.075 40.9146 326.037 40.2665C326.998 39.6289 327.479 38.453 327.479 36.7387C327.479 36.0383 327.448 35.2805 327.385 34.4652C327.113 34.8415 326.852 35.1551 326.601 35.4059C326.361 35.6463 326.052 35.8868 325.676 36.1272C325.31 36.3676 324.866 36.5505 324.343 36.676C323.831 36.7909 323.246 36.8484 322.587 36.8484C320.308 36.8484 318.432 36.0279 316.958 34.3868C315.495 32.7456 314.763 30.6289 314.763 28.0366C314.763 26.6568 314.967 25.4024 315.375 24.2735C315.782 23.1341 316.336 22.1986 317.037 21.4669C317.737 20.7352 318.542 20.176 319.451 19.7892C320.371 19.392 321.348 19.1934 322.383 19.1934C324.693 19.1934 326.413 20.0348 327.542 21.7178L327.824 19.6167H331.493V35.6254C331.493 36.4826 331.451 37.2509 331.368 37.9303C331.284 38.6202 331.138 39.2787 330.929 39.9059C330.72 40.5436 330.443 41.0976 330.098 41.5679C329.763 42.0383 329.34 42.4669 328.828 42.8537C328.315 43.2404 327.709 43.554 327.009 43.7944C326.319 44.0453 325.514 44.2334 324.594 44.3589C323.674 44.4948 322.639 44.5627 321.49 44.5627H319.122ZM323.246 33.9791C326.078 33.9791 327.51 32.0819 327.542 28.2875V27.6916C327.521 25.9878 327.165 24.6707 326.476 23.7404C325.786 22.8101 324.777 22.3397 323.449 22.3293C321.944 22.3293 320.805 22.8467 320.031 23.8815C319.258 24.9059 318.871 26.2909 318.871 28.0366C318.871 29.7195 319.258 31.1307 320.031 32.27C320.815 33.4094 321.887 33.9791 323.246 33.9791Z" fill="#333333"/>
<path d="M340.101 37.1777C338.502 37.1777 337.206 36.7387 336.213 35.8606C335.23 34.9721 334.739 33.6969 334.739 32.0348C334.739 30.2474 335.324 28.9251 336.495 28.0679C337.665 27.2003 339.432 26.6516 341.794 26.4216C342.118 26.3798 342.469 26.338 342.845 26.2962C343.221 26.2544 343.645 26.2125 344.115 26.1707C344.585 26.1289 344.956 26.0923 345.228 26.061V25.1516C345.228 24.1063 344.988 23.3484 344.507 22.878C344.026 22.3972 343.294 22.1568 342.312 22.1568C340.911 22.1568 339.181 22.5488 337.122 23.3328C337.111 23.3014 336.939 22.8258 336.605 21.9059C336.27 20.9861 336.098 20.5157 336.087 20.4948C338.115 19.6272 340.31 19.1934 342.672 19.1934C344.993 19.1934 346.681 19.7003 347.737 20.7143C348.793 21.7178 349.321 23.3484 349.321 25.6063V36.8484H346.279C346.268 36.8066 346.153 36.4564 345.934 35.7979C345.714 35.1394 345.605 34.7892 345.605 34.7474C344.747 35.5836 343.906 36.2003 343.08 36.5976C342.265 36.9843 341.272 37.1777 340.101 37.1777ZM341.214 34.2613C342.165 34.2613 342.991 34.0366 343.692 33.5871C344.402 33.1272 344.909 32.5732 345.213 31.9251V28.601C345.181 28.601 344.904 28.622 344.382 28.6638C343.869 28.7056 343.592 28.7265 343.551 28.7265C341.888 28.8728 340.671 29.1864 339.897 29.6672C339.124 30.1481 338.737 30.9216 338.737 31.9878C338.737 32.7195 338.951 33.284 339.38 33.6812C339.808 34.0679 340.42 34.2613 341.214 34.2613Z" fill="#333333"/>
<path d="M353.46 36.8484V19.6167H356.784L357.254 21.8118C357.463 21.5505 357.662 21.3206 357.85 21.122C358.049 20.9129 358.315 20.6829 358.65 20.4321C358.995 20.1707 359.355 19.9564 359.732 19.7892C360.118 19.622 360.589 19.4808 361.143 19.3659C361.707 19.2509 362.308 19.1934 362.946 19.1934C364.315 19.1934 365.408 19.4704 366.223 20.0244C367.049 20.5784 367.629 21.2265 367.963 21.9686C368.58 21.0801 369.38 20.3955 370.362 19.9146C371.345 19.4338 372.437 19.1934 373.639 19.1934C375.615 19.1934 377.063 19.7526 377.983 20.8711C378.913 21.9895 379.378 23.6463 379.378 25.8415V36.8484H375.254V27.0645C375.254 25.3815 375.066 24.169 374.69 23.4268C374.324 22.6742 373.618 22.2979 372.573 22.2979C370.974 22.2979 369.824 23.0192 369.124 24.4617C368.831 25.0993 368.632 25.8676 368.528 26.7666V36.8484H364.42V26.8763C364.42 25.3397 364.216 24.1951 363.808 23.4425C363.401 22.6899 362.664 22.3136 361.598 22.3136C360.73 22.3136 359.983 22.5331 359.355 22.9721C358.728 23.4111 358.253 23.9861 357.929 24.6969C357.688 25.7526 357.568 27.0174 357.568 28.4913V36.8484H353.46Z" fill="#333333"/>
<path d="M383.533 36.8484V19.6167H387.641V36.8484H383.533ZM383.533 17.108V13.5958H387.657V17.108H383.533Z" fill="#333333"/>
</svg>
