<svg width="46" height="59" viewBox="0 0 46 59" fill="none" xmlns="http://www.w3.org/2000/svg">
<path d="M27.5 4.5C27.5 0.5 24.5 0.5 23 0.5V59H35C37 58.6 37.8333 56.8333 38 56V51H27V43H40C42.4 41.8 43 39.1667 43 38V35H27V26H43C45.4 24.8 46 22.8333 46 22V18H27C27.1667 14.8333 27.5 10 27.5 4.5Z" fill="#333333"/>
<path d="M18.5 4.5C18.5 0.5 21.5 0.5 23 0.5V59H11C9 58.6 8.16667 56.8333 8 56V51H19V43H6C3.6 41.8 3 39.1667 3 38V35H19V26H3C0.6 24.8 0 22.8333 0 22V18H19C18.8333 14.8333 18.5 10 18.5 4.5Z" fill="#333333"/>
</svg>
